0
SECTION
2
ENTITIES
0
LINE
8
FCrtYd
62
7
10
118.8175
20
-115.3
11
118.8175
21
-117.2
0
LINE
8
FCrtYd
62
7
10
118.8175
20
-117.2
11
115.4575
21
-117.2
0
LINE
8
FCrtYd
62
7
10
115.4575
20
-115.3
11
118.8175
21
-115.3
0
LINE
8
FCrtYd
62
7
10
115.4575
20
-117.2
11
115.4575
21
-115.3
0
LINE
8
FFab
62
5
10
118.1375
20
-115.625
11
118.1375
21
-116.875
0
LINE
8
FFab
62
5
10
116.1375
20
-115.625
11
118.1375
21
-115.625
0
LINE
8
FFab
62
5
10
116.1375
20
-116.875
11
116.1375
21
-115.625
0
LINE
8
FFab
62
5
10
118.1375
20
-116.875
11
116.1375
21
-116.875
0
LINE
8
FCrtYd
62
7
10
157.714
20
-109.512
11
160.674
21
-109.512
0
LINE
8
FCrtYd
62
7
10
157.714
20
-110.972
11
157.714
21
-109.512
0
LINE
8
FCrtYd
62
7
10
160.674
20
-109.512
11
160.674
21
-110.972
0
LINE
8
FCrtYd
62
7
10
160.674
20
-110.972
11
157.714
21
-110.972
0
LINE
8
FFab
62
5
10
158.694
20
-109.842
11
158.394
21
-110.142
0
LINE
8
FFab
62
5
10
158.394
20
-110.142
11
158.394
21
-110.642
0
LINE
8
FFab
62
5
10
158.394
20
-110.642
11
159.994
21
-110.642
0
LINE
8
FFab
62
5
10
159.994
20
-110.642
11
159.994
21
-109.842
0
LINE
8
FFab
62
5
10
159.994
20
-109.842
11
158.694
21
-109.842
0
LINE
8
FCrtYd
62
7
10
122.975
20
-49.68
11
121.075
21
-49.68
0
LINE
8
FCrtYd
62
7
10
121.075
20
-46.32
11
122.975
21
-46.32
0
LINE
8
FCrtYd
62
7
10
121.075
20
-49.68
11
121.075
21
-46.32
0
LINE
8
FCrtYd
62
7
10
122.975
20
-46.32
11
122.975
21
-49.68
0
LINE
8
FFab
62
5
10
121.4
20
-49.0
11
121.4
21
-47.0
0
LINE
8
FFab
62
5
10
122.65
20
-47.0
11
122.65
21
-49.0
0
LINE
8
FFab
62
5
10
121.4
20
-47.0
11
122.65
21
-47.0
0
LINE
8
FFab
62
5
10
122.65
20
-49.0
11
121.4
21
-49.0
0
LINE
8
FCrtYd
62
7
10
109.225
20
-75.15
11
105.825
21
-75.15
0
LINE
8
FCrtYd
62
7
10
105.825
20
-75.15
11
105.825
21
-79.35
0
LINE
8
FCrtYd
62
7
10
109.225
20
-79.35
11
109.225
21
-75.15
0
LINE
8
FCrtYd
62
7
10
105.825
20
-79.35
11
109.225
21
-79.35
0
LINE
8
FFab
62
5
10
106.275
20
-75.65
11
106.275
21
-78.85
0
LINE
8
FFab
62
5
10
106.275
20
-78.85
11
108.775
21
-78.85
0
LINE
8
FFab
62
5
10
107.275
20
-75.65
11
106.275
21
-76.65
0
LINE
8
FFab
62
5
10
108.775
20
-78.85
11
108.775
21
-75.65
0
LINE
8
FFab
62
5
10
108.775
20
-75.65
11
106.275
21
-75.65
0
LINE
8
FCrtYd
62
7
10
114.955
20
-74.45
11
112.995
21
-74.45
0
LINE
8
FCrtYd
62
7
10
114.955
20
-71.05
11
114.955
21
-74.45
0
LINE
8
FCrtYd
62
7
10
112.995
20
-71.05
11
114.955
21
-71.05
0
LINE
8
FCrtYd
62
7
10
112.995
20
-74.45
11
112.995
21
-71.05
0
LINE
8
FFab
62
5
10
113.35
20
-73.75
11
113.35
21
-71.75
0
LINE
8
FFab
62
5
10
114.6
20
-71.75
11
114.6
21
-73.75
0
LINE
8
FFab
62
5
10
113.35
20
-71.75
11
114.6
21
-71.75
0
LINE
8
FFab
62
5
10
114.6
20
-73.75
11
113.35
21
-73.75
0
LINE
8
FCrtYd
62
7
10
128.955
20
-86.77
11
128.955
21
-88.23
0
LINE
8
FCrtYd
62
7
10
125.995
20
-88.23
11
125.995
21
-86.77
0
LINE
8
FCrtYd
62
7
10
125.995
20
-86.77
11
128.955
21
-86.77
0
LINE
8
FCrtYd
62
7
10
128.955
20
-88.23
11
125.995
21
-88.23
0
LINE
8
FFab
62
5
10
126.675
20
-87.1
11
128.275
21
-87.1
0
LINE
8
FFab
62
5
10
126.675
20
-87.9
11
126.675
21
-87.1
0
LINE
8
FFab
62
5
10
128.275
20
-87.1
11
128.275
21
-87.9
0
LINE
8
FFab
62
5
10
128.275
20
-87.9
11
126.675
21
-87.9
0
LINE
8
FCrtYd
62
7
10
139.25
20
-123.85
11
139.25
21
-118.15
0
LINE
8
FCrtYd
62
7
10
139.25
20
-118.15
11
132.75
21
-118.15
0
LINE
8
FCrtYd
62
7
10
132.75
20
-118.15
11
132.75
21
-123.85
0
LINE
8
FCrtYd
62
7
10
132.75
20
-123.85
11
139.25
21
-123.85
0
LINE
8
FFab
62
5
10
138.7
20
-123.6
11
138.7
21
-118.4
0
LINE
8
FFab
62
5
10
133.3
20
-123.6
11
138.7
21
-123.6
0
LINE
8
FFab
62
5
10
133.3
20
-118.4
11
133.3
21
-123.6
0
LINE
8
FFab
62
5
10
138.7
20
-118.4
11
133.3
21
-118.4
0
LINE
8
FCrtYd
62
7
10
119.875
20
-49.68
11
117.975
21
-49.68
0
LINE
8
FCrtYd
62
7
10
119.875
20
-46.32
11
119.875
21
-49.68
0
LINE
8
FCrtYd
62
7
10
117.975
20
-46.32
11
119.875
21
-46.32
0
LINE
8
FCrtYd
62
7
10
117.975
20
-49.68
11
117.975
21
-46.32
0
LINE
8
FFab
62
5
10
118.3
20
-47.0
11
119.55
21
-47.0
0
LINE
8
FFab
62
5
10
119.55
20
-47.0
11
119.55
21
-49.0
0
LINE
8
FFab
62
5
10
119.55
20
-49.0
11
118.3
21
-49.0
0
LINE
8
FFab
62
5
10
118.3
20
-49.0
11
118.3
21
-47.0
0
LINE
8
FCrtYd
62
7
10
147.95
20
-115.3
11
147.95
21
-118.7
0
LINE
8
FCrtYd
62
7
10
152.05
20
-118.7
11
152.05
21
-115.3
0
LINE
8
FCrtYd
62
7
10
147.95
20
-118.7
11
152.05
21
-118.7
0
LINE
8
FCrtYd
62
7
10
152.05
20
-115.3
11
147.95
21
-115.3
0
LINE
8
FFab
62
5
10
150.8
20
-115.55
11
150.8
21
-118.45
0
LINE
8
FFab
62
5
10
149.6
20
-115.55
11
150.8
21
-115.55
0
LINE
8
FFab
62
5
10
149.2
20
-118.45
11
149.2
21
-115.95
0
LINE
8
FFab
62
5
10
149.2
20
-115.95
11
149.6
21
-115.55
0
LINE
8
FFab
62
5
10
150.8
20
-118.45
11
149.2
21
-118.45
0
LINE
8
FCrtYd
62
7
10
129.245
20
-71.52
11
130.705
21
-71.52
0
LINE
8
FCrtYd
62
7
10
129.245
20
-74.48
11
129.245
21
-71.52
0
LINE
8
FCrtYd
62
7
10
130.705
20
-71.52
11
130.705
21
-74.48
0
LINE
8
FCrtYd
62
7
10
130.705
20
-74.48
11
129.245
21
-74.48
0
LINE
8
FFab
62
5
10
129.575
20
-72.2
11
130.375
21
-72.2
0
LINE
8
FFab
62
5
10
130.375
20
-72.2
11
130.375
21
-73.8
0
LINE
8
FFab
62
5
10
130.375
20
-73.8
11
129.575
21
-73.8
0
LINE
8
FFab
62
5
10
129.575
20
-73.8
11
129.575
21
-72.2
0
LINE
8
FCrtYd
62
7
10
114.4925
20
-117.2
11
111.1325
21
-117.2
0
LINE
8
FCrtYd
62
7
10
114.4925
20
-115.3
11
114.4925
21
-117.2
0
LINE
8
FCrtYd
62
7
10
111.1325
20
-115.3
11
114.4925
21
-115.3
0
LINE
8
FCrtYd
62
7
10
111.1325
20
-117.2
11
111.1325
21
-115.3
0
LINE
8
FFab
62
5
10
111.8125
20
-115.625
11
113.8125
21
-115.625
0
LINE
8
FFab
62
5
10
113.8125
20
-115.625
11
113.8125
21
-116.875
0
LINE
8
FFab
62
5
10
113.8125
20
-116.875
11
111.8125
21
-116.875
0
LINE
8
FFab
62
5
10
111.8125
20
-116.875
11
111.8125
21
-115.625
0
LINE
8
FCrtYd
62
7
10
128.955
20
-86.43
11
125.995
21
-86.43
0
LINE
8
FCrtYd
62
7
10
125.995
20
-84.97
11
128.955
21
-84.97
0
LINE
8
FCrtYd
62
7
10
125.995
20
-86.43
11
125.995
21
-84.97
0
LINE
8
FCrtYd
62
7
10
128.955
20
-84.97
11
128.955
21
-86.43
0
LINE
8
FFab
62
5
10
126.675
20
-85.3
11
128.275
21
-85.3
0
LINE
8
FFab
62
5
10
128.275
20
-86.1
11
126.675
21
-86.1
0
LINE
8
FFab
62
5
10
126.675
20
-86.1
11
126.675
21
-85.3
0
LINE
8
FFab
62
5
10
128.275
20
-85.3
11
128.275
21
-86.1
0
LINE
8
FCrtYd
62
7
10
148.32
20
-108.50125
11
151.68
21
-108.50125
0
LINE
8
FCrtYd
62
7
10
148.32
20
-110.40125
11
148.32
21
-108.50125
0
LINE
8
FCrtYd
62
7
10
151.68
20
-108.50125
11
151.68
21
-110.40125
0
LINE
8
FCrtYd
62
7
10
151.68
20
-110.40125
11
148.32
21
-110.40125
0
LINE
8
FFab
62
5
10
151.0
20
-108.82625
11
151.0
21
-110.07625
0
LINE
8
FFab
62
5
10
151.0
20
-110.07625
11
149.0
21
-110.07625
0
LINE
8
FFab
62
5
10
149.0
20
-110.07625
11
149.0
21
-108.82625
0
LINE
8
FFab
62
5
10
149.0
20
-108.82625
11
151.0
21
-108.82625
0
LINE
8
FCrtYd
62
7
10
158.425
20
-95.6575
11
158.425
21
-95.4075
0
LINE
8
FCrtYd
62
7
10
158.425
20
-102.1575
11
158.425
21
-104.9075
0
LINE
8
FCrtYd
62
7
10
159.425
20
-98.1575
11
159.425
21
-102.1575
0
LINE
8
FCrtYd
62
7
10
143.425
20
-104.9075
11
143.425
21
-95.4075
0
LINE
8
FCrtYd
62
7
10
159.425
20
-102.1575
11
158.425
21
-102.1575
0
LINE
8
FCrtYd
62
7
10
158.425
20
-95.4075
11
143.425
21
-95.4075
0
LINE
8
FCrtYd
62
7
10
152.425
20
-104.9075
11
143.425
21
-104.9075
0
LINE
8
FCrtYd
62
7
10
158.425
20
-98.1575
11
159.425
21
-98.1575
0
LINE
8
FCrtYd
62
7
10
158.425
20
-95.6575
11
158.425
21
-98.1575
0
LINE
8
FCrtYd
62
7
10
156.425
20
-106.9075
11
152.425
21
-106.9075
0
LINE
8
FCrtYd
62
7
10
158.425
20
-104.9075
11
156.425
21
-104.9075
0
LINE
8
FCrtYd
62
7
10
156.425
20
-104.9075
11
156.425
21
-106.9075
0
LINE
8
FCrtYd
62
7
10
152.425
20
-106.9075
11
152.425
21
-104.9075
0
LINE
8
FFab
62
5
10
143.725
20
-95.6575
11
143.725
21
-104.6575
0
LINE
8
FFab
62
5
10
143.725
20
-104.6575
11
158.225
21
-104.6575
0
LINE
8
FFab
62
5
10
147.225
20
-95.6575
11
147.225
21
-104.6575
0
LINE
8
FFab
62
5
10
157.425
20
-95.6575
11
143.725
21
-95.6575
0
LINE
8
FFab
62
5
10
157.421787
20
-95.652075
11
158.225
21
-96.4075
0
LINE
8
FFab
62
5
10
158.225
20
-104.6575
11
158.225
21
-96.4075
0
LINE
8
FCrtYd
62
7
10
92.775
20
-38.68
11
92.775
21
-35.32
0
LINE
8
FCrtYd
62
7
10
94.675
20
-38.68
11
92.775
21
-38.68
0
LINE
8
FCrtYd
62
7
10
92.775
20
-35.32
11
94.675
21
-35.32
0
LINE
8
FCrtYd
62
7
10
94.675
20
-35.32
11
94.675
21
-38.68
0
LINE
8
FFab
62
5
10
94.35
20
-36.0
11
94.35
21
-38.0
0
LINE
8
FFab
62
5
10
93.1
20
-38.0
11
93.1
21
-36.0
0
LINE
8
FFab
62
5
10
94.35
20
-38.0
11
93.1
21
-38.0
0
LINE
8
FFab
62
5
10
93.1
20
-36.0
11
94.35
21
-36.0
0
LINE
8
FCrtYd
62
7
10
152.425
20
-75.3
11
152.425
21
-78.7
0
LINE
8
FCrtYd
62
7
10
156.525
20
-75.3
11
152.425
21
-75.3
0
LINE
8
FCrtYd
62
7
10
156.525
20
-78.7
11
156.525
21
-75.3
0
LINE
8
FCrtYd
62
7
10
152.425
20
-78.7
11
156.525
21
-78.7
0
LINE
8
FFab
62
5
10
153.675
20
-75.95
11
154.075
21
-75.55
0
LINE
8
FFab
62
5
10
155.275
20
-78.45
11
153.675
21
-78.45
0
LINE
8
FFab
62
5
10
155.275
20
-75.55
11
155.275
21
-78.45
0
LINE
8
FFab
62
5
10
153.675
20
-78.45
11
153.675
21
-75.95
0
LINE
8
FFab
62
5
10
154.075
20
-75.55
11
155.275
21
-75.55
0
LINE
8
FCrtYd
62
7
10
110.705
20
-82.28
11
110.705
21
-84.14
0
LINE
8
FCrtYd
62
7
10
109.765
20
-82.28
11
110.705
21
-82.28
0
LINE
8
FCrtYd
62
7
10
109.765
20
-84.14
11
109.765
21
-82.28
0
LINE
8
FCrtYd
62
7
10
110.705
20
-84.14
11
109.765
21
-84.14
0
LINE
8
FFab
62
5
10
110.485
20
-83.71
11
109.985
21
-83.71
0
LINE
8
FFab
62
5
10
110.485
20
-82.71
11
110.485
21
-83.71
0
LINE
8
FFab
62
5
10
109.985
20
-82.71
11
110.485
21
-82.71
0
LINE
8
FFab
62
5
10
109.985
20
-83.71
11
109.985
21
-82.71
0
LINE
8
FCrtYd
62
7
10
109.005
20
-74.49
11
106.045
21
-74.49
0
LINE
8
FCrtYd
62
7
10
109.005
20
-73.03
11
109.005
21
-74.49
0
LINE
8
FCrtYd
62
7
10
106.045
20
-74.49
11
106.045
21
-73.03
0
LINE
8
FCrtYd
62
7
10
106.045
20
-73.03
11
109.005
21
-73.03
0
LINE
8
FFab
62
5
10
108.325
20
-73.36
11
108.325
21
-74.16
0
LINE
8
FFab
62
5
10
108.325
20
-74.16
11
106.725
21
-74.16
0
LINE
8
FFab
62
5
10
106.725
20
-73.36
11
108.325
21
-73.36
0
LINE
8
FFab
62
5
10
106.725
20
-74.16
11
106.725
21
-73.36
0
LINE
8
FCrtYd
62
7
10
116.995
20
-87.73
11
116.995
21
-86.27
0
LINE
8
FCrtYd
62
7
10
119.955
20
-87.73
11
116.995
21
-87.73
0
LINE
8
FCrtYd
62
7
10
119.955
20
-86.27
11
119.955
21
-87.73
0
LINE
8
FCrtYd
62
7
10
116.995
20
-86.27
11
119.955
21
-86.27
0
LINE
8
FFab
62
5
10
119.275
20
-86.6
11
119.275
21
-87.4
0
LINE
8
FFab
62
5
10
117.675
20
-87.4
11
117.675
21
-86.6
0
LINE
8
FFab
62
5
10
117.675
20
-86.6
11
119.275
21
-86.6
0
LINE
8
FFab
62
5
10
119.275
20
-87.4
11
117.675
21
-87.4
0
LINE
8
FCrtYd
62
7
10
141.6
20
-39.075
11
155.35
21
-39.075
0
LINE
8
FCrtYd
62
7
10
141.6
20
-32.925
11
141.6
21
-39.075
0
LINE
8
FCrtYd
62
7
10
155.35
20
-39.075
11
155.35
21
-32.925
0
LINE
8
FCrtYd
62
7
10
155.35
20
-32.925
11
141.6
21
-32.925
0
LINE
8
FFab
62
5
10
153.55
20
-33.455
11
154.82
21
-34.725
0
LINE
8
FFab
62
5
10
154.82
20
-38.535
11
142.12
21
-38.535
0
LINE
8
FFab
62
5
10
142.12
20
-33.455
11
153.55
21
-33.455
0
LINE
8
FFab
62
5
10
142.12
20
-38.535
11
142.12
21
-33.455
0
LINE
8
FFab
62
5
10
154.82
20
-34.725
11
154.82
21
-38.535
0
LINE
8
FCrtYd
62
7
10
130.3375
20
-78.805
11
133.2975
21
-78.805
0
LINE
8
FCrtYd
62
7
10
130.3375
20
-80.265
11
130.3375
21
-78.805
0
LINE
8
FCrtYd
62
7
10
133.2975
20
-78.805
11
133.2975
21
-80.265
0
LINE
8
FCrtYd
62
7
10
133.2975
20
-80.265
11
130.3375
21
-80.265
0
LINE
8
FFab
62
5
10
132.6175
20
-79.135
11
131.3175
21
-79.135
0
LINE
8
FFab
62
5
10
131.0175
20
-79.935
11
132.6175
21
-79.935
0
LINE
8
FFab
62
5
10
131.3175
20
-79.135
11
131.0175
21
-79.435
0
LINE
8
FFab
62
5
10
132.6175
20
-79.935
11
132.6175
21
-79.135
0
LINE
8
FFab
62
5
10
131.0175
20
-79.435
11
131.0175
21
-79.935
0
LINE
8
FCrtYd
62
7
10
148.295
20
-113.48
11
148.295
21
-111.58
0
LINE
8
FCrtYd
62
7
10
151.655
20
-113.48
11
148.295
21
-113.48
0
LINE
8
FCrtYd
62
7
10
148.295
20
-111.58
11
151.655
21
-111.58
0
LINE
8
FCrtYd
62
7
10
151.655
20
-111.58
11
151.655
21
-113.48
0
LINE
8
FFab
62
5
10
150.975
20
-113.155
11
148.975
21
-113.155
0
LINE
8
FFab
62
5
10
148.975
20
-113.155
11
148.975
21
-111.905
0
LINE
8
FFab
62
5
10
150.975
20
-111.905
11
150.975
21
-113.155
0
LINE
8
FFab
62
5
10
148.975
20
-111.905
11
150.975
21
-111.905
0
CIRCLE
8
Cmts
62
1
10
164.475
20
-122.0
40
4.3
0
CIRCLE
8
FCrtYd
62
7
10
164.475
20
-122.0
40
4.55
0
LINE
8
FCrtYd
62
7
10
160.874
20
-114.192
11
157.514
21
-114.192
0
LINE
8
FCrtYd
62
7
10
160.874
20
-112.292
11
160.874
21
-114.192
0
LINE
8
FCrtYd
62
7
10
157.514
20
-114.192
11
157.514
21
-112.292
0
LINE
8
FCrtYd
62
7
10
157.514
20
-112.292
11
160.874
21
-112.292
0
LINE
8
FFab
62
5
10
160.194
20
-113.867
11
158.194
21
-113.867
0
LINE
8
FFab
62
5
10
158.194
20
-113.867
11
158.194
21
-112.617
0
LINE
8
FFab
62
5
10
160.194
20
-112.617
11
160.194
21
-113.867
0
LINE
8
FFab
62
5
10
158.194
20
-112.617
11
160.194
21
-112.617
0
LINE
8
FCrtYd
62
7
10
120.575
20
-122.2
11
109.375
21
-122.2
0
LINE
8
FCrtYd
62
7
10
109.375
20
-125.8
11
120.575
21
-125.8
0
LINE
8
FCrtYd
62
7
10
109.375
20
-122.2
11
109.375
21
-125.8
0
LINE
8
FCrtYd
62
7
10
120.575
20
-125.8
11
120.575
21
-122.2
0
LINE
8
FFab
62
5
10
120.045
20
-123.365
11
120.045
21
-125.27
0
LINE
8
FFab
62
5
10
109.885
20
-122.73
11
119.41
21
-122.73
0
LINE
8
FFab
62
5
10
120.045
20
-125.27
11
109.885
21
-125.27
0
LINE
8
FFab
62
5
10
119.41
20
-122.73
11
120.045
21
-123.365
0
LINE
8
FFab
62
5
10
109.885
20
-125.27
11
109.885
21
-122.73
0
LINE
8
FCrtYd
62
7
10
141.125
20
-92.85
11
145.825
21
-92.85
0
LINE
8
FCrtYd
62
7
10
145.825
20
-95.15
11
141.125
21
-95.15
0
LINE
8
FCrtYd
62
7
10
145.825
20
-92.85
11
145.825
21
-95.15
0
LINE
8
FCrtYd
62
7
10
141.125
20
-92.85
11
141.125
21
-95.15
0
LINE
8
FFab
62
5
10
142.075
20
-93.1
11
144.875
21
-93.1
0
LINE
8
FFab
62
5
10
144.875
20
-94.9
11
142.075
21
-94.9
0
LINE
8
FFab
62
5
10
143.125
20
-94.0
11
143.125
21
-94.55
0
LINE
8
FFab
62
5
10
143.125
20
-94.0
11
143.725
21
-93.6
0
LINE
8
FFab
62
5
10
142.075
20
-94.9
11
142.075
21
-93.1
0
LINE
8
FFab
62
5
10
142.725
20
-94.0
11
143.125
21
-94.0
0
LINE
8
FFab
62
5
10
143.725
20
-93.6
11
143.725
21
-94.4
0
LINE
8
FFab
62
5
10
144.875
20
-93.1
11
144.875
21
-94.9
0
LINE
8
FFab
62
5
10
143.725
20
-94.0
11
144.225
21
-94.0
0
LINE
8
FFab
62
5
10
143.725
20
-94.4
11
143.125
21
-94.0
0
LINE
8
FFab
62
5
10
143.125
20
-94.0
11
143.125
21
-93.45
0
LINE
8
FCrtYd
62
7
10
90.075
20
-33.3
11
90.075
21
-28.75
0
LINE
8
FCrtYd
62
7
10
90.075
20
-28.75
11
98.875
21
-28.75
0
LINE
8
FCrtYd
62
7
10
92.825
20
-33.3
11
90.075
21
-33.3
0
LINE
8
FCrtYd
62
7
10
98.875
20
-28.75
11
98.875
21
-33.3
0
LINE
8
FCrtYd
62
7
10
96.125
20
-33.3
11
92.825
21
-33.3
0
LINE
8
FCrtYd
62
7
10
98.875
20
-33.3
11
96.125
21
-33.3
0
LINE
8
FFab
62
5
10
97.825
20
-32.8
11
97.825
21
-30.2
0
LINE
8
FFab
62
5
10
91.125
20
-30.2
11
91.125
21
-32.8
0
LINE
8
FFab
62
5
10
97.825
20
-30.2
11
91.125
21
-30.2
0
LINE
8
FFab
62
5
10
91.125
20
-32.8
11
97.825
21
-32.8
0
LINE
8
FCrtYd
62
7
10
141.85
20
-123.35
11
141.85
21
-118.65
0
LINE
8
FCrtYd
62
7
10
144.15
20
-118.65
11
144.15
21
-123.35
0
LINE
8
FCrtYd
62
7
10
144.15
20
-123.35
11
141.85
21
-123.35
0
LINE
8
FCrtYd
62
7
10
144.15
20
-118.65
11
141.85
21
-118.65
0
LINE
8
FFab
62
5
10
143.4
20
-121.25
11
142.6
21
-121.25
0
LINE
8
FFab
62
5
10
142.6
20
-121.25
11
143.0
21
-120.65
0
LINE
8
FFab
62
5
10
143.0
20
-120.65
11
143.55
21
-120.65
0
LINE
8
FFab
62
5
10
143.9
20
-119.6
11
143.9
21
-122.4
0
LINE
8
FFab
62
5
10
143.0
20
-121.25
11
143.0
21
-121.75
0
LINE
8
FFab
62
5
10
143.0
20
-120.65
11
142.45
21
-120.65
0
LINE
8
FFab
62
5
10
142.1
20
-119.6
11
143.9
21
-119.6
0
LINE
8
FFab
62
5
10
143.9
20
-122.4
11
142.1
21
-122.4
0
LINE
8
FFab
62
5
10
142.1
20
-122.4
11
142.1
21
-119.6
0
LINE
8
FFab
62
5
10
143.0
20
-120.25
11
143.0
21
-120.65
0
LINE
8
FFab
62
5
10
143.0
20
-120.65
11
143.4
21
-121.25
0
LINE
8
FCrtYd
62
7
10
106.045
20
-81.47
11
106.045
21
-80.01
0
LINE
8
FCrtYd
62
7
10
109.005
20
-81.47
11
106.045
21
-81.47
0
LINE
8
FCrtYd
62
7
10
109.005
20
-80.01
11
109.005
21
-81.47
0
LINE
8
FCrtYd
62
7
10
106.045
20
-80.01
11
109.005
21
-80.01
0
LINE
8
FFab
62
5
10
106.725
20
-81.14
11
106.725
21
-80.34
0
LINE
8
FFab
62
5
10
108.325
20
-80.34
11
108.325
21
-81.14
0
LINE
8
FFab
62
5
10
106.725
20
-80.34
11
108.325
21
-80.34
0
LINE
8
FFab
62
5
10
108.325
20
-81.14
11
106.725
21
-81.14
0
LINE
8
FCrtYd
62
7
10
118.495
20
-51.14
11
122.455
21
-51.14
0
LINE
8
FCrtYd
62
7
10
118.495
20
-54.85
11
118.495
21
-51.15
0
LINE
8
FCrtYd
62
7
10
122.455
20
-54.85
11
122.455
21
-51.15
0
LINE
8
FCrtYd
62
7
10
118.495
20
-54.85
11
122.455
21
-54.85
0
LINE
8
FFab
62
5
10
121.95
20
-54.5
11
119.0
21
-54.5
0
LINE
8
FFab
62
5
10
119.0
20
-54.5
11
119.0
21
-52.25
0
LINE
8
FFab
62
5
10
121.95
20
-51.5
11
121.95
21
-54.5
0
LINE
8
FFab
62
5
10
121.95
20
-51.5
11
119.65
21
-51.5
0
LINE
8
FFab
62
5
10
119.0
20
-52.25
11
119.65
21
-51.5
0
LINE
8
FCrtYd
62
7
10
127.445
20
-71.52
11
128.905
21
-71.52
0
LINE
8
FCrtYd
62
7
10
127.445
20
-74.48
11
127.445
21
-71.52
0
LINE
8
FCrtYd
62
7
10
128.905
20
-74.48
11
127.445
21
-74.48
0
LINE
8
FCrtYd
62
7
10
128.905
20
-71.52
11
128.905
21
-74.48
0
LINE
8
FFab
62
5
10
128.575
20
-73.8
11
127.775
21
-73.8
0
LINE
8
FFab
62
5
10
127.775
20
-72.2
11
128.575
21
-72.2
0
LINE
8
FFab
62
5
10
128.575
20
-72.2
11
128.575
21
-73.8
0
LINE
8
FFab
62
5
10
127.775
20
-73.8
11
127.775
21
-72.2
0
LINE
8
FCrtYd
62
7
10
151.7
20
-92.08
11
148.3
21
-92.08
0
LINE
8
FCrtYd
62
7
10
148.3
20
-95.92
11
151.7
21
-95.92
0
LINE
8
FCrtYd
62
7
10
148.3
20
-92.08
11
148.3
21
-95.92
0
LINE
8
FCrtYd
62
7
10
151.7
20
-95.92
11
151.7
21
-92.08
0
LINE
8
FFab
62
5
10
148.55
20
-93.35
11
151.125
21
-93.35
0
LINE
8
FFab
62
5
10
151.125
20
-93.35
11
151.45
21
-93.675
0
LINE
8
FFab
62
5
10
148.55
20
-94.65
11
148.55
21
-93.35
0
LINE
8
FFab
62
5
10
151.45
20
-94.65
11
148.55
21
-94.65
0
LINE
8
FFab
62
5
10
151.45
20
-93.675
11
151.45
21
-94.65
0
LINE
8
FCrtYd
62
7
10
128.355
20
-34.02
11
122.205
21
-34.02
0
LINE
8
FCrtYd
62
7
10
122.205
20
-34.02
11
122.205
21
-37.62
0
LINE
8
FCrtYd
62
7
10
128.355
20
-37.62
11
128.355
21
-34.02
0
LINE
8
FCrtYd
62
7
10
122.205
20
-37.62
11
128.355
21
-37.62
0
LINE
8
FFab
62
5
10
122.745
20
-37.09
11
122.745
21
-34.55
0
LINE
8
FFab
62
5
10
127.825
20
-35.185
11
127.825
21
-37.09
0
LINE
8
FFab
62
5
10
127.825
20
-37.09
11
122.745
21
-37.09
0
LINE
8
FFab
62
5
10
122.745
20
-34.55
11
127.19
21
-34.55
0
LINE
8
FFab
62
5
10
127.19
20
-34.55
11
127.825
21
-35.185
0
LINE
8
FCrtYd
62
7
10
116.225
20
-84.25
11
116.225
21
-83.15
0
LINE
8
FCrtYd
62
7
10
125.625
20
-72.3
11
125.625
21
-73.75
0
LINE
8
FCrtYd
62
7
10
116.225
20
-74.85
11
114.775
21
-74.85
0
LINE
8
FCrtYd
62
7
10
128.175
20
-74.85
11
128.175
21
-79.0
0
LINE
8
FCrtYd
62
7
10
126.725
20
-74.85
11
128.175
21
-74.85
0
LINE
8
FCrtYd
62
7
10
128.175
20
-83.15
11
128.175
21
-79.0
0
LINE
8
FCrtYd
62
7
10
117.325
20
-72.3
11
117.325
21
-73.75
0
LINE
8
FCrtYd
62
7
10
126.725
20
-83.15
11
128.175
21
-83.15
0
LINE
8
FCrtYd
62
7
10
126.725
20
-73.75
11
126.725
21
-74.85
0
LINE
8
FCrtYd
62
7
10
121.475
20
-85.7
11
125.625
21
-85.7
0
LINE
8
FCrtYd
62
7
10
126.725
20
-84.25
11
126.725
21
-83.15
0
LINE
8
FCrtYd
62
7
10
121.475
20
-72.3
11
125.625
21
-72.3
0
LINE
8
FCrtYd
62
7
10
117.325
20
-84.25
11
116.225
21
-84.25
0
LINE
8
FCrtYd
62
7
10
117.325
20
-85.7
11
117.325
21
-84.25
0
LINE
8
FCrtYd
62
7
10
117.325
20
-73.75
11
116.225
21
-73.75
0
LINE
8
FCrtYd
62
7
10
114.775
20
-74.85
11
114.775
21
-79.0
0
LINE
8
FCrtYd
62
7
10
116.225
20
-73.75
11
116.225
21
-74.85
0
LINE
8
FCrtYd
62
7
10
121.475
20
-72.3
11
117.325
21
-72.3
0
LINE
8
FCrtYd
62
7
10
125.625
20
-73.75
11
126.725
21
-73.75
0
LINE
8
FCrtYd
62
7
10
114.775
20
-83.15
11
114.775
21
-79.0
0
LINE
8
FCrtYd
62
7
10
125.625
20
-84.25
11
126.725
21
-84.25
0
LINE
8
FCrtYd
62
7
10
125.625
20
-85.7
11
125.625
21
-84.25
0
LINE
8
FCrtYd
62
7
10
121.475
20
-85.7
11
117.325
21
-85.7
0
LINE
8
FCrtYd
62
7
10
116.225
20
-83.15
11
114.775
21
-83.15
0
LINE
8
FFab
62
5
10
116.475
20
-75.0
11
117.475
21
-74.0
0
LINE
8
FFab
62
5
10
126.475
20
-74.0
11
126.475
21
-84.0
0
LINE
8
FFab
62
5
10
116.475
20
-84.0
11
116.475
21
-75.0
0
LINE
8
FFab
62
5
10
126.475
20
-84.0
11
116.475
21
-84.0
0
LINE
8
FFab
62
5
10
117.475
20
-74.0
11
126.475
21
-74.0
0
CIRCLE
8
Cmts
62
1
10
78.475
20
-122.0
40
4.3
0
CIRCLE
8
FCrtYd
62
7
10
78.475
20
-122.0
40
4.55
0
LINE
8
FCrtYd
62
7
10
151.68
20
-99.265
11
151.68
21
-101.165
0
LINE
8
FCrtYd
62
7
10
148.32
20
-99.265
11
151.68
21
-99.265
0
LINE
8
FCrtYd
62
7
10
148.32
20
-101.165
11
148.32
21
-99.265
0
LINE
8
FCrtYd
62
7
10
151.68
20
-101.165
11
148.32
21
-101.165
0
LINE
8
FFab
62
5
10
149.0
20
-100.84
11
149.0
21
-99.59
0
LINE
8
FFab
62
5
10
151.0
20
-100.84
11
149.0
21
-100.84
0
LINE
8
FFab
62
5
10
149.0
20
-99.59
11
151.0
21
-99.59
0
LINE
8
FFab
62
5
10
151.0
20
-99.59
11
151.0
21
-100.84
0
LINE
8
FCrtYd
62
7
10
148.32
20
-107.3225
11
148.32
21
-105.4225
0
LINE
8
FCrtYd
62
7
10
151.68
20
-105.4225
11
151.68
21
-107.3225
0
LINE
8
FCrtYd
62
7
10
148.32
20
-105.4225
11
151.68
21
-105.4225
0
LINE
8
FCrtYd
62
7
10
151.68
20
-107.3225
11
148.32
21
-107.3225
0
LINE
8
FFab
62
5
10
149.0
20
-105.7475
11
151.0
21
-105.7475
0
LINE
8
FFab
62
5
10
151.0
20
-105.7475
11
151.0
21
-106.9975
0
LINE
8
FFab
62
5
10
151.0
20
-106.9975
11
149.0
21
-106.9975
0
LINE
8
FFab
62
5
10
149.0
20
-106.9975
11
149.0
21
-105.7475
0
LINE
8
FCrtYd
62
7
10
141.175
20
-110.65
11
141.175
21
-108.35
0
LINE
8
FCrtYd
62
7
10
145.775
20
-108.35
11
145.775
21
-110.65
0
LINE
8
FCrtYd
62
7
10
141.175
20
-108.35
11
145.775
21
-108.35
0
LINE
8
FCrtYd
62
7
10
145.775
20
-110.65
11
141.175
21
-110.65
0
LINE
8
FFab
62
5
10
145.075
20
-108.7
11
145.075
21
-110.3
0
LINE
8
FFab
62
5
10
141.875
20
-110.3
11
141.875
21
-108.7
0
LINE
8
FFab
62
5
10
145.075
20
-110.3
11
141.875
21
-110.3
0
LINE
8
FFab
62
5
10
141.875
20
-108.7
11
145.075
21
-108.7
0
LINE
8
FCrtYd
62
7
10
164.005
20
-78.445
11
164.005
21
-81.405
0
LINE
8
FCrtYd
62
7
10
164.005
20
-81.405
11
162.545
21
-81.405
0
LINE
8
FCrtYd
62
7
10
162.545
20
-78.445
11
164.005
21
-78.445
0
LINE
8
FCrtYd
62
7
10
162.545
20
-81.405
11
162.545
21
-78.445
0
LINE
8
FFab
62
5
10
162.875
20
-79.125
11
163.675
21
-79.125
0
LINE
8
FFab
62
5
10
162.875
20
-80.725
11
162.875
21
-79.125
0
LINE
8
FFab
62
5
10
163.675
20
-79.125
11
163.675
21
-80.725
0
LINE
8
FFab
62
5
10
163.675
20
-80.725
11
162.875
21
-80.725
0
LINE
8
FCrtYd
62
7
10
109.645
20
-77.4
11
113.005
21
-77.4
0
LINE
8
FCrtYd
62
7
10
113.005
20
-79.3
11
109.645
21
-79.3
0
LINE
8
FCrtYd
62
7
10
113.005
20
-77.4
11
113.005
21
-79.3
0
LINE
8
FCrtYd
62
7
10
109.645
20
-79.3
11
109.645
21
-77.4
0
LINE
8
FFab
62
5
10
112.325
20
-78.975
11
110.325
21
-78.975
0
LINE
8
FFab
62
5
10
110.325
20
-77.725
11
112.325
21
-77.725
0
LINE
8
FFab
62
5
10
110.325
20
-78.975
11
110.325
21
-77.725
0
LINE
8
FFab
62
5
10
112.325
20
-77.725
11
112.325
21
-78.975
0
LINE
8
FCrtYd
62
7
10
114.455
20
-82.02
11
114.455
21
-84.98
0
LINE
8
FCrtYd
62
7
10
112.995
20
-84.98
11
112.995
21
-82.02
0
LINE
8
FCrtYd
62
7
10
114.455
20
-84.98
11
112.995
21
-84.98
0
LINE
8
FCrtYd
62
7
10
112.995
20
-82.02
11
114.455
21
-82.02
0
LINE
8
FFab
62
5
10
114.125
20
-82.7
11
114.125
21
-84.3
0
LINE
8
FFab
62
5
10
113.325
20
-82.7
11
114.125
21
-82.7
0
LINE
8
FFab
62
5
10
114.125
20
-84.3
11
113.325
21
-84.3
0
LINE
8
FFab
62
5
10
113.325
20
-84.3
11
113.325
21
-82.7
0
LINE
8
FCrtYd
62
7
10
112.58
20
-82.02
11
112.58
21
-84.98
0
LINE
8
FCrtYd
62
7
10
112.58
20
-84.98
11
111.12
21
-84.98
0
LINE
8
FCrtYd
62
7
10
111.12
20
-84.98
11
111.12
21
-82.02
0
LINE
8
FCrtYd
62
7
10
111.12
20
-82.02
11
112.58
21
-82.02
0
LINE
8
FFab
62
5
10
111.45
20
-82.7
11
112.25
21
-82.7
0
LINE
8
FFab
62
5
10
111.45
20
-84.3
11
111.45
21
-82.7
0
LINE
8
FFab
62
5
10
112.25
20
-82.7
11
112.25
21
-84.3
0
LINE
8
FFab
62
5
10
112.25
20
-84.3
11
111.45
21
-84.3
0
LINE
8
FCrtYd
62
7
10
145.775
20
-105.35
11
145.775
21
-107.65
0
LINE
8
FCrtYd
62
7
10
141.175
20
-107.65
11
141.175
21
-105.35
0
LINE
8
FCrtYd
62
7
10
141.175
20
-105.35
11
145.775
21
-105.35
0
LINE
8
FCrtYd
62
7
10
145.775
20
-107.65
11
141.175
21
-107.65
0
LINE
8
FFab
62
5
10
145.075
20
-105.7
11
145.075
21
-107.3
0
LINE
8
FFab
62
5
10
145.075
20
-107.3
11
141.875
21
-107.3
0
LINE
8
FFab
62
5
10
141.875
20
-105.7
11
145.075
21
-105.7
0
LINE
8
FFab
62
5
10
141.875
20
-107.3
11
141.875
21
-105.7
0
LINE
8
FCrtYd
62
7
10
145.775
20
-104.65
11
141.175
21
-104.65
0
LINE
8
FCrtYd
62
7
10
141.175
20
-104.65
11
141.175
21
-102.35
0
LINE
8
FCrtYd
62
7
10
141.175
20
-102.35
11
145.775
21
-102.35
0
LINE
8
FCrtYd
62
7
10
145.775
20
-102.35
11
145.775
21
-104.65
0
LINE
8
FFab
62
5
10
141.875
20
-102.7
11
145.075
21
-102.7
0
LINE
8
FFab
62
5
10
145.075
20
-104.3
11
141.875
21
-104.3
0
LINE
8
FFab
62
5
10
141.875
20
-104.3
11
141.875
21
-102.7
0
LINE
8
FFab
62
5
10
145.075
20
-102.7
11
145.075
21
-104.3
0
LINE
8
FCrtYd
62
7
10
166.025
20
-71.95
11
172.525
21
-71.95
0
LINE
8
FCrtYd
62
7
10
172.525
20
-71.95
11
172.525
21
-81.35
0
LINE
8
FCrtYd
62
7
10
172.525
20
-81.35
11
166.025
21
-81.35
0
LINE
8
FCrtYd
62
7
10
166.025
20
-81.35
11
166.025
21
-71.95
0
LINE
8
FFab
62
5
10
172.025
20
-80.4
11
167.025
21
-80.4
0
LINE
8
FFab
62
5
10
167.025
20
-80.4
11
167.025
21
-72.9
0
LINE
8
FFab
62
5
10
172.025
20
-72.9
11
172.025
21
-80.4
0
LINE
8
FFab
62
5
10
167.025
20
-72.9
11
172.025
21
-72.9
0
LINE
8
FCrtYd
62
7
10
151.697504
20
-122.41
11
148.297504
21
-122.41
0
LINE
8
FCrtYd
62
7
10
151.697504
20
-120.45
11
151.697504
21
-122.41
0
LINE
8
FCrtYd
62
7
10
148.297504
20
-120.45
11
151.697504
21
-120.45
0
LINE
8
FCrtYd
62
7
10
148.297504
20
-122.41
11
148.297504
21
-120.45
0
LINE
8
FFab
62
5
10
148.997504
20
-120.805
11
150.997504
21
-120.805
0
LINE
8
FFab
62
5
10
150.997504
20
-120.805
11
150.997504
21
-122.055
0
LINE
8
FFab
62
5
10
150.997504
20
-122.055
11
148.997504
21
-122.055
0
LINE
8
FFab
62
5
10
148.997504
20
-122.055
11
148.997504
21
-120.805
0
LINE
8
FCrtYd
62
7
10
141.195
20
-99.37
11
141.195
21
-97.13
0
LINE
8
FCrtYd
62
7
10
145.755
20
-99.37
11
141.195
21
-99.37
0
LINE
8
FCrtYd
62
7
10
145.755
20
-97.13
11
145.755
21
-99.37
0
LINE
8
FCrtYd
62
7
10
141.195
20
-97.13
11
145.755
21
-97.13
0
LINE
8
FFab
62
5
10
141.875
20
-99.05
11
141.875
21
-97.45
0
LINE
8
FFab
62
5
10
141.875
20
-97.45
11
145.075
21
-97.45
0
LINE
8
FFab
62
5
10
145.075
20
-97.45
11
145.075
21
-99.05
0
LINE
8
FFab
62
5
10
145.075
20
-99.05
11
141.875
21
-99.05
0
LINE
8
FCrtYd
62
7
10
145.225
20
-113.45
11
141.725
21
-113.45
0
LINE
8
FCrtYd
62
7
10
141.725
20
-113.45
11
141.725
21
-111.75
0
LINE
8
FCrtYd
62
7
10
145.225
20
-111.75
11
145.225
21
-113.45
0
LINE
8
FCrtYd
62
7
10
141.725
20
-111.75
11
145.225
21
-111.75
0
LINE
8
FFab
62
5
10
144.475
20
-113.05
11
142.475
21
-113.05
0
LINE
8
FFab
62
5
10
142.475
20
-112.15
11
144.475
21
-112.15
0
LINE
8
FFab
62
5
10
142.475
20
-113.05
11
142.475
21
-112.15
0
LINE
8
FFab
62
5
10
144.475
20
-112.15
11
144.475
21
-113.05
0
LINE
8
FCrtYd
62
7
10
114.445
20
-37.62
11
114.445
21
-34.02
0
LINE
8
FCrtYd
62
7
10
108.295
20
-34.02
11
108.295
21
-37.62
0
LINE
8
FCrtYd
62
7
10
108.295
20
-37.62
11
114.445
21
-37.62
0
LINE
8
FCrtYd
62
7
10
114.445
20
-34.02
11
108.295
21
-34.02
0
LINE
8
FFab
62
5
10
113.915
20
-37.09
11
108.835
21
-37.09
0
LINE
8
FFab
62
5
10
108.835
20
-37.09
11
108.835
21
-34.55
0
LINE
8
FFab
62
5
10
113.915
20
-35.185
11
113.915
21
-37.09
0
LINE
8
FFab
62
5
10
113.28
20
-34.55
11
113.915
21
-35.185
0
LINE
8
FFab
62
5
10
108.835
20
-34.55
11
113.28
21
-34.55
0
CIRCLE
8
Cmts
62
1
10
164.475
20
-36.0
40
4.3
0
CIRCLE
8
FCrtYd
62
7
10
164.475
20
-36.0
40
4.55
0
CIRCLE
8
Cmts
62
1
10
78.475
20
-36.0
40
4.3
0
CIRCLE
8
FCrtYd
62
7
10
78.475
20
-36.0
40
4.55
0
LINE
8
FCrtYd
62
7
10
78.275
20
-65.775
11
74.675
21
-65.775
0
LINE
8
FCrtYd
62
7
10
74.675
20
-92.225
11
78.275
21
-92.225
0
LINE
8
FCrtYd
62
7
10
78.275
20
-92.225
11
78.275
21
-65.775
0
LINE
8
FCrtYd
62
7
10
74.675
20
-65.775
11
74.675
21
-92.225
0
LINE
8
FFab
62
5
10
75.84
20
-66.305
11
77.745
21
-66.305
0
LINE
8
FFab
62
5
10
77.745
20
-91.705
11
75.205
21
-91.705
0
LINE
8
FFab
62
5
10
75.205
20
-91.705
11
75.205
21
-66.94
0
LINE
8
FFab
62
5
10
77.745
20
-66.305
11
77.745
21
-91.705
0
LINE
8
FFab
62
5
10
75.205
20
-66.94
11
75.84
21
-66.305
0
LINE
8
FCrtYd
62
7
10
137.4975
20
-78.585
11
137.4975
21
-80.485
0
LINE
8
FCrtYd
62
7
10
137.4975
20
-80.485
11
134.1375
21
-80.485
0
LINE
8
FCrtYd
62
7
10
134.1375
20
-78.585
11
137.4975
21
-78.585
0
LINE
8
FCrtYd
62
7
10
134.1375
20
-80.485
11
134.1375
21
-78.585
0
LINE
8
FFab
62
5
10
134.8175
20
-78.91
11
136.8175
21
-78.91
0
LINE
8
FFab
62
5
10
134.8175
20
-80.16
11
134.8175
21
-78.91
0
LINE
8
FFab
62
5
10
136.8175
20
-80.16
11
134.8175
21
-80.16
0
LINE
8
FFab
62
5
10
136.8175
20
-78.91
11
136.8175
21
-80.16
0
LINE
8
FCrtYd
62
7
10
94.82
20
-125.8
11
106.02
21
-125.8
0
LINE
8
FCrtYd
62
7
10
106.02
20
-125.8
11
106.02
21
-122.2
0
LINE
8
FCrtYd
62
7
10
106.02
20
-122.2
11
94.82
21
-122.2
0
LINE
8
FCrtYd
62
7
10
94.82
20
-122.2
11
94.82
21
-125.8
0
LINE
8
FFab
62
5
10
104.855
20
-122.73
11
105.49
21
-123.365
0
LINE
8
FFab
62
5
10
95.33
20
-125.27
11
95.33
21
-122.73
0
LINE
8
FFab
62
5
10
95.33
20
-122.73
11
104.855
21
-122.73
0
LINE
8
FFab
62
5
10
105.49
20
-125.27
11
95.33
21
-125.27
0
LINE
8
FFab
62
5
10
105.49
20
-123.365
11
105.49
21
-125.27
0
LINE
8
FCrtYd
62
7
10
148.32
20
-104.24375
11
148.32
21
-102.34375
0
LINE
8
FCrtYd
62
7
10
151.68
20
-102.34375
11
151.68
21
-104.24375
0
LINE
8
FCrtYd
62
7
10
148.32
20
-102.34375
11
151.68
21
-102.34375
0
LINE
8
FCrtYd
62
7
10
151.68
20
-104.24375
11
148.32
21
-104.24375
0
LINE
8
FFab
62
5
10
151.0
20
-102.66875
11
151.0
21
-103.91875
0
LINE
8
FFab
62
5
10
149.0
20
-103.91875
11
149.0
21
-102.66875
0
LINE
8
FFab
62
5
10
149.0
20
-102.66875
11
151.0
21
-102.66875
0
LINE
8
FFab
62
5
10
151.0
20
-103.91875
11
149.0
21
-103.91875
0
LINE
8
FCrtYd
62
7
10
110.735
20
-71.445
11
112.195
21
-71.445
0
LINE
8
FCrtYd
62
7
10
112.195
20
-74.405
11
110.735
21
-74.405
0
LINE
8
FCrtYd
62
7
10
110.735
20
-74.405
11
110.735
21
-71.445
0
LINE
8
FCrtYd
62
7
10
112.195
20
-71.445
11
112.195
21
-74.405
0
LINE
8
FFab
62
5
10
111.065
20
-73.725
11
111.065
21
-72.125
0
LINE
8
FFab
62
5
10
111.065
20
-72.125
11
111.865
21
-72.125
0
LINE
8
FFab
62
5
10
111.865
20
-72.125
11
111.865
21
-73.725
0
LINE
8
FFab
62
5
10
111.865
20
-73.725
11
111.065
21
-73.725
0
LINE
8
FCrtYd
62
7
10
116.995
20
-70.73
11
116.995
21
-69.27
0
LINE
8
FCrtYd
62
7
10
116.995
20
-69.27
11
119.955
21
-69.27
0
LINE
8
FCrtYd
62
7
10
119.955
20
-70.73
11
116.995
21
-70.73
0
LINE
8
FCrtYd
62
7
10
119.955
20
-69.27
11
119.955
21
-70.73
0
LINE
8
FFab
62
5
10
117.675
20
-69.6
11
119.275
21
-69.6
0
LINE
8
FFab
62
5
10
119.275
20
-70.4
11
117.675
21
-70.4
0
LINE
8
FFab
62
5
10
119.275
20
-69.6
11
119.275
21
-70.4
0
LINE
8
FFab
62
5
10
117.675
20
-70.4
11
117.675
21
-69.6
0
ARC
8
Edge
62
2
10
171.475
20
-122.0
30
0
40
5.357568
50
-276.975007
51
-112.500007
0
CIRCLE
8
Edge
62
2
10
78.475
20
-115.0
40
1.152
0
CIRCLE
8
Edge
62
2
10
164.475
20
-115.0
40
1.152
0
CIRCLE
8
Edge
62
2
10
164.475
20
-43.0
40
1.152
0
ARC
8
Edge
62
2
10
78.475
20
-129.0
30
0
40
5.357568
50
86.024993
51
157.499993
0
ARC
8
Edge
62
2
10
71.475
20
-36.0
30
0
40
5.357568
50
-10.975007
51
67.499993
0
LINE
8
Edge
62
2
10
164.475
20
-29.0
11
78.475
21
-29.0
0
LINE
8
Edge
62
2
10
71.475
20
-36.0
11
71.475
21
-122.0
0
CIRCLE
8
Edge
62
2
10
78.475
20
-43.0
40
1.152
0
LINE
8
Edge
62
2
10
171.475
20
-79.0
11
171.475
21
-36.0
0
ARC
8
Edge
62
2
10
164.475
20
-29.0
30
0
40
5.357568
50
-193.975007
51
-22.500007
0
LINE
8
Edge
62
2
10
78.475
20
-129.0
11
164.475
21
-129.0
0
LINE
8
Edge
62
2
10
171.475
20
-122.0
11
171.475
21
-79.0
0
ENDSEC
0
EOF
