%TF.GenerationSoftware,KiCad,Pcbnew,(6.0.11)*%
%TF.CreationDate,2023-04-03T14:35:14+03:00*%
%TF.ProjectId,STM32Custom,53544d33-3243-4757-9374-6f6d2e6b6963,rev?*%
%TF.SameCoordinates,Original*%
%TF.FileFunction,Copper,L4,Bot*%
%TF.FilePolarity,Positive*%
%FSLAX46Y46*%
G04 Gerber Fmt 4.6, Leading zero omitted, Abs format (unit mm)*
G04 Created by KiCad (PCBNEW (6.0.11)) date 2023-04-03 14:35:14*
%MOMM*%
%LPD*%
G01*
G04 APERTURE LIST*
G04 Aperture macros list*
%AMRoundRect*
0 Rectangle with rounded corners*
0 $1 Rounding radius*
0 $2 $3 $4 $5 $6 $7 $8 $9 X,Y pos of 4 corners*
0 Add a 4 corners polygon primitive as box body*
4,1,4,$2,$3,$4,$5,$6,$7,$8,$9,$2,$3,0*
0 Add four circle primitives for the rounded corners*
1,1,$1+$1,$2,$3*
1,1,$1+$1,$4,$5*
1,1,$1+$1,$6,$7*
1,1,$1+$1,$8,$9*
0 Add four rect primitives between the rounded corners*
20,1,$1+$1,$2,$3,$4,$5,0*
20,1,$1+$1,$4,$5,$6,$7,0*
20,1,$1+$1,$6,$7,$8,$9,0*
20,1,$1+$1,$8,$9,$2,$3,0*%
G04 Aperture macros list end*
%TA.AperFunction,ComponentPad*%
%ADD10R,1.700000X1.700000*%
%TD*%
%TA.AperFunction,ComponentPad*%
%ADD11O,1.700000X1.700000*%
%TD*%
%TA.AperFunction,ComponentPad*%
%ADD12R,3.500000X3.500000*%
%TD*%
%TA.AperFunction,ComponentPad*%
%ADD13RoundRect,0.750000X0.750000X1.000000X-0.750000X1.000000X-0.750000X-1.000000X0.750000X-1.000000X0*%
%TD*%
%TA.AperFunction,ComponentPad*%
%ADD14RoundRect,0.875000X0.875000X0.875000X-0.875000X0.875000X-0.875000X-0.875000X0.875000X-0.875000X0*%
%TD*%
%TA.AperFunction,ComponentPad*%
%ADD15C,0.900000*%
%TD*%
%TA.AperFunction,ComponentPad*%
%ADD16C,8.600000*%
%TD*%
%TA.AperFunction,ViaPad*%
%ADD17C,0.800000*%
%TD*%
%TA.AperFunction,Conductor*%
%ADD18C,0.300000*%
%TD*%
G04 APERTURE END LIST*
D10*
%TO.P,J8,1,Pin_1*%
%TO.N,GND*%
X126555000Y-35820000D03*
D11*
%TO.P,J8,2,Pin_2*%
X124015000Y-35820000D03*
%TD*%
D10*
%TO.P,J7,1,Pin_1*%
%TO.N,+3V3*%
X112645000Y-35820000D03*
D11*
%TO.P,J7,2,Pin_2*%
X110105000Y-35820000D03*
%TD*%
D12*
%TO.P,J1,1*%
%TO.N,+12V*%
X157425000Y-100157500D03*
D13*
%TO.P,J1,2*%
%TO.N,GND*%
X163425000Y-100157500D03*
D14*
%TO.P,J1,3*%
X160425000Y-95457500D03*
%TD*%
D10*
%TO.P,J2,1,Pin_1*%
%TO.N,+3V3*%
X153550000Y-34725000D03*
D11*
%TO.P,J2,2,Pin_2*%
%TO.N,SWDIO*%
X153550000Y-37265000D03*
%TO.P,J2,3,Pin_3*%
%TO.N,GND*%
X151010000Y-34725000D03*
%TO.P,J2,4,Pin_4*%
%TO.N,SWCLK*%
X151010000Y-37265000D03*
%TO.P,J2,5,Pin_5*%
%TO.N,GND*%
X148470000Y-34725000D03*
%TO.P,J2,6,Pin_6*%
%TO.N,SWO*%
X148470000Y-37265000D03*
%TO.P,J2,7,Pin_7*%
%TO.N,unconnected-(J2-Pad7)*%
X145930000Y-34725000D03*
%TO.P,J2,8,Pin_8*%
%TO.N,unconnected-(J2-Pad8)*%
X145930000Y-37265000D03*
%TO.P,J2,9,Pin_9*%
%TO.N,GND*%
X143390000Y-34725000D03*
%TO.P,J2,10,Pin_10*%
%TO.N,NRST*%
X143390000Y-37265000D03*
%TD*%
D15*
%TO.P,H3,1,1*%
%TO.N,GND*%
X167700000Y-122000000D03*
D16*
X164475000Y-122000000D03*
D15*
X164475000Y-125225000D03*
X162194581Y-124280419D03*
X166755419Y-119719581D03*
X166755419Y-124280419D03*
X161250000Y-122000000D03*
X164475000Y-118775000D03*
X162194581Y-119719581D03*
%TD*%
D10*
%TO.P,J4,1,Pin_1*%
%TO.N,+3V3*%
X118775000Y-124000000D03*
D11*
%TO.P,J4,2,Pin_2*%
%TO.N,I2C2_SDA*%
X116235000Y-124000000D03*
%TO.P,J4,3,Pin_3*%
%TO.N,I2C2_SCL*%
X113695000Y-124000000D03*
%TO.P,J4,4,Pin_4*%
%TO.N,GND*%
X111155000Y-124000000D03*
%TD*%
D16*
%TO.P,H1,1,1*%
%TO.N,GND*%
X78475000Y-122000000D03*
D15*
X80755419Y-119719581D03*
X81700000Y-122000000D03*
X76194581Y-124280419D03*
X78475000Y-125225000D03*
X76194581Y-119719581D03*
X78475000Y-118775000D03*
X80755419Y-124280419D03*
X75250000Y-122000000D03*
%TD*%
%TO.P,H2,1,1*%
%TO.N,GND*%
X161250000Y-36000000D03*
X166755419Y-38280419D03*
X164475000Y-32775000D03*
X166755419Y-33719581D03*
D16*
X164475000Y-36000000D03*
D15*
X167700000Y-36000000D03*
X164475000Y-39225000D03*
X162194581Y-38280419D03*
X162194581Y-33719581D03*
%TD*%
%TO.P,H4,1,1*%
%TO.N,GND*%
X78475000Y-39225000D03*
X76194581Y-33719581D03*
X78475000Y-32775000D03*
X75250000Y-36000000D03*
X80755419Y-38280419D03*
X81700000Y-36000000D03*
X80755419Y-33719581D03*
D16*
X78475000Y-36000000D03*
D15*
X76194581Y-38280419D03*
%TD*%
D10*
%TO.P,J6,1,Pin_1*%
%TO.N,PA9*%
X76475000Y-67575000D03*
D11*
%TO.P,J6,2,Pin_2*%
%TO.N,PA8*%
X76475000Y-70115000D03*
%TO.P,J6,3,Pin_3*%
%TO.N,PC9*%
X76475000Y-72655000D03*
%TO.P,J6,4,Pin_4*%
%TO.N,PC8*%
X76475000Y-75195000D03*
%TO.P,J6,5,Pin_5*%
%TO.N,PC7*%
X76475000Y-77735000D03*
%TO.P,J6,6,Pin_6*%
%TO.N,PC6*%
X76475000Y-80275000D03*
%TO.P,J6,7,Pin_7*%
%TO.N,PB15*%
X76475000Y-82815000D03*
%TO.P,J6,8,Pin_8*%
%TO.N,PB14*%
X76475000Y-85355000D03*
%TO.P,J6,9,Pin_9*%
%TO.N,PB13*%
X76475000Y-87895000D03*
%TO.P,J6,10,Pin_10*%
%TO.N,PB12*%
X76475000Y-90435000D03*
%TD*%
D10*
%TO.P,J3,1,Pin_1*%
%TO.N,+3V3*%
X104220000Y-124000000D03*
D11*
%TO.P,J3,2,Pin_2*%
%TO.N,USART2_RX*%
X101680000Y-124000000D03*
%TO.P,J3,3,Pin_3*%
%TO.N,USART2_TX*%
X99140000Y-124000000D03*
%TO.P,J3,4,Pin_4*%
%TO.N,GND*%
X96600000Y-124000000D03*
%TD*%
D17*
%TO.N,+3V3*%
X116825000Y-70000000D03*
X149075000Y-105200000D03*
X126675000Y-84750000D03*
X122925000Y-53000000D03*
X118075000Y-115100000D03*
X115125000Y-73700000D03*
X119225000Y-88000000D03*
X111475000Y-74600000D03*
X145975000Y-103500000D03*
X123225000Y-47100000D03*
X149075000Y-107550000D03*
X143925000Y-106500000D03*
X133475000Y-119300000D03*
X120475000Y-47100000D03*
X157544000Y-110242000D03*
X127225000Y-73750000D03*
X133475000Y-122750000D03*
X135375000Y-121000000D03*
X111875000Y-115100000D03*
X118075000Y-117400000D03*
X111875000Y-117400000D03*
X96725000Y-34050000D03*
X131525000Y-121000000D03*
X145975000Y-106500000D03*
X109475000Y-83700000D03*
X143925000Y-103500000D03*
X117725000Y-47100000D03*
%TO.N,GND*%
X141025000Y-110950000D03*
X128275000Y-84750000D03*
X141975000Y-105000000D03*
X110475000Y-72150000D03*
X115225000Y-71800000D03*
X150925000Y-101450000D03*
X164275000Y-80700000D03*
X165575000Y-74400000D03*
X158294000Y-111992000D03*
X137775000Y-79550000D03*
X114725000Y-84300000D03*
X127225000Y-72200000D03*
X114175000Y-80250000D03*
X141975000Y-102050000D03*
X109875000Y-73750000D03*
X150925000Y-91800000D03*
X117975000Y-53000000D03*
X130925000Y-72200000D03*
X141025000Y-102050000D03*
X112725000Y-71800000D03*
X162275000Y-80700000D03*
X109875000Y-76150000D03*
X152375000Y-117000000D03*
X142975000Y-121650000D03*
X128275000Y-88450000D03*
X149075000Y-110700000D03*
X150925000Y-99000000D03*
X164575000Y-74400000D03*
X141025000Y-108000000D03*
X141975000Y-110950000D03*
X142975000Y-123650000D03*
X148025000Y-109450000D03*
X154475000Y-74650000D03*
X105325000Y-80700000D03*
X111125000Y-85100000D03*
X119275000Y-69000000D03*
X105325000Y-78350000D03*
X150125000Y-93050000D03*
X92225000Y-34050000D03*
X141975000Y-108000000D03*
X164575000Y-75400000D03*
X117725000Y-87950000D03*
X165575000Y-75400000D03*
X141025000Y-105000000D03*
X158294000Y-114492000D03*
%TO.N,NRST*%
X122725000Y-68000000D03*
X119475000Y-77000000D03*
%TO.N,PB12*%
X141975000Y-90250000D03*
%TO.N,PB13*%
X140475000Y-88750000D03*
%TO.N,PB14*%
X138975000Y-87250000D03*
%TO.N,PB15*%
X137475000Y-85750000D03*
%TO.N,PC6*%
X135975000Y-84250000D03*
%TO.N,PC7*%
X124475000Y-82000000D03*
%TO.N,PC8*%
X123475000Y-81000000D03*
%TO.N,PC9*%
X122475000Y-80000000D03*
%TO.N,PA8*%
X121475000Y-79000000D03*
%TO.N,PA9*%
X120475000Y-78000000D03*
%TD*%
D18*
%TO.N,NRST*%
X119475000Y-77000000D02*
X120975000Y-75500000D01*
X120975000Y-75500000D02*
X120975000Y-69750000D01*
X120975000Y-69750000D02*
X122725000Y-68000000D01*
%TO.N,PB12*%
X141725000Y-90250000D02*
X120225000Y-111750000D01*
X141975000Y-90250000D02*
X141975000Y-90400000D01*
X76510000Y-90400000D02*
X76475000Y-90435000D01*
X96825000Y-111750000D02*
X76475000Y-91400000D01*
X120225000Y-111750000D02*
X96825000Y-111750000D01*
X141975000Y-90250000D02*
X141725000Y-90250000D01*
X76475000Y-91400000D02*
X76475000Y-90435000D01*
%TO.N,PB13*%
X140475000Y-88750000D02*
X119947224Y-109277776D01*
X77070000Y-87895000D02*
X76475000Y-87895000D01*
X119947224Y-109277776D02*
X98452776Y-109277776D01*
X98452776Y-109277776D02*
X77070000Y-87895000D01*
%TO.N,PB14*%
X119619446Y-106805554D02*
X99880554Y-106805554D01*
X138975000Y-87250000D02*
X138975000Y-87450000D01*
X78430000Y-85355000D02*
X76475000Y-85355000D01*
X138975000Y-87450000D02*
X119619446Y-106805554D01*
X99880554Y-106805554D02*
X78430000Y-85355000D01*
%TO.N,PB15*%
X119291668Y-104333332D02*
X101308332Y-104333332D01*
X101308332Y-104333332D02*
X79790000Y-82815000D01*
X137475000Y-85750000D02*
X137475000Y-86150000D01*
X137475000Y-86150000D02*
X119291668Y-104333332D01*
X79790000Y-82815000D02*
X76475000Y-82815000D01*
%TO.N,PC6*%
X102836110Y-101861110D02*
X81250000Y-80275000D01*
X135975000Y-84250000D02*
X135975000Y-84950000D01*
X135975000Y-84950000D02*
X119063890Y-101861110D01*
X119063890Y-101861110D02*
X102836110Y-101861110D01*
X81250000Y-80275000D02*
X76475000Y-80275000D01*
%TO.N,PC7*%
X82710000Y-77735000D02*
X76475000Y-77735000D01*
X124475000Y-93750000D02*
X118836112Y-99388888D01*
X118836112Y-99388888D02*
X104363888Y-99388888D01*
X104363888Y-99388888D02*
X82710000Y-77735000D01*
X124475000Y-82000000D02*
X124475000Y-93750000D01*
%TO.N,PC8*%
X123475000Y-81000000D02*
X123475000Y-92250000D01*
X105691666Y-96916666D02*
X83970000Y-75195000D01*
X123475000Y-92250000D02*
X118808334Y-96916666D01*
X83970000Y-75195000D02*
X76475000Y-75195000D01*
X118808334Y-96916666D02*
X105691666Y-96916666D01*
%TO.N,PC9*%
X122475000Y-80000000D02*
X122475000Y-90800000D01*
X107319444Y-94444444D02*
X85530000Y-72655000D01*
X118830556Y-94444444D02*
X107319444Y-94444444D01*
X85530000Y-72655000D02*
X76475000Y-72655000D01*
X122475000Y-90800000D02*
X118830556Y-94444444D01*
%TO.N,PA8*%
X108847222Y-91972222D02*
X86990000Y-70115000D01*
X121475000Y-89300000D02*
X118802778Y-91972222D01*
X86990000Y-70115000D02*
X76475000Y-70115000D01*
X121475000Y-79000000D02*
X121475000Y-89300000D01*
X118802778Y-91972222D02*
X108847222Y-91972222D01*
%TO.N,PA9*%
X120475000Y-88030330D02*
X119005330Y-89500000D01*
X110475000Y-89500000D02*
X88550000Y-67575000D01*
X119005330Y-89500000D02*
X110475000Y-89500000D01*
X88550000Y-67575000D02*
X76475000Y-67575000D01*
X120475000Y-78000000D02*
X120475000Y-88030330D01*
%TD*%
M02*
