M48
; DRILL file {KiCad (6.0.11)} date Mon Apr  3 14:34:37 2023
; FORMAT={-:-/ absolute / metric / decimal}
; #@! TF.CreationDate,2023-04-03T14:34:37+03:00
; #@! TF.GenerationSoftware,Kicad,Pcbnew,(6.0.11)
; #@! TF.FileFunction,MixedPlating,1,4
FMAT,2
METRIC
; #@! TA.AperFunction,Plated,PTH,ViaDrill
T1C0.400
; #@! TA.AperFunction,Plated,PTH,ComponentDrill
T2C0.600
; #@! TA.AperFunction,Plated,PTH,ComponentDrill
T3C1.000
; #@! TA.AperFunction,Plated,PTH,ComponentDrill
T4C4.300
; #@! TA.AperFunction,NonPlated,NPTH,ComponentDrill
T5C0.900
%
G90
G05
T1
X92.225Y-34.05
X96.725Y-34.05
X105.325Y-78.35
X105.325Y-80.7
X109.475Y-83.7
X109.875Y-73.75
X109.875Y-76.15
X110.475Y-72.15
X111.125Y-85.1
X111.475Y-74.6
X111.875Y-115.1
X111.875Y-117.4
X112.725Y-71.8
X114.175Y-80.25
X114.725Y-84.3
X115.125Y-73.7
X115.225Y-71.8
X116.825Y-70.0
X117.725Y-47.1
X117.725Y-87.95
X117.975Y-53.0
X118.075Y-115.1
X118.075Y-117.4
X119.225Y-88.0
X119.275Y-69.0
X119.475Y-77.0
X120.475Y-47.1
X120.475Y-78.0
X121.475Y-79.0
X122.475Y-80.0
X122.725Y-68.0
X122.925Y-53.0
X123.225Y-47.1
X123.475Y-81.0
X124.475Y-82.0
X126.675Y-84.75
X127.225Y-72.2
X127.225Y-73.75
X128.275Y-84.75
X128.275Y-88.45
X130.925Y-72.2
X131.525Y-121.0
X133.475Y-119.3
X133.475Y-122.75
X135.375Y-121.0
X135.975Y-84.25
X137.475Y-85.75
X137.775Y-79.55
X138.975Y-87.25
X140.475Y-88.75
X141.025Y-102.05
X141.025Y-105.0
X141.025Y-108.0
X141.025Y-110.95
X141.975Y-90.25
X141.975Y-102.05
X141.975Y-105.0
X141.975Y-108.0
X141.975Y-110.95
X142.975Y-121.65
X142.975Y-123.65
X143.925Y-103.5
X143.925Y-106.5
X145.975Y-103.5
X145.975Y-106.5
X148.025Y-109.45
X149.075Y-105.2
X149.075Y-107.55
X149.075Y-110.7
X150.125Y-93.05
X150.925Y-91.8
X150.925Y-99.0
X150.925Y-101.45
X152.375Y-117.0
X154.475Y-74.65
X157.544Y-110.242
X158.294Y-111.992
X158.294Y-114.492
X162.275Y-80.7
X164.275Y-80.7
X164.575Y-74.4
X164.575Y-75.4
X165.575Y-74.4
X165.575Y-75.4
T2
X75.25Y-36.0
X75.25Y-122.0
X76.195Y-33.72
X76.195Y-38.28
X76.195Y-119.72
X76.195Y-124.28
X78.475Y-32.775
X78.475Y-39.225
X78.475Y-118.775
X78.475Y-125.225
X80.755Y-33.72
X80.755Y-38.28
X80.755Y-119.72
X80.755Y-124.28
X81.7Y-36.0
X81.7Y-122.0
X161.25Y-36.0
X161.25Y-122.0
X162.195Y-33.72
X162.195Y-38.28
X162.195Y-119.72
X162.195Y-124.28
X164.475Y-32.775
X164.475Y-39.225
X164.475Y-118.775
X164.475Y-125.225
X166.755Y-33.72
X166.755Y-38.28
X166.755Y-119.72
X166.755Y-124.28
X167.7Y-36.0
X167.7Y-122.0
T3
X76.475Y-67.575
X76.475Y-70.115
X76.475Y-72.655
X76.475Y-75.195
X76.475Y-77.735
X76.475Y-80.275
X76.475Y-82.815
X76.475Y-85.355
X76.475Y-87.895
X76.475Y-90.435
X96.6Y-124.0
X99.14Y-124.0
X101.68Y-124.0
X104.22Y-124.0
X110.105Y-35.82
X111.155Y-124.0
X112.645Y-35.82
X113.695Y-124.0
X116.235Y-124.0
X118.775Y-124.0
X124.015Y-35.82
X126.555Y-35.82
X143.39Y-34.725
X143.39Y-37.265
X145.93Y-34.725
X145.93Y-37.265
X148.47Y-34.725
X148.47Y-37.265
X151.01Y-34.725
X151.01Y-37.265
X153.55Y-34.725
X153.55Y-37.265
T4
X78.475Y-36.0
X78.475Y-122.0
X164.475Y-36.0
X164.475Y-122.0
T5
X92.975Y-30.87
X95.975Y-30.87
T3
G00X157.425Y-101.157
M15
G01X157.425Y-99.157
M16
G05
G00X161.425Y-95.457
M15
G01X159.425Y-95.457
M16
G05
G00X163.425Y-101.157
M15
G01X163.425Y-99.157
M16
G05
T0
M30
