%TF.GenerationSoftware,KiCad,Pcbnew,(6.0.11)*%
%TF.CreationDate,2023-04-03T14:35:14+03:00*%
%TF.ProjectId,STM32Custom,53544d33-3243-4757-9374-6f6d2e6b6963,rev?*%
%TF.SameCoordinates,Original*%
%TF.FileFunction,Soldermask,Top*%
%TF.FilePolarity,Negative*%
%FSLAX46Y46*%
G04 Gerber Fmt 4.6, Leading zero omitted, Abs format (unit mm)*
G04 Created by KiCad (PCBNEW (6.0.11)) date 2023-04-03 14:35:14*
%MOMM*%
%LPD*%
G01*
G04 APERTURE LIST*
G04 Aperture macros list*
%AMRoundRect*
0 Rectangle with rounded corners*
0 $1 Rounding radius*
0 $2 $3 $4 $5 $6 $7 $8 $9 X,Y pos of 4 corners*
0 Add a 4 corners polygon primitive as box body*
4,1,4,$2,$3,$4,$5,$6,$7,$8,$9,$2,$3,0*
0 Add four circle primitives for the rounded corners*
1,1,$1+$1,$2,$3*
1,1,$1+$1,$4,$5*
1,1,$1+$1,$6,$7*
1,1,$1+$1,$8,$9*
0 Add four rect primitives between the rounded corners*
20,1,$1+$1,$2,$3,$4,$5,0*
20,1,$1+$1,$4,$5,$6,$7,0*
20,1,$1+$1,$6,$7,$8,$9,0*
20,1,$1+$1,$8,$9,$2,$3,0*%
G04 Aperture macros list end*
%ADD10R,1.700000X1.700000*%
%ADD11O,1.700000X1.700000*%
%ADD12RoundRect,0.250000X0.262500X0.450000X-0.262500X0.450000X-0.262500X-0.450000X0.262500X-0.450000X0*%
%ADD13RoundRect,0.218750X0.218750X0.256250X-0.218750X0.256250X-0.218750X-0.256250X0.218750X-0.256250X0*%
%ADD14RoundRect,0.250000X-0.450000X0.262500X-0.450000X-0.262500X0.450000X-0.262500X0.450000X0.262500X0*%
%ADD15R,1.200000X1.400000*%
%ADD16RoundRect,0.250000X0.475000X-0.250000X0.475000X0.250000X-0.475000X0.250000X-0.475000X-0.250000X0*%
%ADD17RoundRect,0.225000X-0.225000X-0.250000X0.225000X-0.250000X0.225000X0.250000X-0.225000X0.250000X0*%
%ADD18R,2.900000X2.500000*%
%ADD19RoundRect,0.150000X0.512500X0.150000X-0.512500X0.150000X-0.512500X-0.150000X0.512500X-0.150000X0*%
%ADD20RoundRect,0.225000X0.250000X-0.225000X0.250000X0.225000X-0.250000X0.225000X-0.250000X-0.225000X0*%
%ADD21RoundRect,0.250000X-0.262500X-0.450000X0.262500X-0.450000X0.262500X0.450000X-0.262500X0.450000X0*%
%ADD22R,3.500000X3.500000*%
%ADD23RoundRect,0.750000X0.750000X1.000000X-0.750000X1.000000X-0.750000X-1.000000X0.750000X-1.000000X0*%
%ADD24RoundRect,0.875000X0.875000X0.875000X-0.875000X0.875000X-0.875000X-0.875000X0.875000X-0.875000X0*%
%ADD25RoundRect,0.147500X0.172500X-0.147500X0.172500X0.147500X-0.172500X0.147500X-0.172500X-0.147500X0*%
%ADD26RoundRect,0.225000X0.225000X0.250000X-0.225000X0.250000X-0.225000X-0.250000X0.225000X-0.250000X0*%
%ADD27C,0.900000*%
%ADD28C,8.600000*%
%ADD29R,0.900000X1.200000*%
%ADD30R,1.000000X0.800000*%
%ADD31R,0.700000X1.500000*%
%ADD32R,1.200000X0.900000*%
%ADD33R,0.900000X0.400000*%
%ADD34R,1.500000X2.400000*%
%ADD35RoundRect,0.150000X-0.150000X0.587500X-0.150000X-0.587500X0.150000X-0.587500X0.150000X0.587500X0*%
%ADD36RoundRect,0.075000X-0.700000X-0.075000X0.700000X-0.075000X0.700000X0.075000X-0.700000X0.075000X0*%
%ADD37RoundRect,0.075000X-0.075000X-0.700000X0.075000X-0.700000X0.075000X0.700000X-0.075000X0.700000X0*%
%ADD38RoundRect,0.250000X0.325000X0.650000X-0.325000X0.650000X-0.325000X-0.650000X0.325000X-0.650000X0*%
%ADD39RoundRect,0.225000X-0.250000X0.225000X-0.250000X-0.225000X0.250000X-0.225000X0.250000X0.225000X0*%
%ADD40R,1.380000X0.450000*%
%ADD41R,1.300000X1.650000*%
%ADD42R,1.550000X1.425000*%
%ADD43R,1.900000X1.800000*%
%ADD44R,1.900000X1.000000*%
%ADD45RoundRect,0.250000X-0.250000X-0.475000X0.250000X-0.475000X0.250000X0.475000X-0.250000X0.475000X0*%
%ADD46RoundRect,0.250000X-0.375000X-0.625000X0.375000X-0.625000X0.375000X0.625000X-0.375000X0.625000X0*%
%ADD47RoundRect,0.218750X0.218750X0.381250X-0.218750X0.381250X-0.218750X-0.381250X0.218750X-0.381250X0*%
G04 APERTURE END LIST*
D10*
%TO.C,J8*%
X126555000Y-35820000D03*
D11*
X124015000Y-35820000D03*
%TD*%
D10*
%TO.C,J7*%
X112645000Y-35820000D03*
D11*
X110105000Y-35820000D03*
%TD*%
D12*
%TO.C,R12*%
X118050000Y-116250000D03*
X116225000Y-116250000D03*
%TD*%
D13*
%TO.C,D2*%
X159981500Y-110242000D03*
X158406500Y-110242000D03*
%TD*%
D14*
%TO.C,R8*%
X122025000Y-47087500D03*
X122025000Y-48912500D03*
%TD*%
D15*
%TO.C,Y1*%
X106675000Y-76150000D03*
X106675000Y-78350000D03*
X108375000Y-78350000D03*
X108375000Y-76150000D03*
%TD*%
D16*
%TO.C,C5*%
X113975000Y-73700000D03*
X113975000Y-71800000D03*
%TD*%
D17*
%TO.C,C13*%
X126700000Y-87500000D03*
X128250000Y-87500000D03*
%TD*%
D18*
%TO.C,L1*%
X138550000Y-121000000D03*
X133450000Y-121000000D03*
%TD*%
D14*
%TO.C,R9*%
X118925000Y-47087500D03*
X118925000Y-48912500D03*
%TD*%
D19*
%TO.C,U1*%
X151137500Y-117950000D03*
X151137500Y-117000000D03*
X151137500Y-116050000D03*
X148862500Y-116050000D03*
X148862500Y-117000000D03*
X148862500Y-117950000D03*
%TD*%
D20*
%TO.C,C14*%
X129975000Y-73775000D03*
X129975000Y-72225000D03*
%TD*%
D21*
%TO.C,R11*%
X111900000Y-116250000D03*
X113725000Y-116250000D03*
%TD*%
D17*
%TO.C,C7*%
X126700000Y-85700000D03*
X128250000Y-85700000D03*
%TD*%
D12*
%TO.C,R6*%
X150912500Y-109451250D03*
X149087500Y-109451250D03*
%TD*%
D22*
%TO.C,J1*%
X157425000Y-100157500D03*
D23*
X163425000Y-100157500D03*
D24*
X160425000Y-95457500D03*
%TD*%
D14*
%TO.C,R10*%
X93725000Y-36087500D03*
X93725000Y-37912500D03*
%TD*%
D19*
%TO.C,U4*%
X155612500Y-77950000D03*
X155612500Y-77000000D03*
X155612500Y-76050000D03*
X153337500Y-76050000D03*
X153337500Y-77000000D03*
X153337500Y-77950000D03*
%TD*%
D25*
%TO.C,L2*%
X110235000Y-83695000D03*
X110235000Y-82725000D03*
%TD*%
D17*
%TO.C,C16*%
X106750000Y-73760000D03*
X108300000Y-73760000D03*
%TD*%
D26*
%TO.C,C6*%
X119250000Y-87000000D03*
X117700000Y-87000000D03*
%TD*%
D10*
%TO.C,J2*%
X153550000Y-34725000D03*
D11*
X153550000Y-37265000D03*
X151010000Y-34725000D03*
X151010000Y-37265000D03*
X148470000Y-34725000D03*
X148470000Y-37265000D03*
X145930000Y-34725000D03*
X145930000Y-37265000D03*
X143390000Y-34725000D03*
X143390000Y-37265000D03*
%TD*%
D13*
%TO.C,D4*%
X132605000Y-79535000D03*
X131030000Y-79535000D03*
%TD*%
D21*
%TO.C,R2*%
X149062500Y-112530000D03*
X150887500Y-112530000D03*
%TD*%
D27*
%TO.C,H3*%
X167700000Y-122000000D03*
D28*
X164475000Y-122000000D03*
D27*
X164475000Y-125225000D03*
X162194581Y-124280419D03*
X166755419Y-119719581D03*
X166755419Y-124280419D03*
X161250000Y-122000000D03*
X164475000Y-118775000D03*
X162194581Y-119719581D03*
%TD*%
D21*
%TO.C,R4*%
X158281500Y-113242000D03*
X160106500Y-113242000D03*
%TD*%
D10*
%TO.C,J4*%
X118775000Y-124000000D03*
D11*
X116235000Y-124000000D03*
X113695000Y-124000000D03*
X111155000Y-124000000D03*
%TD*%
D29*
%TO.C,D1*%
X145125000Y-94000000D03*
X141825000Y-94000000D03*
%TD*%
D30*
%TO.C,SW1*%
X90825000Y-29770000D03*
D27*
X95975000Y-30870000D03*
D30*
X98125000Y-31980000D03*
X98125000Y-29770000D03*
X90825000Y-31980000D03*
D27*
X92975000Y-30870000D03*
D31*
X96725000Y-32630000D03*
X93725000Y-32630000D03*
X92225000Y-32630000D03*
%TD*%
D32*
%TO.C,D3*%
X143000000Y-119350000D03*
X143000000Y-122650000D03*
%TD*%
D26*
%TO.C,C17*%
X108300000Y-80740000D03*
X106750000Y-80740000D03*
%TD*%
D33*
%TO.C,U3*%
X118925000Y-52050000D03*
X118925000Y-53000000D03*
X118925000Y-53950000D03*
X122025000Y-53950000D03*
X122025000Y-53000000D03*
X122025000Y-52050000D03*
D34*
X120475000Y-53000000D03*
%TD*%
D20*
%TO.C,C8*%
X128175000Y-73775000D03*
X128175000Y-72225000D03*
%TD*%
D35*
%TO.C,Q1*%
X150950000Y-93062500D03*
X149050000Y-93062500D03*
X150000000Y-94937500D03*
%TD*%
D36*
%TO.C,U2*%
X115800000Y-75250000D03*
X115800000Y-75750000D03*
X115800000Y-76250000D03*
X115800000Y-76750000D03*
X115800000Y-77250000D03*
X115800000Y-77750000D03*
X115800000Y-78250000D03*
X115800000Y-78750000D03*
X115800000Y-79250000D03*
X115800000Y-79750000D03*
X115800000Y-80250000D03*
X115800000Y-80750000D03*
X115800000Y-81250000D03*
X115800000Y-81750000D03*
X115800000Y-82250000D03*
X115800000Y-82750000D03*
D37*
X117725000Y-84675000D03*
X118225000Y-84675000D03*
X118725000Y-84675000D03*
X119225000Y-84675000D03*
X119725000Y-84675000D03*
X120225000Y-84675000D03*
X120725000Y-84675000D03*
X121225000Y-84675000D03*
X121725000Y-84675000D03*
X122225000Y-84675000D03*
X122725000Y-84675000D03*
X123225000Y-84675000D03*
X123725000Y-84675000D03*
X124225000Y-84675000D03*
X124725000Y-84675000D03*
X125225000Y-84675000D03*
D36*
X127150000Y-82750000D03*
X127150000Y-82250000D03*
X127150000Y-81750000D03*
X127150000Y-81250000D03*
X127150000Y-80750000D03*
X127150000Y-80250000D03*
X127150000Y-79750000D03*
X127150000Y-79250000D03*
X127150000Y-78750000D03*
X127150000Y-78250000D03*
X127150000Y-77750000D03*
X127150000Y-77250000D03*
X127150000Y-76750000D03*
X127150000Y-76250000D03*
X127150000Y-75750000D03*
X127150000Y-75250000D03*
D37*
X125225000Y-73325000D03*
X124725000Y-73325000D03*
X124225000Y-73325000D03*
X123725000Y-73325000D03*
X123225000Y-73325000D03*
X122725000Y-73325000D03*
X122225000Y-73325000D03*
X121725000Y-73325000D03*
X121225000Y-73325000D03*
X120725000Y-73325000D03*
X120225000Y-73325000D03*
X119725000Y-73325000D03*
X119225000Y-73325000D03*
X118725000Y-73325000D03*
X118225000Y-73325000D03*
X117725000Y-73325000D03*
%TD*%
D28*
%TO.C,H1*%
X78475000Y-122000000D03*
D27*
X80755419Y-119719581D03*
X81700000Y-122000000D03*
X76194581Y-124280419D03*
X78475000Y-125225000D03*
X76194581Y-119719581D03*
X78475000Y-118775000D03*
X80755419Y-124280419D03*
X75250000Y-122000000D03*
%TD*%
D21*
%TO.C,R5*%
X149087500Y-100215000D03*
X150912500Y-100215000D03*
%TD*%
%TO.C,R1*%
X149087500Y-106372500D03*
X150912500Y-106372500D03*
%TD*%
D38*
%TO.C,C2*%
X144950000Y-109500000D03*
X142000000Y-109500000D03*
%TD*%
D39*
%TO.C,C15*%
X163275000Y-79150000D03*
X163275000Y-80700000D03*
%TD*%
D12*
%TO.C,R13*%
X112237500Y-78350000D03*
X110412500Y-78350000D03*
%TD*%
D39*
%TO.C,C12*%
X113725000Y-82725000D03*
X113725000Y-84275000D03*
%TD*%
%TO.C,C11*%
X111850000Y-82725000D03*
X111850000Y-84275000D03*
%TD*%
D38*
%TO.C,C3*%
X144950000Y-106500000D03*
X142000000Y-106500000D03*
%TD*%
%TO.C,C4*%
X144950000Y-103500000D03*
X142000000Y-103500000D03*
%TD*%
D40*
%TO.C,J5*%
X167215000Y-77950000D03*
X167215000Y-77300000D03*
X167215000Y-76650000D03*
X167215000Y-76000000D03*
X167215000Y-75350000D03*
D41*
X169875000Y-73275000D03*
D42*
X167300000Y-79137500D03*
D41*
X169875000Y-80025000D03*
D43*
X169875000Y-77800000D03*
D42*
X167300000Y-74162500D03*
D44*
X169875000Y-75100000D03*
%TD*%
D45*
%TO.C,C1*%
X149047504Y-121430000D03*
X150947504Y-121430000D03*
%TD*%
D46*
%TO.C,F1*%
X142075000Y-98250000D03*
X144875000Y-98250000D03*
%TD*%
D47*
%TO.C,FB1*%
X144537500Y-112600000D03*
X142412500Y-112600000D03*
%TD*%
D27*
%TO.C,H2*%
X161250000Y-36000000D03*
X166755419Y-38280419D03*
X164475000Y-32775000D03*
X166755419Y-33719581D03*
D28*
X164475000Y-36000000D03*
D27*
X167700000Y-36000000D03*
X164475000Y-39225000D03*
X162194581Y-38280419D03*
X162194581Y-33719581D03*
%TD*%
%TO.C,H4*%
X78475000Y-39225000D03*
X76194581Y-33719581D03*
X78475000Y-32775000D03*
X75250000Y-36000000D03*
X80755419Y-38280419D03*
X81700000Y-36000000D03*
X80755419Y-33719581D03*
D28*
X78475000Y-36000000D03*
D27*
X76194581Y-38280419D03*
%TD*%
D10*
%TO.C,J6*%
X76475000Y-67575000D03*
D11*
X76475000Y-70115000D03*
X76475000Y-72655000D03*
X76475000Y-75195000D03*
X76475000Y-77735000D03*
X76475000Y-80275000D03*
X76475000Y-82815000D03*
X76475000Y-85355000D03*
X76475000Y-87895000D03*
X76475000Y-90435000D03*
%TD*%
D12*
%TO.C,R7*%
X136730000Y-79535000D03*
X134905000Y-79535000D03*
%TD*%
D10*
%TO.C,J3*%
X104220000Y-124000000D03*
D11*
X101680000Y-124000000D03*
X99140000Y-124000000D03*
X96600000Y-124000000D03*
%TD*%
D12*
%TO.C,R3*%
X150912500Y-103293750D03*
X149087500Y-103293750D03*
%TD*%
D20*
%TO.C,C10*%
X111465000Y-73700000D03*
X111465000Y-72150000D03*
%TD*%
D17*
%TO.C,C9*%
X117700000Y-70000000D03*
X119250000Y-70000000D03*
%TD*%
M02*
