%TF.GenerationSoftware,KiCad,Pcbnew,(6.0.11)*%
%TF.CreationDate,2023-04-03T14:35:14+03:00*%
%TF.ProjectId,STM32Custom,53544d33-3243-4757-9374-6f6d2e6b6963,rev?*%
%TF.SameCoordinates,Original*%
%TF.FileFunction,Legend,Top*%
%TF.FilePolarity,Positive*%
%FSLAX46Y46*%
G04 Gerber Fmt 4.6, Leading zero omitted, Abs format (unit mm)*
G04 Created by KiCad (PCBNEW (6.0.11)) date 2023-04-03 14:35:14*
%MOMM*%
%LPD*%
G01*
G04 APERTURE LIST*
%ADD10C,0.150000*%
%ADD11C,0.100000*%
%ADD12C,0.300000*%
%ADD13C,0.600000*%
%ADD14C,0.200000*%
%ADD15C,0.120000*%
G04 APERTURE END LIST*
D10*
X105596655Y-76150000D02*
G75*
G03*
X105596655Y-76150000I-60828J0D01*
G01*
D11*
X132460523Y-122723714D02*
X132841476Y-122723714D01*
X132651000Y-122914190D02*
X132651000Y-122533238D01*
D12*
X159362142Y-106639095D02*
X159362142Y-105339095D01*
X159857380Y-105339095D01*
X159981190Y-105401000D01*
X160043095Y-105462904D01*
X160105000Y-105586714D01*
X160105000Y-105772428D01*
X160043095Y-105896238D01*
X159981190Y-105958142D01*
X159857380Y-106020047D01*
X159362142Y-106020047D01*
X160909761Y-105339095D02*
X161157380Y-105339095D01*
X161281190Y-105401000D01*
X161405000Y-105524809D01*
X161466904Y-105772428D01*
X161466904Y-106205761D01*
X161405000Y-106453380D01*
X161281190Y-106577190D01*
X161157380Y-106639095D01*
X160909761Y-106639095D01*
X160785952Y-106577190D01*
X160662142Y-106453380D01*
X160600238Y-106205761D01*
X160600238Y-105772428D01*
X160662142Y-105524809D01*
X160785952Y-105401000D01*
X160909761Y-105339095D01*
X161900238Y-105339095D02*
X162209761Y-106639095D01*
X162457380Y-105710523D01*
X162705000Y-106639095D01*
X163014523Y-105339095D01*
X163509761Y-105958142D02*
X163943095Y-105958142D01*
X164128809Y-106639095D02*
X163509761Y-106639095D01*
X163509761Y-105339095D01*
X164128809Y-105339095D01*
X165428809Y-106639095D02*
X164995476Y-106020047D01*
X164685952Y-106639095D02*
X164685952Y-105339095D01*
X165181190Y-105339095D01*
X165305000Y-105401000D01*
X165366904Y-105462904D01*
X165428809Y-105586714D01*
X165428809Y-105772428D01*
X165366904Y-105896238D01*
X165305000Y-105958142D01*
X165181190Y-106020047D01*
X164685952Y-106020047D01*
X167657380Y-106639095D02*
X166914523Y-106639095D01*
X167285952Y-106639095D02*
X167285952Y-105339095D01*
X167162142Y-105524809D01*
X167038333Y-105648619D01*
X166914523Y-105710523D01*
X168152619Y-105462904D02*
X168214523Y-105401000D01*
X168338333Y-105339095D01*
X168647857Y-105339095D01*
X168771666Y-105401000D01*
X168833571Y-105462904D01*
X168895476Y-105586714D01*
X168895476Y-105710523D01*
X168833571Y-105896238D01*
X168090714Y-106639095D01*
X168895476Y-106639095D01*
X169266904Y-105339095D02*
X169700238Y-106639095D01*
X170133571Y-105339095D01*
X108775000Y-34320000D02*
X113975000Y-34320000D01*
X113975000Y-34320000D02*
X113975000Y-29680000D01*
X113975000Y-29680000D02*
X108775000Y-29680000D01*
X108775000Y-29680000D02*
X108775000Y-34320000D01*
X122685000Y-34320000D02*
X127885000Y-34320000D01*
X127885000Y-34320000D02*
X127885000Y-29680000D01*
X127885000Y-29680000D02*
X122685000Y-29680000D01*
X122685000Y-29680000D02*
X122685000Y-34320000D01*
X124294523Y-31350000D02*
X124170714Y-31288095D01*
X123985000Y-31288095D01*
X123799285Y-31350000D01*
X123675476Y-31473809D01*
X123613571Y-31597619D01*
X123551666Y-31845238D01*
X123551666Y-32030952D01*
X123613571Y-32278571D01*
X123675476Y-32402380D01*
X123799285Y-32526190D01*
X123985000Y-32588095D01*
X124108809Y-32588095D01*
X124294523Y-32526190D01*
X124356428Y-32464285D01*
X124356428Y-32030952D01*
X124108809Y-32030952D01*
X124913571Y-32588095D02*
X124913571Y-31288095D01*
X125656428Y-32588095D01*
X125656428Y-31288095D01*
X126275476Y-32588095D02*
X126275476Y-31288095D01*
X126585000Y-31288095D01*
X126770714Y-31350000D01*
X126894523Y-31473809D01*
X126956428Y-31597619D01*
X127018333Y-31845238D01*
X127018333Y-32030952D01*
X126956428Y-32278571D01*
X126894523Y-32402380D01*
X126770714Y-32526190D01*
X126585000Y-32588095D01*
X126275476Y-32588095D01*
X109455952Y-31288095D02*
X110260714Y-31288095D01*
X109827380Y-31783333D01*
X110013095Y-31783333D01*
X110136904Y-31845238D01*
X110198809Y-31907142D01*
X110260714Y-32030952D01*
X110260714Y-32340476D01*
X110198809Y-32464285D01*
X110136904Y-32526190D01*
X110013095Y-32588095D01*
X109641666Y-32588095D01*
X109517857Y-32526190D01*
X109455952Y-32464285D01*
X110817857Y-32464285D02*
X110879761Y-32526190D01*
X110817857Y-32588095D01*
X110755952Y-32526190D01*
X110817857Y-32464285D01*
X110817857Y-32588095D01*
X111313095Y-31288095D02*
X112117857Y-31288095D01*
X111684523Y-31783333D01*
X111870238Y-31783333D01*
X111994047Y-31845238D01*
X112055952Y-31907142D01*
X112117857Y-32030952D01*
X112117857Y-32340476D01*
X112055952Y-32464285D01*
X111994047Y-32526190D01*
X111870238Y-32588095D01*
X111498809Y-32588095D01*
X111375000Y-32526190D01*
X111313095Y-32464285D01*
X112489285Y-31288095D02*
X112922619Y-32588095D01*
X113355952Y-31288095D01*
X115475000Y-42000000D02*
X125475000Y-42000000D01*
X114475000Y-58000000D02*
X114475000Y-43000000D01*
X125475000Y-59000000D02*
X115475000Y-59000000D01*
X126475000Y-43000000D02*
X126475000Y-58000000D01*
X125475000Y-59000000D02*
G75*
G03*
X126475000Y-58000000I1J999999D01*
G01*
X114475000Y-58000000D02*
G75*
G03*
X115475000Y-59000000I999999J-1D01*
G01*
X115475000Y-42000000D02*
G75*
G03*
X114475000Y-43000000I-1J-999999D01*
G01*
X126475000Y-43000000D02*
G75*
G03*
X125475000Y-42000000I-1000000J0D01*
G01*
X116532821Y-41542857D02*
X116682821Y-40342857D01*
X116611392Y-40914285D02*
X117297107Y-40914285D01*
X117218535Y-41542857D02*
X117368535Y-40342857D01*
X117789964Y-41542857D02*
X117939964Y-40342857D01*
X118225678Y-40342857D01*
X118389964Y-40400000D01*
X118489964Y-40514285D01*
X118532821Y-40628571D01*
X118561392Y-40857142D01*
X118539964Y-41028571D01*
X118454250Y-41257142D01*
X118382821Y-41371428D01*
X118254250Y-41485714D01*
X118075678Y-41542857D01*
X117789964Y-41542857D01*
X119689964Y-41428571D02*
X119625678Y-41485714D01*
X119447107Y-41542857D01*
X119332821Y-41542857D01*
X119168535Y-41485714D01*
X119068535Y-41371428D01*
X119025678Y-41257142D01*
X118997107Y-41028571D01*
X119018535Y-40857142D01*
X119104250Y-40628571D01*
X119175678Y-40514285D01*
X119304250Y-40400000D01*
X119482821Y-40342857D01*
X119597107Y-40342857D01*
X119761392Y-40400000D01*
X119811392Y-40457142D01*
X120818535Y-41542857D02*
X120132821Y-41542857D01*
X120475678Y-41542857D02*
X120625678Y-40342857D01*
X120489964Y-40514285D01*
X120361392Y-40628571D01*
X120239964Y-40685714D01*
X121711392Y-40342857D02*
X121825678Y-40342857D01*
X121932821Y-40400000D01*
X121982821Y-40457142D01*
X122025678Y-40571428D01*
X122054250Y-40800000D01*
X122018535Y-41085714D01*
X121932821Y-41314285D01*
X121861392Y-41428571D01*
X121797107Y-41485714D01*
X121675678Y-41542857D01*
X121561392Y-41542857D01*
X121454250Y-41485714D01*
X121404250Y-41428571D01*
X121361392Y-41314285D01*
X121332821Y-41085714D01*
X121368535Y-40800000D01*
X121454250Y-40571428D01*
X121525678Y-40457142D01*
X121589964Y-40400000D01*
X121711392Y-40342857D01*
X122732821Y-40857142D02*
X122625678Y-40800000D01*
X122575678Y-40742857D01*
X122532821Y-40628571D01*
X122539964Y-40571428D01*
X122611392Y-40457142D01*
X122675678Y-40400000D01*
X122797107Y-40342857D01*
X123025678Y-40342857D01*
X123132821Y-40400000D01*
X123182821Y-40457142D01*
X123225678Y-40571428D01*
X123218535Y-40628571D01*
X123147107Y-40742857D01*
X123082821Y-40800000D01*
X122961392Y-40857142D01*
X122732821Y-40857142D01*
X122611392Y-40914285D01*
X122547107Y-40971428D01*
X122475678Y-41085714D01*
X122447107Y-41314285D01*
X122489964Y-41428571D01*
X122539964Y-41485714D01*
X122647107Y-41542857D01*
X122875678Y-41542857D01*
X122997107Y-41485714D01*
X123061392Y-41428571D01*
X123132821Y-41314285D01*
X123161392Y-41085714D01*
X123118535Y-40971428D01*
X123068535Y-40914285D01*
X122961392Y-40857142D01*
X123997107Y-40342857D02*
X124111392Y-40342857D01*
X124218535Y-40400000D01*
X124268535Y-40457142D01*
X124311392Y-40571428D01*
X124339964Y-40800000D01*
X124304250Y-41085714D01*
X124218535Y-41314285D01*
X124147107Y-41428571D01*
X124082821Y-41485714D01*
X123961392Y-41542857D01*
X123847107Y-41542857D01*
X123739964Y-41485714D01*
X123689964Y-41428571D01*
X123647107Y-41314285D01*
X123618535Y-41085714D01*
X123654250Y-40800000D01*
X123739964Y-40571428D01*
X123811392Y-40457142D01*
X123875678Y-40400000D01*
X123997107Y-40342857D01*
X79435000Y-68112857D02*
X79435000Y-66912857D01*
X79892142Y-66912857D01*
X80006428Y-66970000D01*
X80063571Y-67027142D01*
X80120714Y-67141428D01*
X80120714Y-67312857D01*
X80063571Y-67427142D01*
X80006428Y-67484285D01*
X79892142Y-67541428D01*
X79435000Y-67541428D01*
X80577857Y-67770000D02*
X81149285Y-67770000D01*
X80463571Y-68112857D02*
X80863571Y-66912857D01*
X81263571Y-68112857D01*
X81720714Y-68112857D02*
X81949285Y-68112857D01*
X82063571Y-68055714D01*
X82120714Y-67998571D01*
X82235000Y-67827142D01*
X82292142Y-67598571D01*
X82292142Y-67141428D01*
X82235000Y-67027142D01*
X82177857Y-66970000D01*
X82063571Y-66912857D01*
X81835000Y-66912857D01*
X81720714Y-66970000D01*
X81663571Y-67027142D01*
X81606428Y-67141428D01*
X81606428Y-67427142D01*
X81663571Y-67541428D01*
X81720714Y-67598571D01*
X81835000Y-67655714D01*
X82063571Y-67655714D01*
X82177857Y-67598571D01*
X82235000Y-67541428D01*
X82292142Y-67427142D01*
X79435000Y-70652857D02*
X79435000Y-69452857D01*
X79892142Y-69452857D01*
X80006428Y-69510000D01*
X80063571Y-69567142D01*
X80120714Y-69681428D01*
X80120714Y-69852857D01*
X80063571Y-69967142D01*
X80006428Y-70024285D01*
X79892142Y-70081428D01*
X79435000Y-70081428D01*
X80577857Y-70310000D02*
X81149285Y-70310000D01*
X80463571Y-70652857D02*
X80863571Y-69452857D01*
X81263571Y-70652857D01*
X81835000Y-69967142D02*
X81720714Y-69910000D01*
X81663571Y-69852857D01*
X81606428Y-69738571D01*
X81606428Y-69681428D01*
X81663571Y-69567142D01*
X81720714Y-69510000D01*
X81835000Y-69452857D01*
X82063571Y-69452857D01*
X82177857Y-69510000D01*
X82235000Y-69567142D01*
X82292142Y-69681428D01*
X82292142Y-69738571D01*
X82235000Y-69852857D01*
X82177857Y-69910000D01*
X82063571Y-69967142D01*
X81835000Y-69967142D01*
X81720714Y-70024285D01*
X81663571Y-70081428D01*
X81606428Y-70195714D01*
X81606428Y-70424285D01*
X81663571Y-70538571D01*
X81720714Y-70595714D01*
X81835000Y-70652857D01*
X82063571Y-70652857D01*
X82177857Y-70595714D01*
X82235000Y-70538571D01*
X82292142Y-70424285D01*
X82292142Y-70195714D01*
X82235000Y-70081428D01*
X82177857Y-70024285D01*
X82063571Y-69967142D01*
X79349285Y-73192857D02*
X79349285Y-71992857D01*
X79806428Y-71992857D01*
X79920714Y-72050000D01*
X79977857Y-72107142D01*
X80035000Y-72221428D01*
X80035000Y-72392857D01*
X79977857Y-72507142D01*
X79920714Y-72564285D01*
X79806428Y-72621428D01*
X79349285Y-72621428D01*
X81235000Y-73078571D02*
X81177857Y-73135714D01*
X81006428Y-73192857D01*
X80892142Y-73192857D01*
X80720714Y-73135714D01*
X80606428Y-73021428D01*
X80549285Y-72907142D01*
X80492142Y-72678571D01*
X80492142Y-72507142D01*
X80549285Y-72278571D01*
X80606428Y-72164285D01*
X80720714Y-72050000D01*
X80892142Y-71992857D01*
X81006428Y-71992857D01*
X81177857Y-72050000D01*
X81235000Y-72107142D01*
X81806428Y-73192857D02*
X82035000Y-73192857D01*
X82149285Y-73135714D01*
X82206428Y-73078571D01*
X82320714Y-72907142D01*
X82377857Y-72678571D01*
X82377857Y-72221428D01*
X82320714Y-72107142D01*
X82263571Y-72050000D01*
X82149285Y-71992857D01*
X81920714Y-71992857D01*
X81806428Y-72050000D01*
X81749285Y-72107142D01*
X81692142Y-72221428D01*
X81692142Y-72507142D01*
X81749285Y-72621428D01*
X81806428Y-72678571D01*
X81920714Y-72735714D01*
X82149285Y-72735714D01*
X82263571Y-72678571D01*
X82320714Y-72621428D01*
X82377857Y-72507142D01*
X79349285Y-75732857D02*
X79349285Y-74532857D01*
X79806428Y-74532857D01*
X79920714Y-74590000D01*
X79977857Y-74647142D01*
X80035000Y-74761428D01*
X80035000Y-74932857D01*
X79977857Y-75047142D01*
X79920714Y-75104285D01*
X79806428Y-75161428D01*
X79349285Y-75161428D01*
X81235000Y-75618571D02*
X81177857Y-75675714D01*
X81006428Y-75732857D01*
X80892142Y-75732857D01*
X80720714Y-75675714D01*
X80606428Y-75561428D01*
X80549285Y-75447142D01*
X80492142Y-75218571D01*
X80492142Y-75047142D01*
X80549285Y-74818571D01*
X80606428Y-74704285D01*
X80720714Y-74590000D01*
X80892142Y-74532857D01*
X81006428Y-74532857D01*
X81177857Y-74590000D01*
X81235000Y-74647142D01*
X81920714Y-75047142D02*
X81806428Y-74990000D01*
X81749285Y-74932857D01*
X81692142Y-74818571D01*
X81692142Y-74761428D01*
X81749285Y-74647142D01*
X81806428Y-74590000D01*
X81920714Y-74532857D01*
X82149285Y-74532857D01*
X82263571Y-74590000D01*
X82320714Y-74647142D01*
X82377857Y-74761428D01*
X82377857Y-74818571D01*
X82320714Y-74932857D01*
X82263571Y-74990000D01*
X82149285Y-75047142D01*
X81920714Y-75047142D01*
X81806428Y-75104285D01*
X81749285Y-75161428D01*
X81692142Y-75275714D01*
X81692142Y-75504285D01*
X81749285Y-75618571D01*
X81806428Y-75675714D01*
X81920714Y-75732857D01*
X82149285Y-75732857D01*
X82263571Y-75675714D01*
X82320714Y-75618571D01*
X82377857Y-75504285D01*
X82377857Y-75275714D01*
X82320714Y-75161428D01*
X82263571Y-75104285D01*
X82149285Y-75047142D01*
X79349285Y-78272857D02*
X79349285Y-77072857D01*
X79806428Y-77072857D01*
X79920714Y-77130000D01*
X79977857Y-77187142D01*
X80035000Y-77301428D01*
X80035000Y-77472857D01*
X79977857Y-77587142D01*
X79920714Y-77644285D01*
X79806428Y-77701428D01*
X79349285Y-77701428D01*
X81235000Y-78158571D02*
X81177857Y-78215714D01*
X81006428Y-78272857D01*
X80892142Y-78272857D01*
X80720714Y-78215714D01*
X80606428Y-78101428D01*
X80549285Y-77987142D01*
X80492142Y-77758571D01*
X80492142Y-77587142D01*
X80549285Y-77358571D01*
X80606428Y-77244285D01*
X80720714Y-77130000D01*
X80892142Y-77072857D01*
X81006428Y-77072857D01*
X81177857Y-77130000D01*
X81235000Y-77187142D01*
X81635000Y-77072857D02*
X82435000Y-77072857D01*
X81920714Y-78272857D01*
X79349285Y-80812857D02*
X79349285Y-79612857D01*
X79806428Y-79612857D01*
X79920714Y-79670000D01*
X79977857Y-79727142D01*
X80035000Y-79841428D01*
X80035000Y-80012857D01*
X79977857Y-80127142D01*
X79920714Y-80184285D01*
X79806428Y-80241428D01*
X79349285Y-80241428D01*
X81235000Y-80698571D02*
X81177857Y-80755714D01*
X81006428Y-80812857D01*
X80892142Y-80812857D01*
X80720714Y-80755714D01*
X80606428Y-80641428D01*
X80549285Y-80527142D01*
X80492142Y-80298571D01*
X80492142Y-80127142D01*
X80549285Y-79898571D01*
X80606428Y-79784285D01*
X80720714Y-79670000D01*
X80892142Y-79612857D01*
X81006428Y-79612857D01*
X81177857Y-79670000D01*
X81235000Y-79727142D01*
X82263571Y-79612857D02*
X82035000Y-79612857D01*
X81920714Y-79670000D01*
X81863571Y-79727142D01*
X81749285Y-79898571D01*
X81692142Y-80127142D01*
X81692142Y-80584285D01*
X81749285Y-80698571D01*
X81806428Y-80755714D01*
X81920714Y-80812857D01*
X82149285Y-80812857D01*
X82263571Y-80755714D01*
X82320714Y-80698571D01*
X82377857Y-80584285D01*
X82377857Y-80298571D01*
X82320714Y-80184285D01*
X82263571Y-80127142D01*
X82149285Y-80070000D01*
X81920714Y-80070000D01*
X81806428Y-80127142D01*
X81749285Y-80184285D01*
X81692142Y-80298571D01*
X78777857Y-90972857D02*
X78777857Y-89772857D01*
X79235000Y-89772857D01*
X79349285Y-89830000D01*
X79406428Y-89887142D01*
X79463571Y-90001428D01*
X79463571Y-90172857D01*
X79406428Y-90287142D01*
X79349285Y-90344285D01*
X79235000Y-90401428D01*
X78777857Y-90401428D01*
X80377857Y-90344285D02*
X80549285Y-90401428D01*
X80606428Y-90458571D01*
X80663571Y-90572857D01*
X80663571Y-90744285D01*
X80606428Y-90858571D01*
X80549285Y-90915714D01*
X80435000Y-90972857D01*
X79977857Y-90972857D01*
X79977857Y-89772857D01*
X80377857Y-89772857D01*
X80492142Y-89830000D01*
X80549285Y-89887142D01*
X80606428Y-90001428D01*
X80606428Y-90115714D01*
X80549285Y-90230000D01*
X80492142Y-90287142D01*
X80377857Y-90344285D01*
X79977857Y-90344285D01*
X81806428Y-90972857D02*
X81120714Y-90972857D01*
X81463571Y-90972857D02*
X81463571Y-89772857D01*
X81349285Y-89944285D01*
X81235000Y-90058571D01*
X81120714Y-90115714D01*
X82263571Y-89887142D02*
X82320714Y-89830000D01*
X82435000Y-89772857D01*
X82720714Y-89772857D01*
X82835000Y-89830000D01*
X82892142Y-89887142D01*
X82949285Y-90001428D01*
X82949285Y-90115714D01*
X82892142Y-90287142D01*
X82206428Y-90972857D01*
X82949285Y-90972857D01*
X78777857Y-88432857D02*
X78777857Y-87232857D01*
X79235000Y-87232857D01*
X79349285Y-87290000D01*
X79406428Y-87347142D01*
X79463571Y-87461428D01*
X79463571Y-87632857D01*
X79406428Y-87747142D01*
X79349285Y-87804285D01*
X79235000Y-87861428D01*
X78777857Y-87861428D01*
X80377857Y-87804285D02*
X80549285Y-87861428D01*
X80606428Y-87918571D01*
X80663571Y-88032857D01*
X80663571Y-88204285D01*
X80606428Y-88318571D01*
X80549285Y-88375714D01*
X80435000Y-88432857D01*
X79977857Y-88432857D01*
X79977857Y-87232857D01*
X80377857Y-87232857D01*
X80492142Y-87290000D01*
X80549285Y-87347142D01*
X80606428Y-87461428D01*
X80606428Y-87575714D01*
X80549285Y-87690000D01*
X80492142Y-87747142D01*
X80377857Y-87804285D01*
X79977857Y-87804285D01*
X81806428Y-88432857D02*
X81120714Y-88432857D01*
X81463571Y-88432857D02*
X81463571Y-87232857D01*
X81349285Y-87404285D01*
X81235000Y-87518571D01*
X81120714Y-87575714D01*
X82206428Y-87232857D02*
X82949285Y-87232857D01*
X82549285Y-87690000D01*
X82720714Y-87690000D01*
X82835000Y-87747142D01*
X82892142Y-87804285D01*
X82949285Y-87918571D01*
X82949285Y-88204285D01*
X82892142Y-88318571D01*
X82835000Y-88375714D01*
X82720714Y-88432857D01*
X82377857Y-88432857D01*
X82263571Y-88375714D01*
X82206428Y-88318571D01*
X78777857Y-85892857D02*
X78777857Y-84692857D01*
X79235000Y-84692857D01*
X79349285Y-84750000D01*
X79406428Y-84807142D01*
X79463571Y-84921428D01*
X79463571Y-85092857D01*
X79406428Y-85207142D01*
X79349285Y-85264285D01*
X79235000Y-85321428D01*
X78777857Y-85321428D01*
X80377857Y-85264285D02*
X80549285Y-85321428D01*
X80606428Y-85378571D01*
X80663571Y-85492857D01*
X80663571Y-85664285D01*
X80606428Y-85778571D01*
X80549285Y-85835714D01*
X80435000Y-85892857D01*
X79977857Y-85892857D01*
X79977857Y-84692857D01*
X80377857Y-84692857D01*
X80492142Y-84750000D01*
X80549285Y-84807142D01*
X80606428Y-84921428D01*
X80606428Y-85035714D01*
X80549285Y-85150000D01*
X80492142Y-85207142D01*
X80377857Y-85264285D01*
X79977857Y-85264285D01*
X81806428Y-85892857D02*
X81120714Y-85892857D01*
X81463571Y-85892857D02*
X81463571Y-84692857D01*
X81349285Y-84864285D01*
X81235000Y-84978571D01*
X81120714Y-85035714D01*
X82835000Y-85092857D02*
X82835000Y-85892857D01*
X82549285Y-84635714D02*
X82263571Y-85492857D01*
X83006428Y-85492857D01*
D10*
X77837800Y-89160000D02*
X84086200Y-89160000D01*
X77837800Y-86620000D02*
X84086200Y-86620000D01*
X77837800Y-84080000D02*
X84086200Y-84080000D01*
X77837800Y-81540000D02*
X84086200Y-81540000D01*
X77837800Y-79000000D02*
X84086200Y-79000000D01*
X77837800Y-76460000D02*
X84086200Y-76460000D01*
X77837800Y-73920000D02*
X84086200Y-73920000D01*
X77837800Y-71430800D02*
X84086200Y-71430800D01*
X77805000Y-68845000D02*
X84086200Y-68840000D01*
X77837800Y-66249200D02*
X84086200Y-66249200D01*
X84086200Y-66249200D02*
X84086200Y-91750800D01*
X84086200Y-91750800D02*
X77837800Y-91750800D01*
X77837800Y-91750800D02*
X77837800Y-66249200D01*
X118305828Y-52050000D02*
G75*
G03*
X118305828Y-52050000I-60828J0D01*
G01*
D13*
X78475000Y-29500000D02*
G75*
G03*
X71975000Y-36000000I0J-6500000D01*
G01*
D10*
X152175828Y-117960000D02*
G75*
G03*
X152175828Y-117960000I-60828J0D01*
G01*
D13*
X164475000Y-128500000D02*
G75*
G03*
X170975000Y-122000000I0J6500000D01*
G01*
X95395000Y-126000000D02*
X105645000Y-126000000D01*
X105645000Y-126000000D02*
X105645000Y-128500000D01*
X105645000Y-128500000D02*
X95395000Y-128500000D01*
X95395000Y-128500000D02*
X95395000Y-126000000D01*
X71975000Y-36000000D02*
X71975000Y-122000000D01*
X78475000Y-128500000D02*
X164475000Y-128500000D01*
X78475000Y-29500000D02*
X89725000Y-29500000D01*
X109895000Y-126000000D02*
X120145000Y-126000000D01*
X120145000Y-126000000D02*
X120145000Y-128500000D01*
X120145000Y-128500000D02*
X109895000Y-128500000D01*
X109895000Y-128500000D02*
X109895000Y-126000000D01*
D10*
X114665828Y-75250000D02*
G75*
G03*
X114665828Y-75250000I-60828J0D01*
G01*
X97785828Y-33070000D02*
G75*
G03*
X97785828Y-33070000I-60828J0D01*
G01*
D13*
X99225000Y-29500000D02*
X123225000Y-29500000D01*
D14*
X138925000Y-33350000D02*
X141675000Y-33350000D01*
X141675000Y-33350000D02*
X141675000Y-38600000D01*
X141675000Y-38600000D02*
X138925000Y-38600000D01*
X138925000Y-38600000D02*
X138925000Y-33350000D01*
D13*
X123225000Y-29500000D02*
X164475000Y-29500000D01*
X71975000Y-122000000D02*
G75*
G03*
X78475000Y-128500000I6500000J0D01*
G01*
X170975000Y-36000000D02*
G75*
G03*
X164475000Y-29500000I-6500000J0D01*
G01*
X170975000Y-36000000D02*
X170975000Y-71500000D01*
D10*
X151915828Y-93030000D02*
G75*
G03*
X151915828Y-93030000I-60828J0D01*
G01*
D13*
X170975000Y-81750000D02*
X170975000Y-122000000D01*
D11*
X130154523Y-80275714D02*
X130535476Y-80275714D01*
X130345000Y-80466190D02*
X130345000Y-80085238D01*
D10*
X118141666Y-75052380D02*
X118141666Y-75766666D01*
X118094047Y-75909523D01*
X117998809Y-76004761D01*
X117855952Y-76052380D01*
X117760714Y-76052380D01*
X119094047Y-76052380D02*
X118617857Y-76052380D01*
X118617857Y-75052380D01*
X119998809Y-75957142D02*
X119951190Y-76004761D01*
X119808333Y-76052380D01*
X119713095Y-76052380D01*
X119570238Y-76004761D01*
X119475000Y-75909523D01*
X119427380Y-75814285D01*
X119379761Y-75623809D01*
X119379761Y-75480952D01*
X119427380Y-75290476D01*
X119475000Y-75195238D01*
X119570238Y-75100000D01*
X119713095Y-75052380D01*
X119808333Y-75052380D01*
X119951190Y-75100000D01*
X119998809Y-75147619D01*
X120713095Y-75052380D02*
X120713095Y-75766666D01*
X120665476Y-75909523D01*
X120570238Y-76004761D01*
X120427380Y-76052380D01*
X120332142Y-76052380D01*
X121665476Y-76052380D02*
X121189285Y-76052380D01*
X121189285Y-75052380D01*
X122570238Y-75957142D02*
X122522619Y-76004761D01*
X122379761Y-76052380D01*
X122284523Y-76052380D01*
X122141666Y-76004761D01*
X122046428Y-75909523D01*
X121998809Y-75814285D01*
X121951190Y-75623809D01*
X121951190Y-75480952D01*
X121998809Y-75290476D01*
X122046428Y-75195238D01*
X122141666Y-75100000D01*
X122284523Y-75052380D01*
X122379761Y-75052380D01*
X122522619Y-75100000D01*
X122570238Y-75147619D01*
X123284523Y-75052380D02*
X123284523Y-75766666D01*
X123236904Y-75909523D01*
X123141666Y-76004761D01*
X122998809Y-76052380D01*
X122903571Y-76052380D01*
X124236904Y-76052380D02*
X123760714Y-76052380D01*
X123760714Y-75052380D01*
X125141666Y-75957142D02*
X125094047Y-76004761D01*
X124951190Y-76052380D01*
X124855952Y-76052380D01*
X124713095Y-76004761D01*
X124617857Y-75909523D01*
X124570238Y-75814285D01*
X124522619Y-75623809D01*
X124522619Y-75480952D01*
X124570238Y-75290476D01*
X124617857Y-75195238D01*
X124713095Y-75100000D01*
X124855952Y-75052380D01*
X124951190Y-75052380D01*
X125094047Y-75100000D01*
X125141666Y-75147619D01*
D11*
X157703523Y-110977714D02*
X158084476Y-110977714D01*
X157894000Y-111168190D02*
X157894000Y-110787238D01*
X157254523Y-102895714D02*
X157635476Y-102895714D01*
X157445000Y-103086190D02*
X157445000Y-102705238D01*
X141604523Y-118525714D02*
X141985476Y-118525714D01*
X141795000Y-118716190D02*
X141795000Y-118335238D01*
D12*
X113575952Y-127888095D02*
X113575952Y-126588095D01*
X114133095Y-126711904D02*
X114195000Y-126650000D01*
X114318809Y-126588095D01*
X114628333Y-126588095D01*
X114752142Y-126650000D01*
X114814047Y-126711904D01*
X114875952Y-126835714D01*
X114875952Y-126959523D01*
X114814047Y-127145238D01*
X114071190Y-127888095D01*
X114875952Y-127888095D01*
X116175952Y-127764285D02*
X116114047Y-127826190D01*
X115928333Y-127888095D01*
X115804523Y-127888095D01*
X115618809Y-127826190D01*
X115495000Y-127702380D01*
X115433095Y-127578571D01*
X115371190Y-127330952D01*
X115371190Y-127145238D01*
X115433095Y-126897619D01*
X115495000Y-126773809D01*
X115618809Y-126650000D01*
X115804523Y-126588095D01*
X115928333Y-126588095D01*
X116114047Y-126650000D01*
X116175952Y-126711904D01*
X141082142Y-38035714D02*
X141153571Y-37821428D01*
X141153571Y-37464285D01*
X141082142Y-37321428D01*
X141010714Y-37250000D01*
X140867857Y-37178571D01*
X140725000Y-37178571D01*
X140582142Y-37250000D01*
X140510714Y-37321428D01*
X140439285Y-37464285D01*
X140367857Y-37750000D01*
X140296428Y-37892857D01*
X140225000Y-37964285D01*
X140082142Y-38035714D01*
X139939285Y-38035714D01*
X139796428Y-37964285D01*
X139725000Y-37892857D01*
X139653571Y-37750000D01*
X139653571Y-37392857D01*
X139725000Y-37178571D01*
X139653571Y-36678571D02*
X141153571Y-36321428D01*
X140082142Y-36035714D01*
X141153571Y-35750000D01*
X139653571Y-35392857D01*
X141153571Y-34821428D02*
X139653571Y-34821428D01*
X139653571Y-34464285D01*
X139725000Y-34250000D01*
X139867857Y-34107142D01*
X140010714Y-34035714D01*
X140296428Y-33964285D01*
X140510714Y-33964285D01*
X140796428Y-34035714D01*
X140939285Y-34107142D01*
X141082142Y-34250000D01*
X141153571Y-34464285D01*
X141153571Y-34821428D01*
X97652142Y-126588095D02*
X97652142Y-127640476D01*
X97714047Y-127764285D01*
X97775952Y-127826190D01*
X97899761Y-127888095D01*
X98147380Y-127888095D01*
X98271190Y-127826190D01*
X98333095Y-127764285D01*
X98395000Y-127640476D01*
X98395000Y-126588095D01*
X98952142Y-127826190D02*
X99137857Y-127888095D01*
X99447380Y-127888095D01*
X99571190Y-127826190D01*
X99633095Y-127764285D01*
X99695000Y-127640476D01*
X99695000Y-127516666D01*
X99633095Y-127392857D01*
X99571190Y-127330952D01*
X99447380Y-127269047D01*
X99199761Y-127207142D01*
X99075952Y-127145238D01*
X99014047Y-127083333D01*
X98952142Y-126959523D01*
X98952142Y-126835714D01*
X99014047Y-126711904D01*
X99075952Y-126650000D01*
X99199761Y-126588095D01*
X99509285Y-126588095D01*
X99695000Y-126650000D01*
X100190238Y-127516666D02*
X100809285Y-127516666D01*
X100066428Y-127888095D02*
X100499761Y-126588095D01*
X100933095Y-127888095D01*
X102109285Y-127888095D02*
X101675952Y-127269047D01*
X101366428Y-127888095D02*
X101366428Y-126588095D01*
X101861666Y-126588095D01*
X101985476Y-126650000D01*
X102047380Y-126711904D01*
X102109285Y-126835714D01*
X102109285Y-127021428D01*
X102047380Y-127145238D01*
X101985476Y-127207142D01*
X101861666Y-127269047D01*
X101366428Y-127269047D01*
X102480714Y-126588095D02*
X103223571Y-126588095D01*
X102852142Y-127888095D02*
X102852142Y-126588095D01*
X78777857Y-83454457D02*
X78777857Y-82254457D01*
X79235000Y-82254457D01*
X79349285Y-82311600D01*
X79406428Y-82368742D01*
X79463571Y-82483028D01*
X79463571Y-82654457D01*
X79406428Y-82768742D01*
X79349285Y-82825885D01*
X79235000Y-82883028D01*
X78777857Y-82883028D01*
X80377857Y-82825885D02*
X80549285Y-82883028D01*
X80606428Y-82940171D01*
X80663571Y-83054457D01*
X80663571Y-83225885D01*
X80606428Y-83340171D01*
X80549285Y-83397314D01*
X80435000Y-83454457D01*
X79977857Y-83454457D01*
X79977857Y-82254457D01*
X80377857Y-82254457D01*
X80492142Y-82311600D01*
X80549285Y-82368742D01*
X80606428Y-82483028D01*
X80606428Y-82597314D01*
X80549285Y-82711600D01*
X80492142Y-82768742D01*
X80377857Y-82825885D01*
X79977857Y-82825885D01*
X81806428Y-83454457D02*
X81120714Y-83454457D01*
X81463571Y-83454457D02*
X81463571Y-82254457D01*
X81349285Y-82425885D01*
X81235000Y-82540171D01*
X81120714Y-82597314D01*
X82892142Y-82254457D02*
X82320714Y-82254457D01*
X82263571Y-82825885D01*
X82320714Y-82768742D01*
X82435000Y-82711600D01*
X82720714Y-82711600D01*
X82835000Y-82768742D01*
X82892142Y-82825885D01*
X82949285Y-82940171D01*
X82949285Y-83225885D01*
X82892142Y-83340171D01*
X82835000Y-83397314D01*
X82720714Y-83454457D01*
X82435000Y-83454457D01*
X82320714Y-83397314D01*
X82263571Y-83340171D01*
D11*
X141184523Y-95005714D02*
X141565476Y-95005714D01*
X141375000Y-95196190D02*
X141375000Y-94815238D01*
D10*
%TO.C,J8*%
X128634666Y-35272380D02*
X128634666Y-35986666D01*
X128587047Y-36129523D01*
X128491809Y-36224761D01*
X128348952Y-36272380D01*
X128253714Y-36272380D01*
X129253714Y-35700952D02*
X129158476Y-35653333D01*
X129110857Y-35605714D01*
X129063238Y-35510476D01*
X129063238Y-35462857D01*
X129110857Y-35367619D01*
X129158476Y-35320000D01*
X129253714Y-35272380D01*
X129444190Y-35272380D01*
X129539428Y-35320000D01*
X129587047Y-35367619D01*
X129634666Y-35462857D01*
X129634666Y-35510476D01*
X129587047Y-35605714D01*
X129539428Y-35653333D01*
X129444190Y-35700952D01*
X129253714Y-35700952D01*
X129158476Y-35748571D01*
X129110857Y-35796190D01*
X129063238Y-35891428D01*
X129063238Y-36081904D01*
X129110857Y-36177142D01*
X129158476Y-36224761D01*
X129253714Y-36272380D01*
X129444190Y-36272380D01*
X129539428Y-36224761D01*
X129587047Y-36177142D01*
X129634666Y-36081904D01*
X129634666Y-35891428D01*
X129587047Y-35796190D01*
X129539428Y-35748571D01*
X129444190Y-35700952D01*
%TO.C,J7*%
X114641666Y-35272380D02*
X114641666Y-35986666D01*
X114594047Y-36129523D01*
X114498809Y-36224761D01*
X114355952Y-36272380D01*
X114260714Y-36272380D01*
X115022619Y-35272380D02*
X115689285Y-35272380D01*
X115260714Y-36272380D01*
%TO.C,R12*%
X119744642Y-116702380D02*
X119411309Y-116226190D01*
X119173214Y-116702380D02*
X119173214Y-115702380D01*
X119554166Y-115702380D01*
X119649404Y-115750000D01*
X119697023Y-115797619D01*
X119744642Y-115892857D01*
X119744642Y-116035714D01*
X119697023Y-116130952D01*
X119649404Y-116178571D01*
X119554166Y-116226190D01*
X119173214Y-116226190D01*
X120697023Y-116702380D02*
X120125595Y-116702380D01*
X120411309Y-116702380D02*
X120411309Y-115702380D01*
X120316071Y-115845238D01*
X120220833Y-115940476D01*
X120125595Y-115988095D01*
X121077976Y-115797619D02*
X121125595Y-115750000D01*
X121220833Y-115702380D01*
X121458928Y-115702380D01*
X121554166Y-115750000D01*
X121601785Y-115797619D01*
X121649404Y-115892857D01*
X121649404Y-115988095D01*
X121601785Y-116130952D01*
X121030357Y-116702380D01*
X121649404Y-116702380D01*
%TO.C,D2*%
X158430904Y-109194380D02*
X158430904Y-108194380D01*
X158669000Y-108194380D01*
X158811857Y-108242000D01*
X158907095Y-108337238D01*
X158954714Y-108432476D01*
X159002333Y-108622952D01*
X159002333Y-108765809D01*
X158954714Y-108956285D01*
X158907095Y-109051523D01*
X158811857Y-109146761D01*
X158669000Y-109194380D01*
X158430904Y-109194380D01*
X159383285Y-108289619D02*
X159430904Y-108242000D01*
X159526142Y-108194380D01*
X159764238Y-108194380D01*
X159859476Y-108242000D01*
X159907095Y-108289619D01*
X159954714Y-108384857D01*
X159954714Y-108480095D01*
X159907095Y-108622952D01*
X159335666Y-109194380D01*
X159954714Y-109194380D01*
%TO.C,R8*%
X122377380Y-45166666D02*
X121901190Y-45500000D01*
X122377380Y-45738095D02*
X121377380Y-45738095D01*
X121377380Y-45357142D01*
X121425000Y-45261904D01*
X121472619Y-45214285D01*
X121567857Y-45166666D01*
X121710714Y-45166666D01*
X121805952Y-45214285D01*
X121853571Y-45261904D01*
X121901190Y-45357142D01*
X121901190Y-45738095D01*
X121805952Y-44595238D02*
X121758333Y-44690476D01*
X121710714Y-44738095D01*
X121615476Y-44785714D01*
X121567857Y-44785714D01*
X121472619Y-44738095D01*
X121425000Y-44690476D01*
X121377380Y-44595238D01*
X121377380Y-44404761D01*
X121425000Y-44309523D01*
X121472619Y-44261904D01*
X121567857Y-44214285D01*
X121615476Y-44214285D01*
X121710714Y-44261904D01*
X121758333Y-44309523D01*
X121805952Y-44404761D01*
X121805952Y-44595238D01*
X121853571Y-44690476D01*
X121901190Y-44738095D01*
X121996428Y-44785714D01*
X122186904Y-44785714D01*
X122282142Y-44738095D01*
X122329761Y-44690476D01*
X122377380Y-44595238D01*
X122377380Y-44404761D01*
X122329761Y-44309523D01*
X122282142Y-44261904D01*
X122186904Y-44214285D01*
X121996428Y-44214285D01*
X121901190Y-44261904D01*
X121853571Y-44309523D01*
X121805952Y-44404761D01*
%TO.C,Y1*%
X104501190Y-77726190D02*
X104977380Y-77726190D01*
X103977380Y-78059523D02*
X104501190Y-77726190D01*
X103977380Y-77392857D01*
X104977380Y-76535714D02*
X104977380Y-77107142D01*
X104977380Y-76821428D02*
X103977380Y-76821428D01*
X104120238Y-76916666D01*
X104215476Y-77011904D01*
X104263095Y-77107142D01*
%TO.C,C5*%
X114332142Y-70166666D02*
X114379761Y-70214285D01*
X114427380Y-70357142D01*
X114427380Y-70452380D01*
X114379761Y-70595238D01*
X114284523Y-70690476D01*
X114189285Y-70738095D01*
X113998809Y-70785714D01*
X113855952Y-70785714D01*
X113665476Y-70738095D01*
X113570238Y-70690476D01*
X113475000Y-70595238D01*
X113427380Y-70452380D01*
X113427380Y-70357142D01*
X113475000Y-70214285D01*
X113522619Y-70166666D01*
X113427380Y-69261904D02*
X113427380Y-69738095D01*
X113903571Y-69785714D01*
X113855952Y-69738095D01*
X113808333Y-69642857D01*
X113808333Y-69404761D01*
X113855952Y-69309523D01*
X113903571Y-69261904D01*
X113998809Y-69214285D01*
X114236904Y-69214285D01*
X114332142Y-69261904D01*
X114379761Y-69309523D01*
X114427380Y-69404761D01*
X114427380Y-69642857D01*
X114379761Y-69738095D01*
X114332142Y-69785714D01*
%TO.C,C13*%
X129832142Y-87857142D02*
X129784523Y-87904761D01*
X129641666Y-87952380D01*
X129546428Y-87952380D01*
X129403571Y-87904761D01*
X129308333Y-87809523D01*
X129260714Y-87714285D01*
X129213095Y-87523809D01*
X129213095Y-87380952D01*
X129260714Y-87190476D01*
X129308333Y-87095238D01*
X129403571Y-87000000D01*
X129546428Y-86952380D01*
X129641666Y-86952380D01*
X129784523Y-87000000D01*
X129832142Y-87047619D01*
X130784523Y-87952380D02*
X130213095Y-87952380D01*
X130498809Y-87952380D02*
X130498809Y-86952380D01*
X130403571Y-87095238D01*
X130308333Y-87190476D01*
X130213095Y-87238095D01*
X131117857Y-86952380D02*
X131736904Y-86952380D01*
X131403571Y-87333333D01*
X131546428Y-87333333D01*
X131641666Y-87380952D01*
X131689285Y-87428571D01*
X131736904Y-87523809D01*
X131736904Y-87761904D01*
X131689285Y-87857142D01*
X131641666Y-87904761D01*
X131546428Y-87952380D01*
X131260714Y-87952380D01*
X131165476Y-87904761D01*
X131117857Y-87857142D01*
%TO.C,L1*%
X135833333Y-125052380D02*
X135357142Y-125052380D01*
X135357142Y-124052380D01*
X136690476Y-125052380D02*
X136119047Y-125052380D01*
X136404761Y-125052380D02*
X136404761Y-124052380D01*
X136309523Y-124195238D01*
X136214285Y-124290476D01*
X136119047Y-124338095D01*
%TO.C,R9*%
X119377380Y-45166666D02*
X118901190Y-45500000D01*
X119377380Y-45738095D02*
X118377380Y-45738095D01*
X118377380Y-45357142D01*
X118425000Y-45261904D01*
X118472619Y-45214285D01*
X118567857Y-45166666D01*
X118710714Y-45166666D01*
X118805952Y-45214285D01*
X118853571Y-45261904D01*
X118901190Y-45357142D01*
X118901190Y-45738095D01*
X119377380Y-44690476D02*
X119377380Y-44500000D01*
X119329761Y-44404761D01*
X119282142Y-44357142D01*
X119139285Y-44261904D01*
X118948809Y-44214285D01*
X118567857Y-44214285D01*
X118472619Y-44261904D01*
X118425000Y-44309523D01*
X118377380Y-44404761D01*
X118377380Y-44595238D01*
X118425000Y-44690476D01*
X118472619Y-44738095D01*
X118567857Y-44785714D01*
X118805952Y-44785714D01*
X118901190Y-44738095D01*
X118948809Y-44690476D01*
X118996428Y-44595238D01*
X118996428Y-44404761D01*
X118948809Y-44309523D01*
X118901190Y-44261904D01*
X118805952Y-44214285D01*
%TO.C,U1*%
X149238095Y-118852380D02*
X149238095Y-119661904D01*
X149285714Y-119757142D01*
X149333333Y-119804761D01*
X149428571Y-119852380D01*
X149619047Y-119852380D01*
X149714285Y-119804761D01*
X149761904Y-119757142D01*
X149809523Y-119661904D01*
X149809523Y-118852380D01*
X150809523Y-119852380D02*
X150238095Y-119852380D01*
X150523809Y-119852380D02*
X150523809Y-118852380D01*
X150428571Y-118995238D01*
X150333333Y-119090476D01*
X150238095Y-119138095D01*
%TO.C,C14*%
X130332142Y-70642857D02*
X130379761Y-70690476D01*
X130427380Y-70833333D01*
X130427380Y-70928571D01*
X130379761Y-71071428D01*
X130284523Y-71166666D01*
X130189285Y-71214285D01*
X129998809Y-71261904D01*
X129855952Y-71261904D01*
X129665476Y-71214285D01*
X129570238Y-71166666D01*
X129475000Y-71071428D01*
X129427380Y-70928571D01*
X129427380Y-70833333D01*
X129475000Y-70690476D01*
X129522619Y-70642857D01*
X130427380Y-69690476D02*
X130427380Y-70261904D01*
X130427380Y-69976190D02*
X129427380Y-69976190D01*
X129570238Y-70071428D01*
X129665476Y-70166666D01*
X129713095Y-70261904D01*
X129760714Y-68833333D02*
X130427380Y-68833333D01*
X129379761Y-69071428D02*
X130094047Y-69309523D01*
X130094047Y-68690476D01*
%TO.C,R11*%
X108919642Y-116702380D02*
X108586309Y-116226190D01*
X108348214Y-116702380D02*
X108348214Y-115702380D01*
X108729166Y-115702380D01*
X108824404Y-115750000D01*
X108872023Y-115797619D01*
X108919642Y-115892857D01*
X108919642Y-116035714D01*
X108872023Y-116130952D01*
X108824404Y-116178571D01*
X108729166Y-116226190D01*
X108348214Y-116226190D01*
X109872023Y-116702380D02*
X109300595Y-116702380D01*
X109586309Y-116702380D02*
X109586309Y-115702380D01*
X109491071Y-115845238D01*
X109395833Y-115940476D01*
X109300595Y-115988095D01*
X110824404Y-116702380D02*
X110252976Y-116702380D01*
X110538690Y-116702380D02*
X110538690Y-115702380D01*
X110443452Y-115845238D01*
X110348214Y-115940476D01*
X110252976Y-115988095D01*
%TO.C,C7*%
X129808333Y-86057142D02*
X129760714Y-86104761D01*
X129617857Y-86152380D01*
X129522619Y-86152380D01*
X129379761Y-86104761D01*
X129284523Y-86009523D01*
X129236904Y-85914285D01*
X129189285Y-85723809D01*
X129189285Y-85580952D01*
X129236904Y-85390476D01*
X129284523Y-85295238D01*
X129379761Y-85200000D01*
X129522619Y-85152380D01*
X129617857Y-85152380D01*
X129760714Y-85200000D01*
X129808333Y-85247619D01*
X130141666Y-85152380D02*
X130808333Y-85152380D01*
X130379761Y-86152380D01*
%TO.C,R6*%
X152558333Y-109903630D02*
X152225000Y-109427440D01*
X151986904Y-109903630D02*
X151986904Y-108903630D01*
X152367857Y-108903630D01*
X152463095Y-108951250D01*
X152510714Y-108998869D01*
X152558333Y-109094107D01*
X152558333Y-109236964D01*
X152510714Y-109332202D01*
X152463095Y-109379821D01*
X152367857Y-109427440D01*
X151986904Y-109427440D01*
X153415476Y-108903630D02*
X153225000Y-108903630D01*
X153129761Y-108951250D01*
X153082142Y-108998869D01*
X152986904Y-109141726D01*
X152939285Y-109332202D01*
X152939285Y-109713154D01*
X152986904Y-109808392D01*
X153034523Y-109856011D01*
X153129761Y-109903630D01*
X153320238Y-109903630D01*
X153415476Y-109856011D01*
X153463095Y-109808392D01*
X153510714Y-109713154D01*
X153510714Y-109475059D01*
X153463095Y-109379821D01*
X153415476Y-109332202D01*
X153320238Y-109284583D01*
X153129761Y-109284583D01*
X153034523Y-109332202D01*
X152986904Y-109379821D01*
X152939285Y-109475059D01*
%TO.C,J1*%
X157066666Y-94152380D02*
X157066666Y-94866666D01*
X157019047Y-95009523D01*
X156923809Y-95104761D01*
X156780952Y-95152380D01*
X156685714Y-95152380D01*
X158066666Y-95152380D02*
X157495238Y-95152380D01*
X157780952Y-95152380D02*
X157780952Y-94152380D01*
X157685714Y-94295238D01*
X157590476Y-94390476D01*
X157495238Y-94438095D01*
%TO.C,R10*%
X95827380Y-37642857D02*
X95351190Y-37976190D01*
X95827380Y-38214285D02*
X94827380Y-38214285D01*
X94827380Y-37833333D01*
X94875000Y-37738095D01*
X94922619Y-37690476D01*
X95017857Y-37642857D01*
X95160714Y-37642857D01*
X95255952Y-37690476D01*
X95303571Y-37738095D01*
X95351190Y-37833333D01*
X95351190Y-38214285D01*
X95827380Y-36690476D02*
X95827380Y-37261904D01*
X95827380Y-36976190D02*
X94827380Y-36976190D01*
X94970238Y-37071428D01*
X95065476Y-37166666D01*
X95113095Y-37261904D01*
X94827380Y-36071428D02*
X94827380Y-35976190D01*
X94875000Y-35880952D01*
X94922619Y-35833333D01*
X95017857Y-35785714D01*
X95208333Y-35738095D01*
X95446428Y-35738095D01*
X95636904Y-35785714D01*
X95732142Y-35833333D01*
X95779761Y-35880952D01*
X95827380Y-35976190D01*
X95827380Y-36071428D01*
X95779761Y-36166666D01*
X95732142Y-36214285D01*
X95636904Y-36261904D01*
X95446428Y-36309523D01*
X95208333Y-36309523D01*
X95017857Y-36261904D01*
X94922619Y-36214285D01*
X94875000Y-36166666D01*
X94827380Y-36071428D01*
%TO.C,U4*%
X153713095Y-78852380D02*
X153713095Y-79661904D01*
X153760714Y-79757142D01*
X153808333Y-79804761D01*
X153903571Y-79852380D01*
X154094047Y-79852380D01*
X154189285Y-79804761D01*
X154236904Y-79757142D01*
X154284523Y-79661904D01*
X154284523Y-78852380D01*
X155189285Y-79185714D02*
X155189285Y-79852380D01*
X154951190Y-78804761D02*
X154713095Y-79519047D01*
X155332142Y-79519047D01*
%TO.C,L2*%
X110684817Y-85430741D02*
X110684817Y-85906932D01*
X109684817Y-85906932D01*
X109780056Y-85145027D02*
X109732437Y-85097408D01*
X109684817Y-85002170D01*
X109684817Y-84764075D01*
X109732437Y-84668836D01*
X109780056Y-84621217D01*
X109875294Y-84573598D01*
X109970532Y-84573598D01*
X110113389Y-84621217D01*
X110684817Y-85192646D01*
X110684817Y-84573598D01*
%TO.C,C16*%
X106882142Y-72617142D02*
X106834523Y-72664761D01*
X106691666Y-72712380D01*
X106596428Y-72712380D01*
X106453571Y-72664761D01*
X106358333Y-72569523D01*
X106310714Y-72474285D01*
X106263095Y-72283809D01*
X106263095Y-72140952D01*
X106310714Y-71950476D01*
X106358333Y-71855238D01*
X106453571Y-71760000D01*
X106596428Y-71712380D01*
X106691666Y-71712380D01*
X106834523Y-71760000D01*
X106882142Y-71807619D01*
X107834523Y-72712380D02*
X107263095Y-72712380D01*
X107548809Y-72712380D02*
X107548809Y-71712380D01*
X107453571Y-71855238D01*
X107358333Y-71950476D01*
X107263095Y-71998095D01*
X108691666Y-71712380D02*
X108501190Y-71712380D01*
X108405952Y-71760000D01*
X108358333Y-71807619D01*
X108263095Y-71950476D01*
X108215476Y-72140952D01*
X108215476Y-72521904D01*
X108263095Y-72617142D01*
X108310714Y-72664761D01*
X108405952Y-72712380D01*
X108596428Y-72712380D01*
X108691666Y-72664761D01*
X108739285Y-72617142D01*
X108786904Y-72521904D01*
X108786904Y-72283809D01*
X108739285Y-72188571D01*
X108691666Y-72140952D01*
X108596428Y-72093333D01*
X108405952Y-72093333D01*
X108310714Y-72140952D01*
X108263095Y-72188571D01*
X108215476Y-72283809D01*
%TO.C,C6*%
X115833333Y-87357142D02*
X115785714Y-87404761D01*
X115642857Y-87452380D01*
X115547619Y-87452380D01*
X115404761Y-87404761D01*
X115309523Y-87309523D01*
X115261904Y-87214285D01*
X115214285Y-87023809D01*
X115214285Y-86880952D01*
X115261904Y-86690476D01*
X115309523Y-86595238D01*
X115404761Y-86500000D01*
X115547619Y-86452380D01*
X115642857Y-86452380D01*
X115785714Y-86500000D01*
X115833333Y-86547619D01*
X116690476Y-86452380D02*
X116500000Y-86452380D01*
X116404761Y-86500000D01*
X116357142Y-86547619D01*
X116261904Y-86690476D01*
X116214285Y-86880952D01*
X116214285Y-87261904D01*
X116261904Y-87357142D01*
X116309523Y-87404761D01*
X116404761Y-87452380D01*
X116595238Y-87452380D01*
X116690476Y-87404761D01*
X116738095Y-87357142D01*
X116785714Y-87261904D01*
X116785714Y-87023809D01*
X116738095Y-86928571D01*
X116690476Y-86880952D01*
X116595238Y-86833333D01*
X116404761Y-86833333D01*
X116309523Y-86880952D01*
X116261904Y-86928571D01*
X116214285Y-87023809D01*
%TO.C,J2*%
X155546666Y-35447380D02*
X155546666Y-36161666D01*
X155499047Y-36304523D01*
X155403809Y-36399761D01*
X155260952Y-36447380D01*
X155165714Y-36447380D01*
X155975238Y-35542619D02*
X156022857Y-35495000D01*
X156118095Y-35447380D01*
X156356190Y-35447380D01*
X156451428Y-35495000D01*
X156499047Y-35542619D01*
X156546666Y-35637857D01*
X156546666Y-35733095D01*
X156499047Y-35875952D01*
X155927619Y-36447380D01*
X156546666Y-36447380D01*
%TO.C,D4*%
X131086904Y-81527380D02*
X131086904Y-80527380D01*
X131325000Y-80527380D01*
X131467857Y-80575000D01*
X131563095Y-80670238D01*
X131610714Y-80765476D01*
X131658333Y-80955952D01*
X131658333Y-81098809D01*
X131610714Y-81289285D01*
X131563095Y-81384523D01*
X131467857Y-81479761D01*
X131325000Y-81527380D01*
X131086904Y-81527380D01*
X132515476Y-80860714D02*
X132515476Y-81527380D01*
X132277380Y-80479761D02*
X132039285Y-81194047D01*
X132658333Y-81194047D01*
%TO.C,R2*%
X152558333Y-112982380D02*
X152225000Y-112506190D01*
X151986904Y-112982380D02*
X151986904Y-111982380D01*
X152367857Y-111982380D01*
X152463095Y-112030000D01*
X152510714Y-112077619D01*
X152558333Y-112172857D01*
X152558333Y-112315714D01*
X152510714Y-112410952D01*
X152463095Y-112458571D01*
X152367857Y-112506190D01*
X151986904Y-112506190D01*
X152939285Y-112077619D02*
X152986904Y-112030000D01*
X153082142Y-111982380D01*
X153320238Y-111982380D01*
X153415476Y-112030000D01*
X153463095Y-112077619D01*
X153510714Y-112172857D01*
X153510714Y-112268095D01*
X153463095Y-112410952D01*
X152891666Y-112982380D01*
X153510714Y-112982380D01*
%TO.C,R4*%
X161752333Y-113694380D02*
X161419000Y-113218190D01*
X161180904Y-113694380D02*
X161180904Y-112694380D01*
X161561857Y-112694380D01*
X161657095Y-112742000D01*
X161704714Y-112789619D01*
X161752333Y-112884857D01*
X161752333Y-113027714D01*
X161704714Y-113122952D01*
X161657095Y-113170571D01*
X161561857Y-113218190D01*
X161180904Y-113218190D01*
X162609476Y-113027714D02*
X162609476Y-113694380D01*
X162371380Y-112646761D02*
X162133285Y-113361047D01*
X162752333Y-113361047D01*
%TO.C,J4*%
X120811666Y-123452380D02*
X120811666Y-124166666D01*
X120764047Y-124309523D01*
X120668809Y-124404761D01*
X120525952Y-124452380D01*
X120430714Y-124452380D01*
X121716428Y-123785714D02*
X121716428Y-124452380D01*
X121478333Y-123404761D02*
X121240238Y-124119047D01*
X121859285Y-124119047D01*
%TO.C,D1*%
X142736904Y-96452380D02*
X142736904Y-95452380D01*
X142975000Y-95452380D01*
X143117857Y-95500000D01*
X143213095Y-95595238D01*
X143260714Y-95690476D01*
X143308333Y-95880952D01*
X143308333Y-96023809D01*
X143260714Y-96214285D01*
X143213095Y-96309523D01*
X143117857Y-96404761D01*
X142975000Y-96452380D01*
X142736904Y-96452380D01*
X144260714Y-96452380D02*
X143689285Y-96452380D01*
X143975000Y-96452380D02*
X143975000Y-95452380D01*
X143879761Y-95595238D01*
X143784523Y-95690476D01*
X143689285Y-95738095D01*
%TO.C,SW1*%
X99141666Y-31604761D02*
X99284523Y-31652380D01*
X99522619Y-31652380D01*
X99617857Y-31604761D01*
X99665476Y-31557142D01*
X99713095Y-31461904D01*
X99713095Y-31366666D01*
X99665476Y-31271428D01*
X99617857Y-31223809D01*
X99522619Y-31176190D01*
X99332142Y-31128571D01*
X99236904Y-31080952D01*
X99189285Y-31033333D01*
X99141666Y-30938095D01*
X99141666Y-30842857D01*
X99189285Y-30747619D01*
X99236904Y-30700000D01*
X99332142Y-30652380D01*
X99570238Y-30652380D01*
X99713095Y-30700000D01*
X100046428Y-30652380D02*
X100284523Y-31652380D01*
X100475000Y-30938095D01*
X100665476Y-31652380D01*
X100903571Y-30652380D01*
X101808333Y-31652380D02*
X101236904Y-31652380D01*
X101522619Y-31652380D02*
X101522619Y-30652380D01*
X101427380Y-30795238D01*
X101332142Y-30890476D01*
X101236904Y-30938095D01*
%TO.C,D3*%
X145452380Y-121738095D02*
X144452380Y-121738095D01*
X144452380Y-121500000D01*
X144500000Y-121357142D01*
X144595238Y-121261904D01*
X144690476Y-121214285D01*
X144880952Y-121166666D01*
X145023809Y-121166666D01*
X145214285Y-121214285D01*
X145309523Y-121261904D01*
X145404761Y-121357142D01*
X145452380Y-121500000D01*
X145452380Y-121738095D01*
X144452380Y-120833333D02*
X144452380Y-120214285D01*
X144833333Y-120547619D01*
X144833333Y-120404761D01*
X144880952Y-120309523D01*
X144928571Y-120261904D01*
X145023809Y-120214285D01*
X145261904Y-120214285D01*
X145357142Y-120261904D01*
X145404761Y-120309523D01*
X145452380Y-120404761D01*
X145452380Y-120690476D01*
X145404761Y-120785714D01*
X145357142Y-120833333D01*
%TO.C,C17*%
X106882142Y-82597142D02*
X106834523Y-82644761D01*
X106691666Y-82692380D01*
X106596428Y-82692380D01*
X106453571Y-82644761D01*
X106358333Y-82549523D01*
X106310714Y-82454285D01*
X106263095Y-82263809D01*
X106263095Y-82120952D01*
X106310714Y-81930476D01*
X106358333Y-81835238D01*
X106453571Y-81740000D01*
X106596428Y-81692380D01*
X106691666Y-81692380D01*
X106834523Y-81740000D01*
X106882142Y-81787619D01*
X107834523Y-82692380D02*
X107263095Y-82692380D01*
X107548809Y-82692380D02*
X107548809Y-81692380D01*
X107453571Y-81835238D01*
X107358333Y-81930476D01*
X107263095Y-81978095D01*
X108167857Y-81692380D02*
X108834523Y-81692380D01*
X108405952Y-82692380D01*
%TO.C,U3*%
X119713095Y-55452380D02*
X119713095Y-56261904D01*
X119760714Y-56357142D01*
X119808333Y-56404761D01*
X119903571Y-56452380D01*
X120094047Y-56452380D01*
X120189285Y-56404761D01*
X120236904Y-56357142D01*
X120284523Y-56261904D01*
X120284523Y-55452380D01*
X120665476Y-55452380D02*
X121284523Y-55452380D01*
X120951190Y-55833333D01*
X121094047Y-55833333D01*
X121189285Y-55880952D01*
X121236904Y-55928571D01*
X121284523Y-56023809D01*
X121284523Y-56261904D01*
X121236904Y-56357142D01*
X121189285Y-56404761D01*
X121094047Y-56452380D01*
X120808333Y-56452380D01*
X120713095Y-56404761D01*
X120665476Y-56357142D01*
%TO.C,C8*%
X128532142Y-70666666D02*
X128579761Y-70714285D01*
X128627380Y-70857142D01*
X128627380Y-70952380D01*
X128579761Y-71095238D01*
X128484523Y-71190476D01*
X128389285Y-71238095D01*
X128198809Y-71285714D01*
X128055952Y-71285714D01*
X127865476Y-71238095D01*
X127770238Y-71190476D01*
X127675000Y-71095238D01*
X127627380Y-70952380D01*
X127627380Y-70857142D01*
X127675000Y-70714285D01*
X127722619Y-70666666D01*
X128055952Y-70095238D02*
X128008333Y-70190476D01*
X127960714Y-70238095D01*
X127865476Y-70285714D01*
X127817857Y-70285714D01*
X127722619Y-70238095D01*
X127675000Y-70190476D01*
X127627380Y-70095238D01*
X127627380Y-69904761D01*
X127675000Y-69809523D01*
X127722619Y-69761904D01*
X127817857Y-69714285D01*
X127865476Y-69714285D01*
X127960714Y-69761904D01*
X128008333Y-69809523D01*
X128055952Y-69904761D01*
X128055952Y-70095238D01*
X128103571Y-70190476D01*
X128151190Y-70238095D01*
X128246428Y-70285714D01*
X128436904Y-70285714D01*
X128532142Y-70238095D01*
X128579761Y-70190476D01*
X128627380Y-70095238D01*
X128627380Y-69904761D01*
X128579761Y-69809523D01*
X128532142Y-69761904D01*
X128436904Y-69714285D01*
X128246428Y-69714285D01*
X128151190Y-69761904D01*
X128103571Y-69809523D01*
X128055952Y-69904761D01*
%TO.C,Q1*%
X152629761Y-94547619D02*
X152534523Y-94500000D01*
X152439285Y-94404761D01*
X152296428Y-94261904D01*
X152201190Y-94214285D01*
X152105952Y-94214285D01*
X152153571Y-94452380D02*
X152058333Y-94404761D01*
X151963095Y-94309523D01*
X151915476Y-94119047D01*
X151915476Y-93785714D01*
X151963095Y-93595238D01*
X152058333Y-93500000D01*
X152153571Y-93452380D01*
X152344047Y-93452380D01*
X152439285Y-93500000D01*
X152534523Y-93595238D01*
X152582142Y-93785714D01*
X152582142Y-94119047D01*
X152534523Y-94309523D01*
X152439285Y-94404761D01*
X152344047Y-94452380D01*
X152153571Y-94452380D01*
X153534523Y-94452380D02*
X152963095Y-94452380D01*
X153248809Y-94452380D02*
X153248809Y-93452380D01*
X153153571Y-93595238D01*
X153058333Y-93690476D01*
X152963095Y-93738095D01*
%TO.C,U2*%
X120713095Y-71052380D02*
X120713095Y-71861904D01*
X120760714Y-71957142D01*
X120808333Y-72004761D01*
X120903571Y-72052380D01*
X121094047Y-72052380D01*
X121189285Y-72004761D01*
X121236904Y-71957142D01*
X121284523Y-71861904D01*
X121284523Y-71052380D01*
X121713095Y-71147619D02*
X121760714Y-71100000D01*
X121855952Y-71052380D01*
X122094047Y-71052380D01*
X122189285Y-71100000D01*
X122236904Y-71147619D01*
X122284523Y-71242857D01*
X122284523Y-71338095D01*
X122236904Y-71480952D01*
X121665476Y-72052380D01*
X122284523Y-72052380D01*
%TO.C,R5*%
X152742186Y-100667380D02*
X152408853Y-100191190D01*
X152170757Y-100667380D02*
X152170757Y-99667380D01*
X152551710Y-99667380D01*
X152646948Y-99715000D01*
X152694567Y-99762619D01*
X152742186Y-99857857D01*
X152742186Y-100000714D01*
X152694567Y-100095952D01*
X152646948Y-100143571D01*
X152551710Y-100191190D01*
X152170757Y-100191190D01*
X153646948Y-99667380D02*
X153170757Y-99667380D01*
X153123138Y-100143571D01*
X153170757Y-100095952D01*
X153265995Y-100048333D01*
X153504091Y-100048333D01*
X153599329Y-100095952D01*
X153646948Y-100143571D01*
X153694567Y-100238809D01*
X153694567Y-100476904D01*
X153646948Y-100572142D01*
X153599329Y-100619761D01*
X153504091Y-100667380D01*
X153265995Y-100667380D01*
X153170757Y-100619761D01*
X153123138Y-100572142D01*
%TO.C,R1*%
X152742186Y-106824880D02*
X152408853Y-106348690D01*
X152170757Y-106824880D02*
X152170757Y-105824880D01*
X152551710Y-105824880D01*
X152646948Y-105872500D01*
X152694567Y-105920119D01*
X152742186Y-106015357D01*
X152742186Y-106158214D01*
X152694567Y-106253452D01*
X152646948Y-106301071D01*
X152551710Y-106348690D01*
X152170757Y-106348690D01*
X153694567Y-106824880D02*
X153123138Y-106824880D01*
X153408853Y-106824880D02*
X153408853Y-105824880D01*
X153313614Y-105967738D01*
X153218376Y-106062976D01*
X153123138Y-106110595D01*
%TO.C,C2*%
X140058333Y-109857142D02*
X140010714Y-109904761D01*
X139867857Y-109952380D01*
X139772619Y-109952380D01*
X139629761Y-109904761D01*
X139534523Y-109809523D01*
X139486904Y-109714285D01*
X139439285Y-109523809D01*
X139439285Y-109380952D01*
X139486904Y-109190476D01*
X139534523Y-109095238D01*
X139629761Y-109000000D01*
X139772619Y-108952380D01*
X139867857Y-108952380D01*
X140010714Y-109000000D01*
X140058333Y-109047619D01*
X140439285Y-109047619D02*
X140486904Y-109000000D01*
X140582142Y-108952380D01*
X140820238Y-108952380D01*
X140915476Y-109000000D01*
X140963095Y-109047619D01*
X141010714Y-109142857D01*
X141010714Y-109238095D01*
X140963095Y-109380952D01*
X140391666Y-109952380D01*
X141010714Y-109952380D01*
%TO.C,C15*%
X163632142Y-83492857D02*
X163679761Y-83540476D01*
X163727380Y-83683333D01*
X163727380Y-83778571D01*
X163679761Y-83921428D01*
X163584523Y-84016666D01*
X163489285Y-84064285D01*
X163298809Y-84111904D01*
X163155952Y-84111904D01*
X162965476Y-84064285D01*
X162870238Y-84016666D01*
X162775000Y-83921428D01*
X162727380Y-83778571D01*
X162727380Y-83683333D01*
X162775000Y-83540476D01*
X162822619Y-83492857D01*
X163727380Y-82540476D02*
X163727380Y-83111904D01*
X163727380Y-82826190D02*
X162727380Y-82826190D01*
X162870238Y-82921428D01*
X162965476Y-83016666D01*
X163013095Y-83111904D01*
X162727380Y-81635714D02*
X162727380Y-82111904D01*
X163203571Y-82159523D01*
X163155952Y-82111904D01*
X163108333Y-82016666D01*
X163108333Y-81778571D01*
X163155952Y-81683333D01*
X163203571Y-81635714D01*
X163298809Y-81588095D01*
X163536904Y-81588095D01*
X163632142Y-81635714D01*
X163679761Y-81683333D01*
X163727380Y-81778571D01*
X163727380Y-82016666D01*
X163679761Y-82111904D01*
X163632142Y-82159523D01*
%TO.C,R13*%
X110682142Y-80552380D02*
X110348809Y-80076190D01*
X110110714Y-80552380D02*
X110110714Y-79552380D01*
X110491666Y-79552380D01*
X110586904Y-79600000D01*
X110634523Y-79647619D01*
X110682142Y-79742857D01*
X110682142Y-79885714D01*
X110634523Y-79980952D01*
X110586904Y-80028571D01*
X110491666Y-80076190D01*
X110110714Y-80076190D01*
X111634523Y-80552380D02*
X111063095Y-80552380D01*
X111348809Y-80552380D02*
X111348809Y-79552380D01*
X111253571Y-79695238D01*
X111158333Y-79790476D01*
X111063095Y-79838095D01*
X111967857Y-79552380D02*
X112586904Y-79552380D01*
X112253571Y-79933333D01*
X112396428Y-79933333D01*
X112491666Y-79980952D01*
X112539285Y-80028571D01*
X112586904Y-80123809D01*
X112586904Y-80361904D01*
X112539285Y-80457142D01*
X112491666Y-80504761D01*
X112396428Y-80552380D01*
X112110714Y-80552380D01*
X112015476Y-80504761D01*
X111967857Y-80457142D01*
%TO.C,C12*%
X114131148Y-87186346D02*
X114178767Y-87233965D01*
X114226386Y-87376822D01*
X114226386Y-87472060D01*
X114178767Y-87614917D01*
X114083529Y-87710155D01*
X113988291Y-87757774D01*
X113797815Y-87805393D01*
X113654958Y-87805393D01*
X113464482Y-87757774D01*
X113369244Y-87710155D01*
X113274006Y-87614917D01*
X113226386Y-87472060D01*
X113226386Y-87376822D01*
X113274006Y-87233965D01*
X113321625Y-87186346D01*
X114226386Y-86233965D02*
X114226386Y-86805393D01*
X114226386Y-86519679D02*
X113226386Y-86519679D01*
X113369244Y-86614917D01*
X113464482Y-86710155D01*
X113512101Y-86805393D01*
X113321625Y-85853012D02*
X113274006Y-85805393D01*
X113226386Y-85710155D01*
X113226386Y-85472060D01*
X113274006Y-85376822D01*
X113321625Y-85329203D01*
X113416863Y-85281584D01*
X113512101Y-85281584D01*
X113654958Y-85329203D01*
X114226386Y-85900631D01*
X114226386Y-85281584D01*
%TO.C,C11*%
X112202754Y-87130719D02*
X112250373Y-87178338D01*
X112297992Y-87321195D01*
X112297992Y-87416433D01*
X112250373Y-87559290D01*
X112155135Y-87654528D01*
X112059897Y-87702147D01*
X111869421Y-87749766D01*
X111726564Y-87749766D01*
X111536088Y-87702147D01*
X111440850Y-87654528D01*
X111345612Y-87559290D01*
X111297992Y-87416433D01*
X111297992Y-87321195D01*
X111345612Y-87178338D01*
X111393231Y-87130719D01*
X112297992Y-86178338D02*
X112297992Y-86749766D01*
X112297992Y-86464052D02*
X111297992Y-86464052D01*
X111440850Y-86559290D01*
X111536088Y-86654528D01*
X111583707Y-86749766D01*
X112297992Y-85225957D02*
X112297992Y-85797385D01*
X112297992Y-85511671D02*
X111297992Y-85511671D01*
X111440850Y-85606909D01*
X111536088Y-85702147D01*
X111583707Y-85797385D01*
%TO.C,C3*%
X140058333Y-106857142D02*
X140010714Y-106904761D01*
X139867857Y-106952380D01*
X139772619Y-106952380D01*
X139629761Y-106904761D01*
X139534523Y-106809523D01*
X139486904Y-106714285D01*
X139439285Y-106523809D01*
X139439285Y-106380952D01*
X139486904Y-106190476D01*
X139534523Y-106095238D01*
X139629761Y-106000000D01*
X139772619Y-105952380D01*
X139867857Y-105952380D01*
X140010714Y-106000000D01*
X140058333Y-106047619D01*
X140391666Y-105952380D02*
X141010714Y-105952380D01*
X140677380Y-106333333D01*
X140820238Y-106333333D01*
X140915476Y-106380952D01*
X140963095Y-106428571D01*
X141010714Y-106523809D01*
X141010714Y-106761904D01*
X140963095Y-106857142D01*
X140915476Y-106904761D01*
X140820238Y-106952380D01*
X140534523Y-106952380D01*
X140439285Y-106904761D01*
X140391666Y-106857142D01*
%TO.C,C4*%
X140058333Y-103857142D02*
X140010714Y-103904761D01*
X139867857Y-103952380D01*
X139772619Y-103952380D01*
X139629761Y-103904761D01*
X139534523Y-103809523D01*
X139486904Y-103714285D01*
X139439285Y-103523809D01*
X139439285Y-103380952D01*
X139486904Y-103190476D01*
X139534523Y-103095238D01*
X139629761Y-103000000D01*
X139772619Y-102952380D01*
X139867857Y-102952380D01*
X140010714Y-103000000D01*
X140058333Y-103047619D01*
X140915476Y-103285714D02*
X140915476Y-103952380D01*
X140677380Y-102904761D02*
X140439285Y-103619047D01*
X141058333Y-103619047D01*
%TO.C,J5*%
X166127380Y-82483333D02*
X166841666Y-82483333D01*
X166984523Y-82530952D01*
X167079761Y-82626190D01*
X167127380Y-82769047D01*
X167127380Y-82864285D01*
X166127380Y-81530952D02*
X166127380Y-82007142D01*
X166603571Y-82054761D01*
X166555952Y-82007142D01*
X166508333Y-81911904D01*
X166508333Y-81673809D01*
X166555952Y-81578571D01*
X166603571Y-81530952D01*
X166698809Y-81483333D01*
X166936904Y-81483333D01*
X167032142Y-81530952D01*
X167079761Y-81578571D01*
X167127380Y-81673809D01*
X167127380Y-81911904D01*
X167079761Y-82007142D01*
X167032142Y-82054761D01*
%TO.C,C1*%
X152742186Y-121787142D02*
X152694567Y-121834761D01*
X152551710Y-121882380D01*
X152456472Y-121882380D01*
X152313614Y-121834761D01*
X152218376Y-121739523D01*
X152170757Y-121644285D01*
X152123138Y-121453809D01*
X152123138Y-121310952D01*
X152170757Y-121120476D01*
X152218376Y-121025238D01*
X152313614Y-120930000D01*
X152456472Y-120882380D01*
X152551710Y-120882380D01*
X152694567Y-120930000D01*
X152742186Y-120977619D01*
X153694567Y-121882380D02*
X153123138Y-121882380D01*
X153408853Y-121882380D02*
X153408853Y-120882380D01*
X153313614Y-121025238D01*
X153218376Y-121120476D01*
X153123138Y-121168095D01*
%TO.C,F1*%
X143141666Y-99928571D02*
X142808333Y-99928571D01*
X142808333Y-100452380D02*
X142808333Y-99452380D01*
X143284523Y-99452380D01*
X144189285Y-100452380D02*
X143617857Y-100452380D01*
X143903571Y-100452380D02*
X143903571Y-99452380D01*
X143808333Y-99595238D01*
X143713095Y-99690476D01*
X143617857Y-99738095D01*
%TO.C,FB1*%
X139391666Y-112528571D02*
X139058333Y-112528571D01*
X139058333Y-113052380D02*
X139058333Y-112052380D01*
X139534523Y-112052380D01*
X140248809Y-112528571D02*
X140391666Y-112576190D01*
X140439285Y-112623809D01*
X140486904Y-112719047D01*
X140486904Y-112861904D01*
X140439285Y-112957142D01*
X140391666Y-113004761D01*
X140296428Y-113052380D01*
X139915476Y-113052380D01*
X139915476Y-112052380D01*
X140248809Y-112052380D01*
X140344047Y-112100000D01*
X140391666Y-112147619D01*
X140439285Y-112242857D01*
X140439285Y-112338095D01*
X140391666Y-112433333D01*
X140344047Y-112480952D01*
X140248809Y-112528571D01*
X139915476Y-112528571D01*
X141439285Y-113052380D02*
X140867857Y-113052380D01*
X141153571Y-113052380D02*
X141153571Y-112052380D01*
X141058333Y-112195238D01*
X140963095Y-112290476D01*
X140867857Y-112338095D01*
%TO.C,J6*%
X76141666Y-64697380D02*
X76141666Y-65411666D01*
X76094047Y-65554523D01*
X75998809Y-65649761D01*
X75855952Y-65697380D01*
X75760714Y-65697380D01*
X77046428Y-64697380D02*
X76855952Y-64697380D01*
X76760714Y-64745000D01*
X76713095Y-64792619D01*
X76617857Y-64935476D01*
X76570238Y-65125952D01*
X76570238Y-65506904D01*
X76617857Y-65602142D01*
X76665476Y-65649761D01*
X76760714Y-65697380D01*
X76951190Y-65697380D01*
X77046428Y-65649761D01*
X77094047Y-65602142D01*
X77141666Y-65506904D01*
X77141666Y-65268809D01*
X77094047Y-65173571D01*
X77046428Y-65125952D01*
X76951190Y-65078333D01*
X76760714Y-65078333D01*
X76665476Y-65125952D01*
X76617857Y-65173571D01*
X76570238Y-65268809D01*
%TO.C,R7*%
X135658333Y-81677380D02*
X135325000Y-81201190D01*
X135086904Y-81677380D02*
X135086904Y-80677380D01*
X135467857Y-80677380D01*
X135563095Y-80725000D01*
X135610714Y-80772619D01*
X135658333Y-80867857D01*
X135658333Y-81010714D01*
X135610714Y-81105952D01*
X135563095Y-81153571D01*
X135467857Y-81201190D01*
X135086904Y-81201190D01*
X135991666Y-80677380D02*
X136658333Y-80677380D01*
X136229761Y-81677380D01*
%TO.C,J3*%
X106311666Y-123452380D02*
X106311666Y-124166666D01*
X106264047Y-124309523D01*
X106168809Y-124404761D01*
X106025952Y-124452380D01*
X105930714Y-124452380D01*
X106692619Y-123452380D02*
X107311666Y-123452380D01*
X106978333Y-123833333D01*
X107121190Y-123833333D01*
X107216428Y-123880952D01*
X107264047Y-123928571D01*
X107311666Y-124023809D01*
X107311666Y-124261904D01*
X107264047Y-124357142D01*
X107216428Y-124404761D01*
X107121190Y-124452380D01*
X106835476Y-124452380D01*
X106740238Y-124404761D01*
X106692619Y-124357142D01*
%TO.C,R3*%
X152742186Y-103746130D02*
X152408853Y-103269940D01*
X152170757Y-103746130D02*
X152170757Y-102746130D01*
X152551710Y-102746130D01*
X152646948Y-102793750D01*
X152694567Y-102841369D01*
X152742186Y-102936607D01*
X152742186Y-103079464D01*
X152694567Y-103174702D01*
X152646948Y-103222321D01*
X152551710Y-103269940D01*
X152170757Y-103269940D01*
X153075519Y-102746130D02*
X153694567Y-102746130D01*
X153361233Y-103127083D01*
X153504091Y-103127083D01*
X153599329Y-103174702D01*
X153646948Y-103222321D01*
X153694567Y-103317559D01*
X153694567Y-103555654D01*
X153646948Y-103650892D01*
X153599329Y-103698511D01*
X153504091Y-103746130D01*
X153218376Y-103746130D01*
X153123138Y-103698511D01*
X153075519Y-103650892D01*
%TO.C,C10*%
X111822142Y-70642857D02*
X111869761Y-70690476D01*
X111917380Y-70833333D01*
X111917380Y-70928571D01*
X111869761Y-71071428D01*
X111774523Y-71166666D01*
X111679285Y-71214285D01*
X111488809Y-71261904D01*
X111345952Y-71261904D01*
X111155476Y-71214285D01*
X111060238Y-71166666D01*
X110965000Y-71071428D01*
X110917380Y-70928571D01*
X110917380Y-70833333D01*
X110965000Y-70690476D01*
X111012619Y-70642857D01*
X111917380Y-69690476D02*
X111917380Y-70261904D01*
X111917380Y-69976190D02*
X110917380Y-69976190D01*
X111060238Y-70071428D01*
X111155476Y-70166666D01*
X111203095Y-70261904D01*
X110917380Y-69071428D02*
X110917380Y-68976190D01*
X110965000Y-68880952D01*
X111012619Y-68833333D01*
X111107857Y-68785714D01*
X111298333Y-68738095D01*
X111536428Y-68738095D01*
X111726904Y-68785714D01*
X111822142Y-68833333D01*
X111869761Y-68880952D01*
X111917380Y-68976190D01*
X111917380Y-69071428D01*
X111869761Y-69166666D01*
X111822142Y-69214285D01*
X111726904Y-69261904D01*
X111536428Y-69309523D01*
X111298333Y-69309523D01*
X111107857Y-69261904D01*
X111012619Y-69214285D01*
X110965000Y-69166666D01*
X110917380Y-69071428D01*
%TO.C,C9*%
X117708333Y-69007142D02*
X117660714Y-69054761D01*
X117517857Y-69102380D01*
X117422619Y-69102380D01*
X117279761Y-69054761D01*
X117184523Y-68959523D01*
X117136904Y-68864285D01*
X117089285Y-68673809D01*
X117089285Y-68530952D01*
X117136904Y-68340476D01*
X117184523Y-68245238D01*
X117279761Y-68150000D01*
X117422619Y-68102380D01*
X117517857Y-68102380D01*
X117660714Y-68150000D01*
X117708333Y-68197619D01*
X118184523Y-69102380D02*
X118375000Y-69102380D01*
X118470238Y-69054761D01*
X118517857Y-69007142D01*
X118613095Y-68864285D01*
X118660714Y-68673809D01*
X118660714Y-68292857D01*
X118613095Y-68197619D01*
X118565476Y-68150000D01*
X118470238Y-68102380D01*
X118279761Y-68102380D01*
X118184523Y-68150000D01*
X118136904Y-68197619D01*
X118089285Y-68292857D01*
X118089285Y-68530952D01*
X118136904Y-68626190D01*
X118184523Y-68673809D01*
X118279761Y-68721428D01*
X118470238Y-68721428D01*
X118565476Y-68673809D01*
X118613095Y-68626190D01*
X118660714Y-68530952D01*
D15*
%TO.C,J8*%
X126555000Y-34490000D02*
X127885000Y-34490000D01*
X122685000Y-34490000D02*
X122685000Y-37150000D01*
X125285000Y-34490000D02*
X122685000Y-34490000D01*
X125285000Y-34490000D02*
X125285000Y-37150000D01*
X127885000Y-34490000D02*
X127885000Y-35820000D01*
X125285000Y-37150000D02*
X122685000Y-37150000D01*
%TO.C,J7*%
X112645000Y-34490000D02*
X113975000Y-34490000D01*
X108775000Y-34490000D02*
X108775000Y-37150000D01*
X111375000Y-34490000D02*
X108775000Y-34490000D01*
X111375000Y-34490000D02*
X111375000Y-37150000D01*
X113975000Y-34490000D02*
X113975000Y-35820000D01*
X111375000Y-37150000D02*
X108775000Y-37150000D01*
%TO.C,R12*%
X117364564Y-116985000D02*
X116910436Y-116985000D01*
X117364564Y-115515000D02*
X116910436Y-115515000D01*
%TO.C,D2*%
X160679000Y-109507000D02*
X158394000Y-109507000D01*
X160679000Y-110977000D02*
X160679000Y-109507000D01*
X158394000Y-110977000D02*
X160679000Y-110977000D01*
%TO.C,R8*%
X122760000Y-47772936D02*
X122760000Y-48227064D01*
X121290000Y-47772936D02*
X121290000Y-48227064D01*
%TO.C,Y1*%
X105875000Y-75250000D02*
X105875000Y-79250000D01*
X109175000Y-75250000D02*
X105875000Y-75250000D01*
%TO.C,C5*%
X114710000Y-73011252D02*
X114710000Y-72488748D01*
X113240000Y-73011252D02*
X113240000Y-72488748D01*
%TO.C,C13*%
X127334420Y-88010000D02*
X127615580Y-88010000D01*
X127334420Y-86990000D02*
X127615580Y-86990000D01*
%TO.C,G\u002A\u002A\u002A*%
G36*
X164135857Y-52497538D02*
G01*
X170814143Y-52497538D01*
X170814143Y-62277351D01*
X164135857Y-62277351D01*
X164135857Y-58944461D01*
X165807579Y-58944461D01*
X165819473Y-59146099D01*
X165854243Y-59340279D01*
X165910518Y-59525685D01*
X165986925Y-59701001D01*
X166082096Y-59864913D01*
X166194659Y-60016103D01*
X166323242Y-60153259D01*
X166466476Y-60275063D01*
X166622990Y-60380200D01*
X166791412Y-60467356D01*
X166970371Y-60535214D01*
X167158498Y-60582460D01*
X167354420Y-60607778D01*
X167543784Y-60610436D01*
X167749050Y-60589917D01*
X167946251Y-60545846D01*
X168134456Y-60478628D01*
X168312732Y-60388671D01*
X168480148Y-60276382D01*
X168635772Y-60142167D01*
X168651548Y-60126662D01*
X168789630Y-59972240D01*
X168905935Y-59805588D01*
X169000230Y-59627181D01*
X169072283Y-59437495D01*
X169121861Y-59237005D01*
X169138424Y-59130692D01*
X169144483Y-59050093D01*
X169145293Y-58953479D01*
X169141259Y-58849200D01*
X169132784Y-58745608D01*
X169120273Y-58651053D01*
X169113379Y-58613403D01*
X169061216Y-58419055D01*
X168986233Y-58232913D01*
X168889821Y-58057243D01*
X168773372Y-57894308D01*
X168638277Y-57746372D01*
X168512949Y-57636571D01*
X168457245Y-57593304D01*
X168420093Y-57566255D01*
X168401079Y-57555335D01*
X168399790Y-57560455D01*
X168415813Y-57581526D01*
X168448733Y-57618459D01*
X168453674Y-57623818D01*
X168565358Y-57762111D01*
X168655883Y-57911002D01*
X168725243Y-58068220D01*
X168773433Y-58231499D01*
X168800447Y-58398570D01*
X168806278Y-58567166D01*
X168790922Y-58735017D01*
X168754372Y-58899855D01*
X168696622Y-59059413D01*
X168617668Y-59211422D01*
X168517502Y-59353615D01*
X168458274Y-59421595D01*
X168409909Y-59471274D01*
X168358559Y-59520658D01*
X168311581Y-59562817D01*
X168286568Y-59583299D01*
X168138211Y-59682122D01*
X167979666Y-59759219D01*
X167813442Y-59814315D01*
X167642050Y-59847138D01*
X167475456Y-59856973D01*
X167467999Y-59857413D01*
X167293797Y-59844869D01*
X167121955Y-59809231D01*
X166954980Y-59750227D01*
X166916005Y-59732604D01*
X166814067Y-59680974D01*
X166727708Y-59628477D01*
X166648044Y-59569032D01*
X166566190Y-59496563D01*
X166553772Y-59484766D01*
X166431796Y-59350942D01*
X166329663Y-59201929D01*
X166247474Y-59037891D01*
X166191926Y-58881930D01*
X166171382Y-58790995D01*
X166157413Y-58683841D01*
X166150346Y-58568472D01*
X166150507Y-58452887D01*
X166158227Y-58345090D01*
X166167406Y-58283230D01*
X166212612Y-58107305D01*
X166280457Y-57941255D01*
X166371329Y-57784316D01*
X166485618Y-57635722D01*
X166511509Y-57606731D01*
X166539616Y-57575343D01*
X166551389Y-57559868D01*
X166547865Y-57558219D01*
X166530785Y-57567871D01*
X166482233Y-57601568D01*
X166423651Y-57647644D01*
X166362033Y-57700151D01*
X166304372Y-57753139D01*
X166259565Y-57798576D01*
X166126620Y-57961035D01*
X166016297Y-58133559D01*
X165928933Y-58315293D01*
X165864865Y-58505383D01*
X165824432Y-58702971D01*
X165807970Y-58907205D01*
X165807579Y-58944461D01*
X164135857Y-58944461D01*
X164135857Y-56955982D01*
X166680955Y-56955982D01*
X166983981Y-56959330D01*
X167287007Y-56962679D01*
X167377502Y-57243845D01*
X167403240Y-57322877D01*
X167426760Y-57393321D01*
X167446916Y-57451889D01*
X167462563Y-57495293D01*
X167472554Y-57520245D01*
X167475456Y-57525012D01*
X167481240Y-57513643D01*
X167493465Y-57481725D01*
X167510977Y-57432541D01*
X167532626Y-57369374D01*
X167557258Y-57295506D01*
X167574221Y-57243623D01*
X167665526Y-56962235D01*
X167964207Y-56962235D01*
X168047649Y-56962014D01*
X168122107Y-56961392D01*
X168184154Y-56960434D01*
X168230365Y-56959203D01*
X168257313Y-56957762D01*
X168262888Y-56956698D01*
X168253219Y-56948094D01*
X168226095Y-56926968D01*
X168184338Y-56895438D01*
X168130771Y-56855624D01*
X168068216Y-56809646D01*
X168028397Y-56780603D01*
X167961578Y-56731688D01*
X167901846Y-56687362D01*
X167852087Y-56649817D01*
X167815189Y-56621244D01*
X167794040Y-56603835D01*
X167790133Y-56599732D01*
X167792783Y-56585365D01*
X167802286Y-56550777D01*
X167817585Y-56499473D01*
X167837620Y-56434961D01*
X167861333Y-56360747D01*
X167874549Y-56320145D01*
X167899930Y-56242096D01*
X167922453Y-56171779D01*
X167941008Y-56112748D01*
X167954482Y-56068559D01*
X167961766Y-56042768D01*
X167962740Y-56037869D01*
X167953162Y-56041163D01*
X167926294Y-56057475D01*
X167884934Y-56084919D01*
X167831881Y-56121613D01*
X167769934Y-56165671D01*
X167730825Y-56194007D01*
X167663779Y-56242686D01*
X167603009Y-56286391D01*
X167551579Y-56322955D01*
X167512550Y-56350206D01*
X167488987Y-56365977D01*
X167483804Y-56368944D01*
X167469844Y-56363497D01*
X167438835Y-56345074D01*
X167393771Y-56315665D01*
X167337645Y-56277256D01*
X167273452Y-56231835D01*
X167231105Y-56201164D01*
X167164055Y-56152447D01*
X167103982Y-56109311D01*
X167053728Y-56073755D01*
X167016133Y-56047775D01*
X166994036Y-56033369D01*
X166989347Y-56031138D01*
X166991827Y-56043516D01*
X167001051Y-56076303D01*
X167015998Y-56126131D01*
X167035647Y-56189634D01*
X167058977Y-56263445D01*
X167073763Y-56309559D01*
X167099010Y-56388368D01*
X167121456Y-56459332D01*
X167140018Y-56518956D01*
X167153614Y-56563743D01*
X167161163Y-56590198D01*
X167162346Y-56595703D01*
X167152637Y-56605906D01*
X167125379Y-56628490D01*
X167083373Y-56661291D01*
X167029418Y-56702149D01*
X166966317Y-56748902D01*
X166921651Y-56781481D01*
X166680955Y-56955982D01*
X164135857Y-56955982D01*
X164135857Y-52497538D01*
G37*
%TO.C,L1*%
X133100000Y-118200000D02*
X133100000Y-119550000D01*
X138900000Y-123800000D02*
X133100000Y-123800000D01*
X138900000Y-123800000D02*
X138900000Y-122450000D01*
X133100000Y-123800000D02*
X133100000Y-122450000D01*
X138900000Y-118200000D02*
X133100000Y-118200000D01*
X138900000Y-118200000D02*
X138900000Y-119550000D01*
%TO.C,R9*%
X119660000Y-47772936D02*
X119660000Y-48227064D01*
X118190000Y-47772936D02*
X118190000Y-48227064D01*
%TO.C,U1*%
X150000000Y-115440000D02*
X150800000Y-115440000D01*
X150000000Y-115440000D02*
X149200000Y-115440000D01*
X150000000Y-118560000D02*
X149200000Y-118560000D01*
X150000000Y-118560000D02*
X151800000Y-118560000D01*
%TO.C,G\u002A\u002A\u002A*%
G36*
X88699902Y-121516556D02*
G01*
X88716361Y-121545467D01*
X88741993Y-121590844D01*
X88775818Y-121650935D01*
X88816858Y-121723989D01*
X88864133Y-121808253D01*
X88916664Y-121901976D01*
X88973472Y-122003406D01*
X89033578Y-122110792D01*
X89096003Y-122222381D01*
X89159768Y-122336421D01*
X89223893Y-122451161D01*
X89287400Y-122564849D01*
X89349309Y-122675734D01*
X89408642Y-122782062D01*
X89464418Y-122882083D01*
X89515660Y-122974045D01*
X89561388Y-123056196D01*
X89600623Y-123126783D01*
X89632385Y-123184056D01*
X89655696Y-123226263D01*
X89669577Y-123251651D01*
X89673193Y-123258558D01*
X89666435Y-123269698D01*
X89644142Y-123289845D01*
X89610309Y-123316128D01*
X89568933Y-123345671D01*
X89524010Y-123375602D01*
X89479537Y-123403047D01*
X89446647Y-123421450D01*
X89350568Y-123463450D01*
X89232915Y-123499959D01*
X89094344Y-123530826D01*
X88935512Y-123555899D01*
X88799962Y-123571147D01*
X88652887Y-123585348D01*
X88526345Y-123598024D01*
X88418084Y-123609498D01*
X88325850Y-123620095D01*
X88247390Y-123630137D01*
X88180449Y-123639949D01*
X88122775Y-123649855D01*
X88072114Y-123660177D01*
X88026213Y-123671240D01*
X87982818Y-123683367D01*
X87951676Y-123692998D01*
X87873848Y-123723175D01*
X87807081Y-123761980D01*
X87744349Y-123814105D01*
X87697682Y-123862575D01*
X87669104Y-123894353D01*
X87551790Y-123824292D01*
X87497074Y-123790374D01*
X87461225Y-123765026D01*
X87442515Y-123746891D01*
X87438900Y-123735626D01*
X87445296Y-123721973D01*
X87461949Y-123690276D01*
X87487996Y-123642070D01*
X87522572Y-123578889D01*
X87564815Y-123502270D01*
X87613861Y-123413745D01*
X87668846Y-123314851D01*
X87728907Y-123207120D01*
X87793179Y-123092089D01*
X87860801Y-122971292D01*
X87930907Y-122846263D01*
X88002635Y-122718537D01*
X88075121Y-122589649D01*
X88147501Y-122461133D01*
X88218912Y-122334524D01*
X88288490Y-122211357D01*
X88355372Y-122093167D01*
X88418694Y-121981487D01*
X88477592Y-121877854D01*
X88531203Y-121783800D01*
X88578664Y-121700862D01*
X88619111Y-121630573D01*
X88651680Y-121574469D01*
X88675508Y-121534083D01*
X88689731Y-121510952D01*
X88693594Y-121505863D01*
X88699902Y-121516556D01*
G37*
G36*
X87716280Y-125856830D02*
G01*
X87734784Y-125817804D01*
X87747551Y-125784885D01*
X87748418Y-125782061D01*
X87761306Y-125724643D01*
X87765234Y-125665650D01*
X87759661Y-125601365D01*
X87744043Y-125528067D01*
X87717838Y-125442038D01*
X87685859Y-125353560D01*
X87665593Y-125299145D01*
X87652868Y-125260690D01*
X87646632Y-125232966D01*
X87645828Y-125210750D01*
X87649403Y-125188813D01*
X87651157Y-125181565D01*
X87659396Y-125130821D01*
X87662425Y-125069745D01*
X87660737Y-125003921D01*
X87654828Y-124938932D01*
X87645190Y-124880362D01*
X87632318Y-124833794D01*
X87617966Y-124806260D01*
X87621002Y-124792233D01*
X87640743Y-124763802D01*
X87676692Y-124721620D01*
X87709212Y-124686400D01*
X87810729Y-124578916D01*
X87865659Y-124612877D01*
X87895724Y-124633754D01*
X87915675Y-124651998D01*
X87920589Y-124660785D01*
X87912073Y-124674517D01*
X87889907Y-124696303D01*
X87863433Y-124717888D01*
X87826908Y-124749044D01*
X87802154Y-124780917D01*
X87787720Y-124818280D01*
X87782157Y-124865906D01*
X87784013Y-124928565D01*
X87787379Y-124968145D01*
X87792860Y-125061127D01*
X87789524Y-125139351D01*
X87786222Y-125164706D01*
X87780212Y-125207433D01*
X87779189Y-125235442D01*
X87784197Y-125256537D01*
X87796280Y-125278522D01*
X87802784Y-125288490D01*
X87827096Y-125327842D01*
X87851481Y-125371183D01*
X87856823Y-125381414D01*
X87873338Y-125409195D01*
X87887937Y-125419877D01*
X87903245Y-125412368D01*
X87921891Y-125385578D01*
X87942897Y-125345690D01*
X87966593Y-125279955D01*
X87972029Y-125226151D01*
X87971308Y-125196936D01*
X87967157Y-125174635D01*
X87956594Y-125153625D01*
X87936641Y-125128281D01*
X87904315Y-125092980D01*
X87897727Y-125085958D01*
X87857843Y-125041119D01*
X87833820Y-125005154D01*
X87824381Y-124971805D01*
X87828250Y-124934813D01*
X87844150Y-124887920D01*
X87852964Y-124866482D01*
X87868009Y-124824554D01*
X87876484Y-124788144D01*
X87877111Y-124768091D01*
X87879296Y-124742080D01*
X87897583Y-124712343D01*
X87908756Y-124699470D01*
X87945792Y-124659056D01*
X87989592Y-124686751D01*
X88018160Y-124704916D01*
X88038636Y-124718119D01*
X88042856Y-124720921D01*
X88042970Y-124733577D01*
X88034129Y-124760480D01*
X88018526Y-124795223D01*
X87997945Y-124840437D01*
X87979918Y-124886714D01*
X87970940Y-124914934D01*
X87964298Y-124944700D01*
X87964014Y-124968889D01*
X87971336Y-124995984D01*
X87987511Y-125034467D01*
X87989012Y-125037818D01*
X88006266Y-125073421D01*
X88021050Y-125098900D01*
X88030203Y-125108818D01*
X88030283Y-125108820D01*
X88043194Y-125101113D01*
X88063244Y-125082872D01*
X88083291Y-125061417D01*
X88096196Y-125044068D01*
X88097772Y-125039631D01*
X88090274Y-125028371D01*
X88071510Y-125008102D01*
X88063478Y-125000225D01*
X88042626Y-124976883D01*
X88032414Y-124952795D01*
X88029280Y-124918223D01*
X88029185Y-124906512D01*
X88032549Y-124871992D01*
X88041257Y-124832259D01*
X88053237Y-124793615D01*
X88066415Y-124762362D01*
X88078717Y-124744803D01*
X88082977Y-124743024D01*
X88095071Y-124748902D01*
X88118078Y-124763472D01*
X88124585Y-124767900D01*
X88148459Y-124784340D01*
X88162506Y-124793956D01*
X88163651Y-124794723D01*
X88161631Y-124805339D01*
X88152900Y-124829397D01*
X88149362Y-124838066D01*
X88135298Y-124887601D01*
X88136509Y-124928489D01*
X88151984Y-124957405D01*
X88180709Y-124971022D01*
X88190038Y-124971647D01*
X88207714Y-124963063D01*
X88211428Y-124939495D01*
X88200975Y-124904217D01*
X88195017Y-124891785D01*
X88185073Y-124861372D01*
X88186564Y-124836313D01*
X88198715Y-124823522D01*
X88202707Y-124823042D01*
X88216542Y-124828425D01*
X88244012Y-124842626D01*
X88280134Y-124862719D01*
X88319927Y-124885778D01*
X88358412Y-124908879D01*
X88390606Y-124929097D01*
X88411529Y-124943506D01*
X88416826Y-124948784D01*
X88408266Y-124957901D01*
X88385638Y-124977750D01*
X88352866Y-125004956D01*
X88330370Y-125023087D01*
X88230453Y-125112054D01*
X88143873Y-125208016D01*
X88072941Y-125307783D01*
X88019969Y-125408164D01*
X87990746Y-125491764D01*
X87984132Y-125523736D01*
X87977827Y-125565409D01*
X87972355Y-125611255D01*
X87968238Y-125655748D01*
X87965999Y-125693360D01*
X87966163Y-125718563D01*
X87968566Y-125726102D01*
X87975060Y-125716967D01*
X87987837Y-125694000D01*
X87993738Y-125682638D01*
X88013385Y-125650908D01*
X88042214Y-125612033D01*
X88069158Y-125579952D01*
X88115533Y-125536265D01*
X88162480Y-125509999D01*
X88213226Y-125500972D01*
X88270997Y-125509002D01*
X88339022Y-125533907D01*
X88394982Y-125561557D01*
X88433636Y-125581473D01*
X88457332Y-125591143D01*
X88470922Y-125591728D01*
X88479260Y-125584390D01*
X88480715Y-125582090D01*
X88513899Y-125530880D01*
X88522501Y-125518961D01*
X88683772Y-125518961D01*
X88690214Y-125556142D01*
X88709796Y-125604401D01*
X88733408Y-125648743D01*
X88760564Y-125688629D01*
X88787406Y-125719272D01*
X88810072Y-125735887D01*
X88817179Y-125737533D01*
X88836075Y-125733770D01*
X88846064Y-125730408D01*
X88872065Y-125709402D01*
X88891702Y-125672215D01*
X88904772Y-125624070D01*
X88911075Y-125570191D01*
X88910409Y-125515802D01*
X88902575Y-125466128D01*
X88887369Y-125426392D01*
X88864592Y-125401818D01*
X88858819Y-125399069D01*
X88842185Y-125401498D01*
X88811948Y-125413175D01*
X88774174Y-125431697D01*
X88767983Y-125435055D01*
X88720835Y-125463717D01*
X88693372Y-125489920D01*
X88683772Y-125518961D01*
X88522501Y-125518961D01*
X88554081Y-125475202D01*
X88598787Y-125417835D01*
X88645540Y-125361555D01*
X88691865Y-125309140D01*
X88735287Y-125263367D01*
X88773329Y-125227013D01*
X88803516Y-125202856D01*
X88823372Y-125193673D01*
X88826569Y-125194093D01*
X88838981Y-125200931D01*
X88869317Y-125218585D01*
X88916105Y-125246170D01*
X88977873Y-125282803D01*
X89053150Y-125327598D01*
X89140462Y-125379673D01*
X89238339Y-125438141D01*
X89345308Y-125502121D01*
X89459897Y-125570726D01*
X89580634Y-125643072D01*
X89706047Y-125718276D01*
X89834664Y-125795454D01*
X89965013Y-125873720D01*
X90095623Y-125952191D01*
X90225020Y-126029983D01*
X90351734Y-126106210D01*
X90474292Y-126179990D01*
X90591221Y-126250437D01*
X90701051Y-126316668D01*
X90802309Y-126377798D01*
X90893524Y-126432943D01*
X90973222Y-126481218D01*
X91039932Y-126521740D01*
X91092183Y-126553624D01*
X91128501Y-126575986D01*
X91147416Y-126587942D01*
X91149887Y-126589745D01*
X91138623Y-126590217D01*
X91105501Y-126590677D01*
X91051523Y-126591124D01*
X90977694Y-126591555D01*
X90885017Y-126591968D01*
X90774496Y-126592362D01*
X90647134Y-126592735D01*
X90503935Y-126593084D01*
X90345903Y-126593408D01*
X90174041Y-126593705D01*
X89989352Y-126593972D01*
X89792842Y-126594209D01*
X89585512Y-126594412D01*
X89368366Y-126594581D01*
X89142409Y-126594713D01*
X88908644Y-126594806D01*
X88668074Y-126594858D01*
X88491744Y-126594869D01*
X85833601Y-126594869D01*
X85847177Y-126569149D01*
X85860658Y-126544230D01*
X85883907Y-126501986D01*
X85916075Y-126443927D01*
X85956314Y-126371565D01*
X86003776Y-126286410D01*
X86057612Y-126189972D01*
X86116976Y-126083764D01*
X86181017Y-125969296D01*
X86248889Y-125848079D01*
X86319742Y-125721624D01*
X86346071Y-125674662D01*
X87394757Y-125674662D01*
X87398397Y-125719835D01*
X87404927Y-125761686D01*
X87417447Y-125812084D01*
X87433983Y-125865430D01*
X87452564Y-125916124D01*
X87471217Y-125958565D01*
X87487969Y-125987154D01*
X87495203Y-125994638D01*
X87520499Y-126012391D01*
X87523753Y-125905042D01*
X87523803Y-125837713D01*
X87518751Y-125785213D01*
X87507825Y-125739924D01*
X87506606Y-125736178D01*
X87494303Y-125701364D01*
X87483330Y-125683028D01*
X87468011Y-125675889D01*
X87442665Y-125674663D01*
X87440481Y-125674662D01*
X87394757Y-125674662D01*
X86346071Y-125674662D01*
X86392729Y-125591441D01*
X86467001Y-125459042D01*
X86541711Y-125325938D01*
X86616009Y-125193639D01*
X86689048Y-125063657D01*
X86759980Y-124937502D01*
X86827956Y-124816686D01*
X86892128Y-124702718D01*
X86951648Y-124597111D01*
X87005668Y-124501375D01*
X87053339Y-124417021D01*
X87093813Y-124345560D01*
X87126242Y-124288503D01*
X87149778Y-124247361D01*
X87163573Y-124223645D01*
X87166947Y-124218252D01*
X87176257Y-124212694D01*
X87190732Y-124214010D01*
X87214040Y-124223651D01*
X87249852Y-124243066D01*
X87291316Y-124267414D01*
X87338905Y-124296267D01*
X87369570Y-124316551D01*
X87386274Y-124330971D01*
X87391983Y-124342232D01*
X87389662Y-124353037D01*
X87388250Y-124355843D01*
X87378142Y-124373486D01*
X87358582Y-124406605D01*
X87331992Y-124451139D01*
X87300790Y-124503026D01*
X87285115Y-124528970D01*
X87252147Y-124585118D01*
X87222746Y-124638278D01*
X87199434Y-124683660D01*
X87184734Y-124716472D01*
X87181760Y-124725259D01*
X87172802Y-124786669D01*
X87174945Y-124865062D01*
X87188287Y-124961071D01*
X87212927Y-125075333D01*
X87248961Y-125208481D01*
X87264247Y-125259544D01*
X87282176Y-125321972D01*
X87300157Y-125390920D01*
X87315057Y-125454200D01*
X87318613Y-125471020D01*
X87339109Y-125571782D01*
X87404980Y-125568197D01*
X87458781Y-125569394D01*
X87494459Y-125580210D01*
X87497511Y-125582079D01*
X87523651Y-125609486D01*
X87549160Y-125654610D01*
X87571828Y-125712362D01*
X87589443Y-125777649D01*
X87594808Y-125806120D01*
X87605047Y-125858986D01*
X87617033Y-125905866D01*
X87629286Y-125942075D01*
X87640328Y-125962929D01*
X87645307Y-125966156D01*
X87656553Y-125956627D01*
X87674144Y-125931634D01*
X87679018Y-125923463D01*
X87987451Y-125923463D01*
X87991684Y-125945687D01*
X88005461Y-125965927D01*
X88022975Y-125983577D01*
X88070298Y-126015587D01*
X88120240Y-126024896D01*
X88172685Y-126011498D01*
X88209279Y-125989736D01*
X88246304Y-125956282D01*
X88287957Y-125908061D01*
X88293331Y-125900724D01*
X88429802Y-125900724D01*
X88433378Y-125939261D01*
X88453549Y-125967678D01*
X88487577Y-125983906D01*
X88532728Y-125985875D01*
X88586264Y-125971516D01*
X88595500Y-125967532D01*
X88633684Y-125944372D01*
X88668643Y-125914153D01*
X88673892Y-125908285D01*
X88694168Y-125880484D01*
X88701508Y-125855285D01*
X88699312Y-125820603D01*
X88699068Y-125818810D01*
X88682979Y-125758734D01*
X88653755Y-125717322D01*
X88628255Y-125700675D01*
X88613045Y-125695617D01*
X88598517Y-125697731D01*
X88580084Y-125709596D01*
X88553159Y-125733793D01*
X88530828Y-125755493D01*
X88496534Y-125790932D01*
X88467221Y-125824373D01*
X88448113Y-125849773D01*
X88445555Y-125854135D01*
X88429802Y-125900724D01*
X88293331Y-125900724D01*
X88329604Y-125851205D01*
X88366608Y-125791851D01*
X88384583Y-125757738D01*
X88410774Y-125703640D01*
X88384343Y-125675506D01*
X88332697Y-125636416D01*
X88270672Y-125614952D01*
X88235586Y-125611791D01*
X88206842Y-125614119D01*
X88182311Y-125623591D01*
X88154684Y-125643940D01*
X88131299Y-125665054D01*
X88078862Y-125725719D01*
X88034978Y-125799370D01*
X88008801Y-125854855D01*
X87993058Y-125894702D01*
X87987451Y-125923463D01*
X87679018Y-125923463D01*
X87695060Y-125896571D01*
X87716280Y-125856830D01*
G37*
G36*
X90190606Y-124191030D02*
G01*
X90197062Y-124201819D01*
X90213678Y-124230844D01*
X90239485Y-124276369D01*
X90273512Y-124336660D01*
X90314788Y-124409984D01*
X90362344Y-124494604D01*
X90415210Y-124588787D01*
X90472414Y-124690797D01*
X90532989Y-124798902D01*
X90595961Y-124911365D01*
X90660363Y-125026452D01*
X90725224Y-125142429D01*
X90789572Y-125257562D01*
X90852439Y-125370115D01*
X90912854Y-125478355D01*
X90969847Y-125580546D01*
X91022448Y-125674954D01*
X91069686Y-125759845D01*
X91110592Y-125833483D01*
X91144194Y-125894135D01*
X91169524Y-125940066D01*
X91185610Y-125969542D01*
X91190155Y-125978088D01*
X91199537Y-126000386D01*
X91199661Y-126010813D01*
X91198763Y-126010924D01*
X91187909Y-126005021D01*
X91158830Y-125988129D01*
X91112882Y-125961059D01*
X91051423Y-125924620D01*
X90975809Y-125879622D01*
X90887398Y-125826876D01*
X90787546Y-125767190D01*
X90677611Y-125701376D01*
X90558951Y-125630242D01*
X90432921Y-125554600D01*
X90300878Y-125475258D01*
X90253005Y-125446470D01*
X90119225Y-125365925D01*
X89991091Y-125288616D01*
X89869950Y-125215367D01*
X89757151Y-125147001D01*
X89654043Y-125084340D01*
X89561974Y-125028206D01*
X89482293Y-124979423D01*
X89416349Y-124938814D01*
X89365490Y-124907201D01*
X89331064Y-124885407D01*
X89314421Y-124874254D01*
X89313044Y-124873012D01*
X89321057Y-124863700D01*
X89345181Y-124844337D01*
X89382292Y-124817227D01*
X89429267Y-124784678D01*
X89464954Y-124760811D01*
X89539838Y-124710734D01*
X89599533Y-124668632D01*
X89648386Y-124630600D01*
X89690742Y-124592735D01*
X89730946Y-124551131D01*
X89773346Y-124501884D01*
X89822285Y-124441090D01*
X89825915Y-124436495D01*
X89864390Y-124388315D01*
X89899076Y-124345919D01*
X89926977Y-124312894D01*
X89945094Y-124292827D01*
X89949056Y-124289132D01*
X89970716Y-124275967D01*
X90005155Y-124258969D01*
X90047177Y-124240248D01*
X90091585Y-124221915D01*
X90133183Y-124206080D01*
X90166775Y-124194854D01*
X90187163Y-124190347D01*
X90190606Y-124191030D01*
G37*
%TO.C,C14*%
X129465000Y-73140580D02*
X129465000Y-72859420D01*
X130485000Y-73140580D02*
X130485000Y-72859420D01*
%TO.C,R11*%
X112585436Y-116985000D02*
X113039564Y-116985000D01*
X112585436Y-115515000D02*
X113039564Y-115515000D01*
%TO.C,G\u002A\u002A\u002A*%
G36*
X141425735Y-67996916D02*
G01*
X141494203Y-67997078D01*
X141547575Y-67997393D01*
X141583806Y-67997857D01*
X141600849Y-67998468D01*
X141601917Y-67998689D01*
X141597657Y-68008977D01*
X141585201Y-68038225D01*
X141565031Y-68085315D01*
X141537631Y-68149123D01*
X141503483Y-68228531D01*
X141463070Y-68322416D01*
X141416875Y-68429658D01*
X141365381Y-68549136D01*
X141309071Y-68679729D01*
X141248428Y-68820317D01*
X141183935Y-68969777D01*
X141116075Y-69126990D01*
X141045332Y-69290835D01*
X140973828Y-69456390D01*
X140345740Y-70910422D01*
X139786963Y-70913256D01*
X139678735Y-70913648D01*
X139577435Y-70913710D01*
X139485110Y-70913462D01*
X139403807Y-70912925D01*
X139335570Y-70912118D01*
X139282448Y-70911062D01*
X139246485Y-70909777D01*
X139229728Y-70908282D01*
X139228752Y-70907787D01*
X139233081Y-70896953D01*
X139245610Y-70867166D01*
X139265855Y-70819554D01*
X139293330Y-70755244D01*
X139327552Y-70675363D01*
X139368036Y-70581039D01*
X139414296Y-70473398D01*
X139465848Y-70353569D01*
X139522208Y-70222678D01*
X139582890Y-70081852D01*
X139647410Y-69932220D01*
X139715284Y-69774908D01*
X139786026Y-69611043D01*
X139855551Y-69450086D01*
X140481784Y-68000689D01*
X141041851Y-67997855D01*
X141150231Y-67997376D01*
X141251703Y-67997062D01*
X141344220Y-67996910D01*
X141425735Y-67996916D01*
G37*
G36*
X141254191Y-66563813D02*
G01*
X141396013Y-66563924D01*
X141523138Y-66564108D01*
X141636367Y-66564370D01*
X141736496Y-66564716D01*
X141824324Y-66565150D01*
X141900649Y-66565679D01*
X141966269Y-66566307D01*
X142021982Y-66567040D01*
X142068585Y-66567882D01*
X142106878Y-66568839D01*
X142137657Y-66569916D01*
X142161721Y-66571119D01*
X142179869Y-66572451D01*
X142192898Y-66573920D01*
X142201605Y-66575529D01*
X142206790Y-66577284D01*
X142209251Y-66579191D01*
X142209784Y-66581254D01*
X142209495Y-66582621D01*
X142203626Y-66597556D01*
X142190179Y-66629869D01*
X142170295Y-66676872D01*
X142145120Y-66735881D01*
X142115796Y-66804208D01*
X142083465Y-66879167D01*
X142073326Y-66902604D01*
X141943642Y-67202153D01*
X139593214Y-67207623D01*
X137242787Y-67213092D01*
X137157641Y-67237352D01*
X137012329Y-67289008D01*
X136881096Y-67356986D01*
X136764453Y-67440874D01*
X136662909Y-67540259D01*
X136576973Y-67654732D01*
X136523638Y-67749096D01*
X136473382Y-67864031D01*
X136440142Y-67974825D01*
X136422439Y-68088430D01*
X136418793Y-68211800D01*
X136419617Y-68238163D01*
X136435525Y-68386082D01*
X136470994Y-68524290D01*
X136525991Y-68652695D01*
X136600482Y-68771204D01*
X136622724Y-68799992D01*
X136644468Y-68824769D01*
X136679970Y-68862457D01*
X136727104Y-68910920D01*
X136783748Y-68968021D01*
X136847777Y-69031622D01*
X136917067Y-69099588D01*
X136989495Y-69169782D01*
X137007601Y-69187196D01*
X137126107Y-69301005D01*
X137229818Y-69400748D01*
X137319705Y-69487525D01*
X137396740Y-69562435D01*
X137461897Y-69626578D01*
X137516147Y-69681054D01*
X137560462Y-69726963D01*
X137595814Y-69765405D01*
X137623177Y-69797479D01*
X137643522Y-69824286D01*
X137657820Y-69846924D01*
X137667046Y-69866495D01*
X137672170Y-69884097D01*
X137674165Y-69900830D01*
X137674003Y-69917795D01*
X137672656Y-69936091D01*
X137672395Y-69939228D01*
X137663053Y-69989673D01*
X137642027Y-70030760D01*
X137605623Y-70068343D01*
X137577187Y-70090009D01*
X137530789Y-70122825D01*
X136388618Y-70125757D01*
X136232555Y-70126103D01*
X136082787Y-70126326D01*
X135940746Y-70126432D01*
X135807867Y-70126423D01*
X135685583Y-70126304D01*
X135575326Y-70126078D01*
X135478530Y-70125749D01*
X135396628Y-70125320D01*
X135331054Y-70124796D01*
X135283239Y-70124179D01*
X135254619Y-70123475D01*
X135246447Y-70122791D01*
X135250675Y-70112096D01*
X135262947Y-70082749D01*
X135282649Y-70036188D01*
X135309166Y-69973850D01*
X135341883Y-69897174D01*
X135380185Y-69807597D01*
X135423457Y-69706559D01*
X135471085Y-69595498D01*
X135522452Y-69475851D01*
X135576946Y-69349056D01*
X135631229Y-69222873D01*
X135700699Y-69061459D01*
X135776845Y-68884522D01*
X135857902Y-68696164D01*
X135942108Y-68500484D01*
X136027696Y-68301583D01*
X136112903Y-68103561D01*
X136195965Y-67910518D01*
X136275117Y-67726555D01*
X136348594Y-67555771D01*
X136394840Y-67448277D01*
X136773670Y-66567700D01*
X139494825Y-66564944D01*
X139782938Y-66564655D01*
X140049972Y-66564398D01*
X140296724Y-66564178D01*
X140523992Y-66564000D01*
X140732575Y-66563870D01*
X140923271Y-66563791D01*
X141096877Y-66563771D01*
X141254191Y-66563813D01*
G37*
G36*
X139003535Y-67995683D02*
G01*
X139128279Y-67995832D01*
X139236038Y-67996091D01*
X139328037Y-67996482D01*
X139405498Y-67997024D01*
X139469645Y-67997737D01*
X139521701Y-67998642D01*
X139562889Y-67999758D01*
X139594433Y-68001106D01*
X139617557Y-68002705D01*
X139633483Y-68004576D01*
X139643435Y-68006739D01*
X139648636Y-68009214D01*
X139650310Y-68012022D01*
X139649984Y-68014363D01*
X139644981Y-68026489D01*
X139631794Y-68057556D01*
X139610916Y-68106420D01*
X139582838Y-68171939D01*
X139548053Y-68252968D01*
X139507053Y-68348365D01*
X139460329Y-68456986D01*
X139408373Y-68577687D01*
X139351678Y-68709326D01*
X139290735Y-68850760D01*
X139226037Y-69000843D01*
X139158075Y-69158435D01*
X139087341Y-69322390D01*
X139022789Y-69471964D01*
X138401886Y-70910422D01*
X138112216Y-70912385D01*
X138034296Y-70912704D01*
X137963274Y-70912599D01*
X137902176Y-70912105D01*
X137854030Y-70911260D01*
X137821864Y-70910098D01*
X137808872Y-70908738D01*
X137797481Y-70894457D01*
X137795198Y-70881706D01*
X137801532Y-70866588D01*
X137822557Y-70850325D01*
X137861311Y-70830636D01*
X137866084Y-70828478D01*
X137976927Y-70768178D01*
X138083664Y-70690009D01*
X138182120Y-70597975D01*
X138268123Y-70496085D01*
X138337496Y-70388346D01*
X138350501Y-70363480D01*
X138403888Y-70232931D01*
X138437710Y-70096064D01*
X138452200Y-69955654D01*
X138447592Y-69814476D01*
X138424121Y-69675305D01*
X138382020Y-69540917D01*
X138321523Y-69414087D01*
X138262830Y-69323703D01*
X138246277Y-69304303D01*
X138215468Y-69271340D01*
X138171959Y-69226373D01*
X138117306Y-69170960D01*
X138053065Y-69106658D01*
X137980791Y-69035025D01*
X137902040Y-68957620D01*
X137818368Y-68876000D01*
X137739712Y-68799814D01*
X137653635Y-68716483D01*
X137571583Y-68636597D01*
X137495038Y-68561628D01*
X137425480Y-68493046D01*
X137364389Y-68432323D01*
X137313247Y-68380930D01*
X137273534Y-68340339D01*
X137246730Y-68312021D01*
X137234582Y-68297841D01*
X137212178Y-68255802D01*
X137204809Y-68211301D01*
X137204741Y-68204146D01*
X137211904Y-68151354D01*
X137230559Y-68099406D01*
X137257178Y-68057138D01*
X137267865Y-68046139D01*
X137276722Y-68038302D01*
X137285499Y-68031330D01*
X137295461Y-68025173D01*
X137307874Y-68019779D01*
X137324004Y-68015097D01*
X137345116Y-68011076D01*
X137372477Y-68007664D01*
X137407353Y-68004810D01*
X137451008Y-68002464D01*
X137504709Y-68000574D01*
X137569722Y-67999089D01*
X137647313Y-67997957D01*
X137738747Y-67997128D01*
X137845290Y-67996550D01*
X137968209Y-67996172D01*
X138108768Y-67995944D01*
X138268234Y-67995812D01*
X138447873Y-67995728D01*
X138515165Y-67995700D01*
X138698201Y-67995637D01*
X138860584Y-67995624D01*
X139003535Y-67995683D01*
G37*
%TO.C,C7*%
X127334420Y-86210000D02*
X127615580Y-86210000D01*
X127334420Y-85190000D02*
X127615580Y-85190000D01*
%TO.C,R6*%
X150227064Y-108716250D02*
X149772936Y-108716250D01*
X150227064Y-110186250D02*
X149772936Y-110186250D01*
%TO.C,J1*%
X156525000Y-98257500D02*
X156525000Y-95557500D01*
X156525000Y-95557500D02*
X158425000Y-95557500D01*
X171225000Y-95557500D02*
X171225000Y-104757500D01*
X157375000Y-104957500D02*
X156325000Y-104957500D01*
X156525000Y-104757500D02*
X156525000Y-102157500D01*
X171225000Y-104757500D02*
X156525000Y-104757500D01*
X162425000Y-95557500D02*
X171225000Y-95557500D01*
X156325000Y-103907500D02*
X156325000Y-104957500D01*
%TO.C,R10*%
X94460000Y-36772936D02*
X94460000Y-37227064D01*
X92990000Y-36772936D02*
X92990000Y-37227064D01*
%TO.C,U4*%
X154475000Y-75440000D02*
X155275000Y-75440000D01*
X154475000Y-78560000D02*
X153675000Y-78560000D01*
X154475000Y-75440000D02*
X153675000Y-75440000D01*
X154475000Y-78560000D02*
X156275000Y-78560000D01*
%TO.C,C16*%
X107384420Y-74270000D02*
X107665580Y-74270000D01*
X107384420Y-73250000D02*
X107665580Y-73250000D01*
%TO.C,C6*%
X118615580Y-86490000D02*
X118334420Y-86490000D01*
X118615580Y-87510000D02*
X118334420Y-87510000D01*
%TO.C,J2*%
X152280000Y-33395000D02*
X152280000Y-35995000D01*
X142060000Y-33395000D02*
X142060000Y-38595000D01*
X152280000Y-35995000D02*
X154880000Y-35995000D01*
X153550000Y-33395000D02*
X154880000Y-33395000D01*
X154880000Y-35995000D02*
X154880000Y-38595000D01*
X154880000Y-38595000D02*
X142060000Y-38595000D01*
X154880000Y-33395000D02*
X154880000Y-34725000D01*
X152280000Y-33395000D02*
X142060000Y-33395000D01*
%TO.C,D4*%
X131017500Y-80270000D02*
X133302500Y-80270000D01*
X133302500Y-80270000D02*
X133302500Y-78800000D01*
X133302500Y-78800000D02*
X131017500Y-78800000D01*
%TO.C,R2*%
X149747936Y-111795000D02*
X150202064Y-111795000D01*
X149747936Y-113265000D02*
X150202064Y-113265000D01*
%TO.C,R4*%
X158966936Y-112507000D02*
X159421064Y-112507000D01*
X158966936Y-113977000D02*
X159421064Y-113977000D01*
%TO.C,J4*%
X109825000Y-122670000D02*
X109825000Y-125330000D01*
X117505000Y-125330000D02*
X109825000Y-125330000D01*
X118775000Y-122670000D02*
X120105000Y-122670000D01*
X117505000Y-122670000D02*
X117505000Y-125330000D01*
X117505000Y-122670000D02*
X109825000Y-122670000D01*
X120105000Y-122670000D02*
X120105000Y-124000000D01*
%TO.C,D1*%
X145725000Y-93000000D02*
X141825000Y-93000000D01*
X145725000Y-95000000D02*
X141825000Y-95000000D01*
X145725000Y-95000000D02*
X145725000Y-93000000D01*
%TO.C,SW1*%
X91025000Y-30480000D02*
X91025000Y-31270000D01*
X96075000Y-32320000D02*
X94375000Y-32320000D01*
X97925000Y-31270000D02*
X97925000Y-30480000D01*
X97325000Y-29470000D02*
X91625000Y-29470000D01*
X93075000Y-32320000D02*
X92875000Y-32320000D01*
%TO.C,D3*%
X144000000Y-118750000D02*
X144000000Y-122650000D01*
X142000000Y-118750000D02*
X142000000Y-122650000D01*
X144000000Y-118750000D02*
X142000000Y-118750000D01*
%TO.C,C17*%
X107665580Y-81250000D02*
X107384420Y-81250000D01*
X107665580Y-80230000D02*
X107384420Y-80230000D01*
D10*
%TO.C,U3*%
X121575000Y-54700000D02*
X119375000Y-54700000D01*
X121950000Y-51300000D02*
X119000000Y-51300000D01*
D15*
%TO.C,C8*%
X128685000Y-73140580D02*
X128685000Y-72859420D01*
X127665000Y-73140580D02*
X127665000Y-72859420D01*
%TO.C,Q1*%
X151560000Y-94000000D02*
X151560000Y-94650000D01*
X151560000Y-94000000D02*
X151560000Y-92325000D01*
X148440000Y-94000000D02*
X148440000Y-93350000D01*
X148440000Y-94000000D02*
X148440000Y-94650000D01*
%TO.C,U2*%
X116365000Y-84110000D02*
X116365000Y-83160000D01*
X116365000Y-74840000D02*
X115025000Y-74840000D01*
X116365000Y-73890000D02*
X116365000Y-74840000D01*
X125635000Y-84110000D02*
X126585000Y-84110000D01*
X117315000Y-84110000D02*
X116365000Y-84110000D01*
X125635000Y-73890000D02*
X126585000Y-73890000D01*
X126585000Y-84110000D02*
X126585000Y-83160000D01*
X126585000Y-73890000D02*
X126585000Y-74840000D01*
X117315000Y-73890000D02*
X116365000Y-73890000D01*
%TO.C,R5*%
X149772936Y-100950000D02*
X150227064Y-100950000D01*
X149772936Y-99480000D02*
X150227064Y-99480000D01*
%TO.C,R1*%
X149772936Y-105637500D02*
X150227064Y-105637500D01*
X149772936Y-107107500D02*
X150227064Y-107107500D01*
%TO.C,C2*%
X144186252Y-110410000D02*
X142763748Y-110410000D01*
X144186252Y-108590000D02*
X142763748Y-108590000D01*
%TO.C,C15*%
X162765000Y-79784420D02*
X162765000Y-80065580D01*
X163785000Y-79784420D02*
X163785000Y-80065580D01*
%TO.C,R13*%
X111552064Y-77615000D02*
X111097936Y-77615000D01*
X111552064Y-79085000D02*
X111097936Y-79085000D01*
%TO.C,G\u002A\u002A\u002A*%
G36*
X83405614Y-48288640D02*
G01*
X83806674Y-48289293D01*
X84150516Y-48290459D01*
X84440803Y-48292200D01*
X84681202Y-48294581D01*
X84875376Y-48297664D01*
X85026989Y-48301512D01*
X85139708Y-48306189D01*
X85217195Y-48311758D01*
X85263116Y-48318283D01*
X85281136Y-48325826D01*
X85281507Y-48328780D01*
X85267879Y-48368641D01*
X85236590Y-48461800D01*
X85190299Y-48600286D01*
X85131665Y-48776132D01*
X85063348Y-48981366D01*
X84988007Y-49208021D01*
X84963952Y-49280451D01*
X84661344Y-50191779D01*
X82530082Y-50208767D01*
X82460662Y-50612198D01*
X82432457Y-50776446D01*
X82406748Y-50926774D01*
X82386345Y-51046711D01*
X82374057Y-51119787D01*
X82373936Y-51120521D01*
X82356631Y-51225413D01*
X84322545Y-51225413D01*
X84306035Y-51298030D01*
X84294750Y-51354059D01*
X84274712Y-51459949D01*
X84247766Y-51605452D01*
X84215754Y-51780317D01*
X84180521Y-51974296D01*
X84143911Y-52177141D01*
X84107767Y-52378601D01*
X84073935Y-52568428D01*
X84044257Y-52736373D01*
X84020578Y-52872187D01*
X84004741Y-52965620D01*
X83998591Y-53006424D01*
X83998570Y-53006973D01*
X83967602Y-53013396D01*
X83879920Y-53019235D01*
X83743358Y-53024285D01*
X83565750Y-53028341D01*
X83354931Y-53031195D01*
X83118733Y-53032643D01*
X83016764Y-53032783D01*
X82034957Y-53032783D01*
X82016654Y-53121537D01*
X82007216Y-53172559D01*
X81988215Y-53279671D01*
X81960963Y-53435335D01*
X81926768Y-53632013D01*
X81886941Y-53862169D01*
X81842792Y-54118265D01*
X81795630Y-54392764D01*
X81788092Y-54436722D01*
X81740570Y-54713411D01*
X81695841Y-54972873D01*
X81655217Y-55207569D01*
X81620010Y-55409962D01*
X81591532Y-55572514D01*
X81571094Y-55687689D01*
X81560008Y-55747949D01*
X81559208Y-55751906D01*
X81540583Y-55840661D01*
X79263888Y-55840661D01*
X79366521Y-55251652D01*
X79386824Y-55135457D01*
X79417376Y-54961053D01*
X79457236Y-54733803D01*
X79505462Y-54459067D01*
X79561111Y-54142208D01*
X79623241Y-53788589D01*
X79690910Y-53403571D01*
X79763176Y-52992516D01*
X79839096Y-52560787D01*
X79917729Y-52113745D01*
X79998132Y-51656753D01*
X80030021Y-51475540D01*
X80590887Y-48288437D01*
X82943671Y-48288437D01*
X83405614Y-48288640D01*
G37*
G36*
X87432802Y-48294290D02*
G01*
X87814504Y-48294682D01*
X88218634Y-48295444D01*
X88554171Y-48296326D01*
X91345077Y-48304574D01*
X91175351Y-49240533D01*
X91132374Y-49477482D01*
X91093282Y-49692916D01*
X91059512Y-49878913D01*
X91032505Y-50027552D01*
X91013699Y-50130912D01*
X91004533Y-50181069D01*
X91003877Y-50184561D01*
X90972542Y-50186749D01*
X90885249Y-50188712D01*
X90750589Y-50190364D01*
X90577154Y-50191624D01*
X90373533Y-50192405D01*
X90181034Y-50192630D01*
X89957281Y-50193713D01*
X89755354Y-50196759D01*
X89584070Y-50201468D01*
X89452242Y-50207539D01*
X89368685Y-50214669D01*
X89342215Y-50221310D01*
X89334960Y-50255218D01*
X89317605Y-50347150D01*
X89291131Y-50491542D01*
X89256518Y-50682826D01*
X89214745Y-50915438D01*
X89166793Y-51183812D01*
X89113642Y-51482381D01*
X89056272Y-51805579D01*
X88995663Y-52147841D01*
X88932796Y-52503601D01*
X88868649Y-52867293D01*
X88804204Y-53233350D01*
X88740440Y-53596208D01*
X88678338Y-53950300D01*
X88618878Y-54290059D01*
X88563039Y-54609921D01*
X88511802Y-54904320D01*
X88466147Y-55167689D01*
X88427053Y-55394462D01*
X88395502Y-55579074D01*
X88372473Y-55715959D01*
X88358946Y-55799551D01*
X88355622Y-55824159D01*
X88324557Y-55827970D01*
X88236192Y-55831471D01*
X88097779Y-55834556D01*
X87916568Y-55837122D01*
X87699809Y-55839064D01*
X87454751Y-55840277D01*
X87209264Y-55840661D01*
X86062906Y-55840661D01*
X86079140Y-55768043D01*
X86089321Y-55715402D01*
X86109158Y-55606242D01*
X86137673Y-55446210D01*
X86173894Y-55240954D01*
X86216844Y-54996120D01*
X86265549Y-54717355D01*
X86319033Y-54410307D01*
X86376323Y-54080622D01*
X86436443Y-53733947D01*
X86498419Y-53375930D01*
X86561274Y-53012218D01*
X86624035Y-52648457D01*
X86685727Y-52290296D01*
X86745374Y-51943380D01*
X86802002Y-51613356D01*
X86854637Y-51305873D01*
X86902302Y-51026577D01*
X86944023Y-50781115D01*
X86978825Y-50575133D01*
X87005734Y-50414280D01*
X87023774Y-50304202D01*
X87031971Y-50250547D01*
X87032370Y-50246470D01*
X87027503Y-50229944D01*
X87008073Y-50217165D01*
X86966835Y-50207658D01*
X86896546Y-50200949D01*
X86789960Y-50196566D01*
X86639834Y-50194035D01*
X86438924Y-50192881D01*
X86208756Y-50192630D01*
X85385142Y-50192630D01*
X85402574Y-50120013D01*
X85412799Y-50069810D01*
X85432769Y-49965168D01*
X85460797Y-49815176D01*
X85495196Y-49628922D01*
X85534278Y-49415497D01*
X85576355Y-49183988D01*
X85576569Y-49182803D01*
X85618276Y-48954890D01*
X85656900Y-48748389D01*
X85690810Y-48571645D01*
X85718380Y-48433006D01*
X85737981Y-48340816D01*
X85747984Y-48303423D01*
X85748199Y-48303145D01*
X85781996Y-48300979D01*
X85875661Y-48299093D01*
X86024514Y-48297498D01*
X86223875Y-48296206D01*
X86469064Y-48295227D01*
X86755402Y-48294574D01*
X87078208Y-48294258D01*
X87432802Y-48294290D01*
G37*
%TO.C,C12*%
X114235000Y-83359420D02*
X114235000Y-83640580D01*
X113215000Y-83359420D02*
X113215000Y-83640580D01*
%TO.C,C11*%
X111340000Y-83359420D02*
X111340000Y-83640580D01*
X112360000Y-83359420D02*
X112360000Y-83640580D01*
%TO.C,C3*%
X144186252Y-107410000D02*
X142763748Y-107410000D01*
X144186252Y-105590000D02*
X142763748Y-105590000D01*
%TO.C,C4*%
X144186252Y-102590000D02*
X142763748Y-102590000D01*
X144186252Y-104410000D02*
X142763748Y-104410000D01*
%TO.C,J5*%
X166965000Y-80460000D02*
X166965000Y-80080000D01*
X166965000Y-72840000D02*
X166965000Y-73220000D01*
X166965000Y-72840000D02*
X168735000Y-72840000D01*
X168735000Y-80460000D02*
X166965000Y-80460000D01*
%TO.C,C1*%
X149736252Y-122165000D02*
X150258756Y-122165000D01*
X149736252Y-120695000D02*
X150258756Y-120695000D01*
%TO.C,F1*%
X142872936Y-99160000D02*
X144077064Y-99160000D01*
X142872936Y-97340000D02*
X144077064Y-97340000D01*
%TO.C,FB1*%
X143874622Y-112040000D02*
X143075378Y-112040000D01*
X143874622Y-113160000D02*
X143075378Y-113160000D01*
%TO.C,J6*%
X75145000Y-68845000D02*
X75145000Y-91765000D01*
X75145000Y-67575000D02*
X75145000Y-66245000D01*
X75145000Y-66245000D02*
X76475000Y-66245000D01*
X75145000Y-91765000D02*
X77805000Y-91765000D01*
X75145000Y-68845000D02*
X77805000Y-68845000D01*
X77805000Y-68845000D02*
X77805000Y-91765000D01*
%TO.C,R7*%
X136044564Y-78800000D02*
X135590436Y-78800000D01*
X136044564Y-80270000D02*
X135590436Y-80270000D01*
%TO.C,J3*%
X95270000Y-122670000D02*
X95270000Y-125330000D01*
X102950000Y-122670000D02*
X102950000Y-125330000D01*
X104220000Y-122670000D02*
X105550000Y-122670000D01*
X105550000Y-122670000D02*
X105550000Y-124000000D01*
X102950000Y-122670000D02*
X95270000Y-122670000D01*
X102950000Y-125330000D02*
X95270000Y-125330000D01*
%TO.C,R3*%
X150227064Y-102558750D02*
X149772936Y-102558750D01*
X150227064Y-104028750D02*
X149772936Y-104028750D01*
%TO.C,C10*%
X110955000Y-73065580D02*
X110955000Y-72784420D01*
X111975000Y-73065580D02*
X111975000Y-72784420D01*
%TO.C,C9*%
X118334420Y-70510000D02*
X118615580Y-70510000D01*
X118334420Y-69490000D02*
X118615580Y-69490000D01*
%TD*%
M02*
